<svg width="664.810009765625px" height="80.732421875px" xmlns="http://www.w3.org/2000/svg" viewBox="-82.40500488281248 34.6337890625 664.810009765625 80.732421875" style="background-image: none; background-position: initial initial; background-repeat: initial initial;" preserveAspectRatio="xMidYMid"><defs><filter id="editing-hole" x="-100%" y="-100%" width="300%" height="300%"><feFlood flood-color="#0d99ff" result="black"></feFlood><feMorphology operator="dilate" radius="2" in="SourceGraphic" result="erode"></feMorphology><feGaussianBlur in="erode" stdDeviation="4" result="blur"></feGaussianBlur><feOffset in="blur" dx="2" dy="2" result="offset"></feOffset><feComposite operator="atop" in="offset" in2="black" result="merge"></feComposite><feComposite operator="in" in="merge" in2="SourceGraphic" result="inner-shadow"></feComposite></filter></defs><g filter="url(#editing-hole)"><g transform="translate(11.710005521774292, 90.09437465667725)"><path d="M18.86-28.21L18.86-28.21Q21.48-28.21 23.53-27.00L23.53-27.00L23.53-27.00Q25.58-25.79 26.73-23.68L26.73-23.68L26.73-23.68Q27.88-21.57 27.88-18.94L27.88-18.94L27.88-18.41L27.88-18.41Q27.88-15.79 26.73-13.65L26.73-13.65L26.73-13.65Q25.58-11.52 23.53-10.31L23.53-10.31L23.53-10.31Q21.48-9.10 18.86-9.10L18.86-9.10L12.10-9.10L12.10 0L3.03 0L3.03-28.21L18.86-28.21ZM12.10-21.53L12.10-15.70L15.83-15.70L15.83-15.70Q17.26-15.70 17.98-16.44L17.98-16.44L17.98-16.44Q18.70-17.18 18.70-18.45L18.70-18.45L18.70-18.78L18.70-18.78Q18.70-20.09 17.98-20.81L17.98-20.81L17.98-20.81Q17.26-21.53 15.83-21.53L15.83-21.53L12.10-21.53ZM42.76-22.14L42.76-22.14Q47.72-22.14 50.84-20.48L50.84-20.48L50.84-20.48Q53.96-18.82 53.96-15.09L53.96-15.09L53.96-6.64L53.96-6.64Q53.96-5.95 54.28-5.49L54.28-5.49L54.28-5.49Q54.61-5.04 55.27-5.04L55.27-5.04L56.74-5.04L56.74-0.33L56.74-0.33Q56.62-0.25 56.11-0.06L56.11-0.06L56.11-0.06Q55.60 0.12 54.65 0.31L54.65 0.31L54.65 0.31Q53.71 0.49 52.48 0.49L52.48 0.49L52.48 0.49Q50.10 0.49 48.56-0.23L48.56-0.23L48.56-0.23Q47.03-0.94 46.45-2.21L46.45-2.21L46.45-2.21Q44.90-0.98 42.97-0.25L42.97-0.25L42.97-0.25Q41.04 0.49 38.46 0.49L38.46 0.49L38.46 0.49Q30.83 0.49 30.83-5.58L30.83-5.58L30.83-5.58Q30.83-8.73 32.53-10.39L32.53-10.39L32.53-10.39Q34.23-12.05 37.43-12.67L37.43-12.67L37.43-12.67Q40.63-13.28 45.80-13.28L45.80-13.28L45.80-14.35L45.80-14.35Q45.80-15.62 44.92-16.28L44.92-16.28L44.92-16.28Q44.03-16.93 42.64-16.93L42.64-16.93L42.64-16.93Q41.37-16.93 40.45-16.48L40.45-16.48L40.45-16.48Q39.52-16.03 39.52-15.05L39.52-15.05L39.52-14.88L31.49-14.88L31.49-14.88Q31.45-15.09 31.45-15.46L31.45-15.46L31.45-15.46Q31.45-18.53 34.38-20.34L34.38-20.34L34.38-20.34Q37.31-22.14 42.76-22.14L42.76-22.14ZM45.80-9.43L45.80-9.43Q42.31-9.43 40.65-8.67L40.65-8.67L40.65-8.67Q38.99-7.91 38.99-6.64L38.99-6.64L38.99-6.64Q38.99-4.59 41.78-4.59L41.78-4.59L41.78-4.59Q43.38-4.59 44.59-5.45L44.59-5.45L44.59-5.45Q45.80-6.31 45.80-7.58L45.80-7.58L45.80-9.43ZM74.33-22.14L74.33-22.14Q78.11-22.14 79.99-20.05L79.99-20.05L79.99-20.05Q81.88-17.96 81.88-14.02L81.88-14.02L81.88 0L73.72 0L73.72-13.04L73.72-13.04Q73.72-14.43 73.00-15.27L73.00-15.27L73.00-15.27Q72.28-16.11 70.97-16.11L70.97-16.11L70.97-16.11Q69.45-16.11 68.51-15.13L68.51-15.13L68.51-15.13Q67.57-14.15 67.57-12.71L67.57-12.71L67.57 0L59.41 0L59.41-21.65L66.09-21.65L66.63-18.37L66.63-18.37Q67.90-20.09 69.97-21.12L69.97-21.12L69.97-21.12Q72.04-22.14 74.33-22.14L74.33-22.14ZM97.95-22.14L97.95-22.14Q103.89-22.14 107.03-19.35L107.03-19.35L107.03-19.35Q110.17-16.56 110.17-10.82L110.17-10.82L110.17-9.43L93.93-9.43L93.93-9.43Q93.93-7.09 94.98-5.90L94.98-5.90L94.98-5.90Q96.02-4.71 98.28-4.71L98.28-4.71L98.28-4.71Q100.33-4.71 101.29-5.58L101.29-5.58L101.29-5.58Q102.25-6.44 102.25-7.87L102.25-7.87L110.17-7.87L110.17-7.87Q110.17-3.94 107.17-1.72L107.17-1.72L107.17-1.72Q104.18 0.49 98.44 0.49L98.44 0.49L98.44 0.49Q92.41 0.49 89.09-2.32L89.09-2.32L89.09-2.32Q85.77-5.13 85.77-10.82L85.77-10.82L85.77-10.82Q85.77-16.40 89.01-19.27L89.01-19.27L89.01-19.27Q92.25-22.14 97.95-22.14L97.95-22.14ZM98.28-16.93L98.28-16.93Q94.42-16.93 93.97-13.28L93.97-13.28L101.93-13.28L101.93-13.28Q101.93-14.96 100.96-15.95L100.96-15.95L100.96-15.95Q100.00-16.93 98.28-16.93L98.28-16.93ZM122.55 0L114.39 0L114.39-29.73L122.55-29.73L122.55 0ZM170.48 0L160.88 0L159.70-3.98L149.81-3.98L148.63 0L139.36 0L149.65-28.21L160.19-28.21L170.48 0ZM154.69-20.34L151.70-10.29L157.81-10.29L154.86-20.34L154.69-20.34ZM195.69 0L189.05 0L188.35-3.08L188.35-3.08Q185.98 0.49 181.47 0.49L181.47 0.49L181.47 0.49Q177.08 0.49 174.70-2.38L174.70-2.38L174.70-2.38Q172.32-5.25 172.32-10.87L172.32-10.87L172.32-10.87Q172.32-16.44 174.70-19.29L174.70-19.29L174.70-19.29Q177.08-22.14 181.47-22.14L181.47-22.14L181.47-22.14Q185.20-22.14 187.53-19.64L187.53-19.64L187.53-29.73L195.69-29.73L195.69 0ZM184.01-16.11L184.01-16.11Q180.48-16.11 180.48-11.89L180.48-11.89L180.48-9.72L180.48-9.72Q180.48-5.54 184.01-5.54L184.01-5.54L184.01-5.54Q185.81-5.54 186.71-6.81L186.71-6.81L186.71-6.81Q187.62-8.08 187.62-10.13L187.62-10.13L187.62-11.48L187.62-11.48Q187.62-13.53 186.71-14.82L186.71-14.82L186.71-14.82Q185.81-16.11 184.01-16.11L184.01-16.11ZM229.40-22.14L229.40-22.14Q233.09-22.14 234.93-20.03L234.93-20.03L234.93-20.03Q236.78-17.92 236.78-14.02L236.78-14.02L236.78 0L228.62 0L228.62-13.04L228.62-13.04Q228.62-14.43 227.94-15.27L227.94-15.27L227.94-15.27Q227.26-16.11 226.03-16.11L226.03-16.11L226.03-16.11Q224.60-16.11 223.70-15.13L223.70-15.13L223.70-15.13Q222.79-14.15 222.79-12.71L222.79-12.71L222.79 0L214.64 0L214.64-13.04L214.64-13.04Q214.64-14.43 213.96-15.27L213.96-15.27L213.96-15.27Q213.28-16.11 212.05-16.11L212.05-16.11L212.05-16.11Q210.62-16.11 209.72-15.13L209.72-15.13L209.72-15.13Q208.81-14.15 208.81-12.71L208.81-12.71L208.81 0L200.65 0L200.65-21.65L207.34-21.65L207.87-18.41L207.87-18.41Q209.10-20.13 211.13-21.14L211.13-21.14L211.13-21.14Q213.16-22.14 215.41-22.14L215.41-22.14L215.41-22.14Q220.29-22.14 221.97-18.41L221.97-18.41L221.97-18.41Q223.25-20.13 225.23-21.14L225.23-21.14L225.23-21.14Q227.22-22.14 229.40-22.14L229.40-22.14ZM250.10-24.19L241.94-24.19L241.94-29.73L250.10-29.73L250.10-24.19ZM250.10 0L241.94 0L241.94-21.65L250.10-21.65L250.10 0ZM270.23-22.14L270.23-22.14Q274.00-22.14 275.89-20.05L275.89-20.05L275.89-20.05Q277.78-17.96 277.78-14.02L277.78-14.02L277.78 0L269.62 0L269.62-13.04L269.62-13.04Q269.62-14.43 268.90-15.27L268.90-15.27L268.90-15.27Q268.18-16.11 266.87-16.11L266.87-16.11L266.87-16.11Q265.35-16.11 264.41-15.13L264.41-15.13L264.41-15.13Q263.47-14.15 263.47-12.71L263.47-12.71L263.47 0L255.31 0L255.31-21.65L261.99-21.65L262.52-18.37L262.52-18.37Q263.79-20.09 265.86-21.12L265.86-21.12L265.86-21.12Q267.94-22.14 270.23-22.14L270.23-22.14ZM291.10-24.19L282.94-24.19L282.94-29.73L291.10-29.73L291.10-24.19ZM291.10 0L282.94 0L282.94-21.65L291.10-21.65L291.10 0ZM306.60-22.14L306.60-22.14Q310.94-22.14 313.96-20.44L313.96-20.44L313.96-20.44Q316.97-18.74 316.97-15.17L316.97-15.17L309.39-15.17L309.39-15.17Q309.39-16.36 308.32-16.85L308.32-16.85L308.32-16.85Q307.58-17.26 306.48-17.26L306.48-17.26L306.48-17.26Q303.52-17.26 303.52-15.87L303.52-15.87L303.52-15.87Q303.52-15.09 304.55-14.76L304.55-14.76L304.55-14.76Q305.57-14.43 307.91-14.06L307.91-14.06L307.91-14.06Q310.78-13.65 312.71-13.10L312.71-13.10L312.71-13.10Q314.63-12.55 316.07-11.13L316.07-11.13L316.07-11.13Q317.50-9.72 317.50-7.18L317.50-7.18L317.50-7.18Q317.50-3.03 314.41-1.27L314.41-1.27L314.41-1.27Q311.31 0.49 306.31 0.49L306.31 0.49L306.31 0.49Q303.44 0.49 300.90-0.31L300.90-0.31L300.90-0.31Q298.36-1.11 296.76-2.79L296.76-2.79L296.76-2.79Q295.16-4.47 295.16-7.05L295.16-7.05L302.74-7.05L302.74-6.89L302.74-6.89Q302.79-5.49 303.91-4.94L303.91-4.94L303.91-4.94Q305.04-4.39 306.31-4.39L306.31-4.39L306.31-4.39Q309.71-4.39 309.71-5.99L309.71-5.99L309.71-5.99Q309.71-6.81 308.65-7.18L308.65-7.18L308.65-7.18Q307.58-7.54 305.16-7.95L305.16-7.95L305.16-7.95Q302.25-8.45 300.39-9.02L300.39-9.02L300.39-9.02Q298.52-9.59 297.13-10.97L297.13-10.97L297.13-10.97Q295.73-12.34 295.73-14.80L295.73-14.80L295.73-14.80Q295.73-18.78 298.75-20.46L298.75-20.46L298.75-20.46Q301.76-22.14 306.60-22.14L306.60-22.14ZM331.20-21.65L335.79-21.65L335.79-16.11L331.20-16.11L331.20-7.87L331.20-7.87Q331.20-6.40 331.69-5.72L331.69-5.72L331.69-5.72Q332.18-5.04 333.49-5.04L333.49-5.04L335.79-5.04L335.79-0.25L335.79-0.25Q334.81 0.08 333.25 0.29L333.25 0.29L333.25 0.29Q331.69 0.49 330.54 0.49L330.54 0.49L330.54 0.49Q326.93 0.49 324.99-0.82L324.99-0.82L324.99-0.82Q323.04-2.13 323.04-5.29L323.04-5.29L323.04-16.11L320.01-16.11L320.01-21.65L323.37-21.65L325.13-28.21L331.20-28.21L331.20-21.65ZM352.72-22.18L352.72-22.18Q353.67-22.18 354.40-21.96L354.40-21.96L354.40-21.96Q355.14-21.73 355.14-21.69L355.14-21.69L355.14-14.84L352.52-14.84L352.52-14.84Q349.98-14.84 348.85-13.53L348.85-13.53L348.85-13.53Q347.72-12.22 347.72-9.63L347.72-9.63L347.72 0L339.56 0L339.56-21.65L346.25-21.65L346.78-18.37L346.78-18.37Q347.52-20.25 349.12-21.22L349.12-21.22L349.12-21.22Q350.71-22.18 352.72-22.18L352.72-22.18ZM368.47-22.14L368.47-22.14Q373.43-22.14 376.54-20.48L376.54-20.48L376.54-20.48Q379.66-18.82 379.66-15.09L379.66-15.09L379.66-6.64L379.66-6.64Q379.66-5.95 379.99-5.49L379.99-5.49L379.99-5.49Q380.32-5.04 380.97-5.04L380.97-5.04L382.45-5.04L382.45-0.33L382.45-0.33Q382.33-0.25 381.81-0.06L381.81-0.06L381.81-0.06Q381.30 0.12 380.36 0.31L380.36 0.31L380.36 0.31Q379.41 0.49 378.18 0.49L378.18 0.49L378.18 0.49Q375.81 0.49 374.27-0.23L374.27-0.23L374.27-0.23Q372.73-0.94 372.16-2.21L372.16-2.21L372.16-2.21Q370.60-0.98 368.67-0.25L368.67-0.25L368.67-0.25Q366.75 0.49 364.16 0.49L364.16 0.49L364.16 0.49Q356.54 0.49 356.54-5.58L356.54-5.58L356.54-5.58Q356.54-8.73 358.24-10.39L358.24-10.39L358.24-10.39Q359.94-12.05 363.14-12.67L363.14-12.67L363.14-12.67Q366.34-13.28 371.50-13.28L371.50-13.28L371.50-14.35L371.50-14.35Q371.50-15.62 370.62-16.28L370.62-16.28L370.62-16.28Q369.74-16.93 368.34-16.93L368.34-16.93L368.34-16.93Q367.07-16.93 366.15-16.48L366.15-16.48L366.15-16.48Q365.23-16.03 365.23-15.05L365.23-15.05L365.23-14.88L357.19-14.88L357.19-14.88Q357.15-15.09 357.15-15.46L357.15-15.46L357.15-15.46Q357.15-18.53 360.08-20.34L360.08-20.34L360.08-20.34Q363.01-22.14 368.47-22.14L368.47-22.14ZM371.50-9.43L371.50-9.43Q368.02-9.43 366.36-8.67L366.36-8.67L366.36-8.67Q364.70-7.91 364.70-6.64L364.70-6.64L364.70-6.64Q364.70-4.59 367.48-4.59L367.48-4.59L367.48-4.59Q369.08-4.59 370.29-5.45L370.29-5.45L370.29-5.45Q371.50-6.31 371.50-7.58L371.50-7.58L371.50-9.43ZM394.95-21.65L399.55-21.65L399.55-16.11L394.95-16.11L394.95-7.87L394.95-7.87Q394.95-6.40 395.44-5.72L395.44-5.72L395.44-5.72Q395.94-5.04 397.25-5.04L397.25-5.04L399.55-5.04L399.55-0.25L399.55-0.25Q398.56 0.08 397.00 0.29L397.00 0.29L397.00 0.29Q395.44 0.49 394.30 0.49L394.30 0.49L394.30 0.49Q390.69 0.49 388.74-0.82L388.74-0.82L388.74-0.82Q386.79-2.13 386.79-5.29L386.79-5.29L386.79-16.11L383.76-16.11L383.76-21.65L387.12-21.65L388.89-28.21L394.95-28.21L394.95-21.65ZM414.51-22.14L414.51-22.14Q420.21-22.14 423.47-19.25L423.47-19.25L423.47-19.25Q426.73-16.36 426.73-10.82L426.73-10.82L426.73-10.82Q426.73-5.29 423.47-2.40L423.47-2.40L423.47-2.40Q420.21 0.49 414.51 0.49L414.51 0.49L414.51 0.49Q408.81 0.49 405.57-2.38L405.57-2.38L405.57-2.38Q402.33-5.25 402.33-10.82L402.33-10.82L402.33-10.82Q402.33-16.40 405.57-19.27L405.57-19.27L405.57-19.27Q408.81-22.14 414.51-22.14L414.51-22.14ZM414.51-16.61L414.51-16.61Q410.49-16.61 410.49-11.97L410.49-11.97L410.49-9.63L410.49-9.63Q410.49-5.04 414.51-5.04L414.51-5.04L414.51-5.04Q418.57-5.04 418.57-9.63L418.57-9.63L418.57-11.97L418.57-11.97Q418.57-16.61 414.51-16.61L414.51-16.61ZM443.82-22.18L443.82-22.18Q444.77-22.18 445.51-21.96L445.51-21.96L445.51-21.96Q446.24-21.73 446.24-21.69L446.24-21.69L446.24-14.84L443.62-14.84L443.62-14.84Q441.08-14.84 439.95-13.53L439.95-13.53L439.95-13.53Q438.82-12.22 438.82-9.63L438.82-9.63L438.82 0L430.66 0L430.66-21.65L437.35-21.65L437.88-18.37L437.88-18.37Q438.62-20.25 440.22-21.22L440.22-21.22L440.22-21.22Q441.82-22.18 443.82-22.18L443.82-22.18ZM459.57-22.14L459.57-22.14Q464.53-22.14 467.65-20.48L467.65-20.48L467.65-20.48Q470.76-18.82 470.76-15.09L470.76-15.09L470.76-6.64L470.76-6.64Q470.76-5.95 471.09-5.49L471.09-5.49L471.09-5.49Q471.42-5.04 472.07-5.04L472.07-5.04L473.55-5.04L473.55-0.33L473.55-0.33Q473.43-0.25 472.91-0.06L472.91-0.06L472.91-0.06Q472.40 0.12 471.46 0.31L471.46 0.31L471.46 0.31Q470.52 0.49 469.29 0.49L469.29 0.49L469.29 0.49Q466.91 0.49 465.37-0.23L465.37-0.23L465.37-0.23Q463.83-0.94 463.26-2.21L463.26-2.21L463.26-2.21Q461.70-0.98 459.77-0.25L459.77-0.25L459.77-0.25Q457.85 0.49 455.26 0.49L455.26 0.49L455.26 0.49Q447.64 0.49 447.64-5.58L447.64-5.58L447.64-5.58Q447.64-8.73 449.34-10.39L449.34-10.39L449.34-10.39Q451.04-12.05 454.24-12.67L454.24-12.67L454.24-12.67Q457.44-13.28 462.60-13.28L462.60-13.28L462.60-14.35L462.60-14.35Q462.60-15.62 461.72-16.28L461.72-16.28L461.72-16.28Q460.84-16.93 459.45-16.93L459.45-16.93L459.45-16.93Q458.18-16.93 457.25-16.48L457.25-16.48L457.25-16.48Q456.33-16.03 456.33-15.05L456.33-15.05L456.33-14.88L448.29-14.88L448.29-14.88Q448.25-15.09 448.25-15.46L448.25-15.46L448.25-15.46Q448.25-18.53 451.18-20.34L451.18-20.34L451.18-20.34Q454.12-22.14 459.57-22.14L459.57-22.14ZM462.60-9.43L462.60-9.43Q459.12-9.43 457.46-8.67L457.46-8.67L457.46-8.67Q455.80-7.91 455.80-6.64L455.80-6.64L455.80-6.64Q455.80-4.59 458.59-4.59L458.59-4.59L458.59-4.59Q460.18-4.59 461.39-5.45L461.39-5.45L461.39-5.45Q462.60-6.31 462.60-7.58L462.60-7.58L462.60-9.43Z" fill="#0d99ff"></path></g></g><style>text {
  font-size: 64px;
  font-family: Arial Black;
  dominant-baseline: central;
  text-anchor: middle;
}</style></svg>