<svg width="930.180078125px" height="115.32749023437499px" xmlns="http://www.w3.org/2000/svg" viewBox="-215.0900390625 17.336254882812504 930.180078125 115.32749023437499" style="background-color: rgba(0, 0, 0, 0); background-position: initial initial; background-repeat: initial initial;" preserveAspectRatio="xMidYMid"><defs><filter id="editing-extrude-glow"><feFlood flood-color="none" result="flood-1"></feFlood><feMorphology operator="erode" radius="1" in="SourceAlpha" result="erode"></feMorphology><feComposite operator="in" in="flood-1" in2="erode" result="comp1"></feComposite><feConvolveMatrix order="1,1" divisor="1" in="comp1" result="convolve" kernelMatrix="1"></feConvolveMatrix><feOffset dx="-1" dy="0" in="convolve" result="extrude"></feOffset><feComposite operator="in" in="flood-1" in2="extrude" result="comp-extrude"></feComposite><feFlood flood-color="rgba(0%,0%,0%,0)" result="flood-2"></feFlood><feComposite operator="in" in="flood-2" in2="SourceAlpha" result="comp2"></feComposite><feMorphology operator="dilate" radius="1" in="comp2" result="dilate"></feMorphology><feOffset dx="-1.5" dy="0" in="dilate" result="offset"></feOffset><feGaussianBlur in="offset" stdDeviation="5.8" result="blur"></feGaussianBlur><feComponentTransfer in="blur" result="shadow"><feFuncA type="linear" slope="0.8" intercept="-0.2"></feFuncA></feComponentTransfer><feMerge><feMergeNode in="shadow"></feMergeNode><feMergeNode in="comp-extrude"></feMergeNode><feMergeNode in="SourceGraphic"></feMergeNode></feMerge></filter></defs><g filter="url(#editing-extrude-glow)"><g transform="translate(-81.48998293280602, 104.80937385559082)"><path d="M53.38 0L37.82 0L32.13-26.82L31.87-26.82L26.18 0L10.62 0L0.32-44.03L15.04-44.03L20.10-19.07L20.35-19.07L25.34-44.03L39.30-44.03L44.61-19.07L44.86-19.07L49.60-44.03L63.68-44.03L53.38 0ZM83.90-34.56L83.90-34.56Q90.69-34.56 95.39-31.90L95.39-31.90L95.39-31.90Q100.10-29.25 100.10-23.68L100.10-23.68L88.26-23.68L88.26-23.68Q88.26-25.54 86.59-26.30L86.59-26.30L86.59-26.30Q85.44-26.94 83.71-26.94L83.71-26.94L83.71-26.94Q79.10-26.94 79.10-24.77L79.10-24.77L79.10-24.77Q79.10-23.55 80.70-23.04L80.70-23.04L80.70-23.04Q82.30-22.53 85.95-21.95L85.95-21.95L85.95-21.95Q90.43-21.31 93.44-20.45L93.44-20.45L93.44-20.45Q96.45-19.58 98.69-17.38L98.69-17.38L98.69-17.38Q100.93-15.17 100.93-11.20L100.93-11.20L100.93-11.20Q100.93-4.74 96.10-1.98L96.10-1.98L96.10-1.98Q91.26 0.77 83.46 0.77L83.46 0.77L83.46 0.77Q78.98 0.77 75.01-0.48L75.01-0.48L75.01-0.48Q71.04-1.73 68.54-4.35L68.54-4.35L68.54-4.35Q66.05-6.98 66.05-11.01L66.05-11.01L77.89-11.01L77.89-10.75L77.89-10.75Q77.95-8.58 79.71-7.71L79.71-7.71L79.71-7.71Q81.47-6.85 83.46-6.85L83.46-6.85L83.46-6.85Q88.77-6.85 88.77-9.34L88.77-9.34L88.77-9.34Q88.77-10.62 87.10-11.20L87.10-11.20L87.10-11.20Q85.44-11.78 81.66-12.42L81.66-12.42L81.66-12.42Q77.12-13.18 74.21-14.08L74.21-14.08L74.21-14.08Q71.30-14.98 69.12-17.12L69.12-17.12L69.12-17.12Q66.94-19.26 66.94-23.10L66.94-23.10L66.94-23.10Q66.94-29.31 71.65-31.94L71.65-31.94L71.65-31.94Q76.35-34.56 83.90-34.56L83.90-34.56ZM136.77-29.82L122.43-8.64L137.34-8.64L137.34 0L104.38 0L104.38-4.16L118.59-25.15L105.15-25.15L105.15-33.79L136.77-33.79L136.77-29.82ZM165.76-1.02L165.76-1.02Q163.14 6.08 159.33 9.76L159.33 9.76L159.33 9.76Q155.52 13.44 148.67 13.44L148.67 13.44L148.67 13.44Q144.51 13.44 141.31 12.29L141.31 12.29L141.31 4.67L146.43 4.67L146.43 4.67Q151.23 4.67 152.13 0L152.13 0L138.69-33.79L152.38-33.79L158.85-11.33L159.30-11.33L165.25-33.79L177.79-33.79L165.76-1.02ZM197.70-34.56L197.70-34.56Q204.48-34.56 209.18-31.90L209.18-31.90L209.18-31.90Q213.89-29.25 213.89-23.68L213.89-23.68L202.05-23.68L202.05-23.68Q202.05-25.54 200.38-26.30L200.38-26.30L200.38-26.30Q199.23-26.94 197.50-26.94L197.50-26.94L197.50-26.94Q192.90-26.94 192.90-24.77L192.90-24.77L192.90-24.77Q192.90-23.55 194.50-23.04L194.50-23.04L194.50-23.04Q196.10-22.53 199.74-21.95L199.74-21.95L199.74-21.95Q204.22-21.31 207.23-20.45L207.23-20.45L207.23-20.45Q210.24-19.58 212.48-17.38L212.48-17.38L212.48-17.38Q214.72-15.17 214.72-11.20L214.72-11.20L214.72-11.20Q214.72-4.74 209.89-1.98L209.89-1.98L209.89-1.98Q205.06 0.77 197.25 0.77L197.25 0.77L197.25 0.77Q192.77 0.77 188.80-0.48L188.80-0.48L188.80-0.48Q184.83-1.73 182.34-4.35L182.34-4.35L182.34-4.35Q179.84-6.98 179.84-11.01L179.84-11.01L191.68-11.01L191.68-10.75L191.68-10.75Q191.74-8.58 193.50-7.71L193.50-7.71L193.50-7.71Q195.26-6.85 197.25-6.85L197.25-6.85L197.25-6.85Q202.56-6.85 202.56-9.34L202.56-9.34L202.56-9.34Q202.56-10.62 200.90-11.20L200.90-11.20L200.90-11.20Q199.23-11.78 195.46-12.42L195.46-12.42L195.46-12.42Q190.91-13.18 188.00-14.08L188.00-14.08L188.00-14.08Q185.09-14.98 182.91-17.12L182.91-17.12L182.91-17.12Q180.74-19.26 180.74-23.10L180.74-23.10L180.74-23.10Q180.74-29.31 185.44-31.94L185.44-31.94L185.44-31.94Q190.14-34.56 197.70-34.56L197.70-34.56ZM236.10-33.79L243.26-33.79L243.26-25.15L236.10-25.15L236.10-12.29L236.10-12.29Q236.10-9.98 236.86-8.93L236.86-8.93L236.86-8.93Q237.63-7.87 239.68-7.87L239.68-7.87L243.26-7.87L243.26-0.38L243.26-0.38Q241.73 0.13 239.30 0.45L239.30 0.45L239.30 0.45Q236.86 0.77 235.07 0.77L235.07 0.77L235.07 0.77Q229.44 0.77 226.40-1.28L226.40-1.28L226.40-1.28Q223.36-3.33 223.36-8.26L223.36-8.26L223.36-25.15L218.62-25.15L218.62-33.79L223.87-33.79L226.62-44.03L236.10-44.03L236.10-33.79ZM261.89-20.86L272.70-33.79L287.55-33.79L275.07-20.16L287.87 0L273.41 0L266.30-11.58L261.89-7.30L261.89 0L249.15 0L249.15-46.46L261.89-46.46L261.89-20.86ZM305.02-37.76L292.29-37.76L292.29-46.40L305.02-46.40L305.02-37.76ZM305.02 0L292.29 0L292.29-33.79L305.02-33.79L305.02 0ZM330.62-34.56L330.62-34.56Q339.90-34.56 344.80-30.21L344.80-30.21L344.80-30.21Q349.70-25.86 349.70-16.90L349.70-16.90L349.70-14.72L324.35-14.72L324.35-14.72Q324.35-11.07 325.98-9.22L325.98-9.22L325.98-9.22Q327.62-7.36 331.14-7.36L331.14-7.36L331.14-7.36Q334.34-7.36 335.84-8.70L335.84-8.70L335.84-8.70Q337.34-10.05 337.34-12.29L337.34-12.29L349.70-12.29L349.70-12.29Q349.70-6.14 345.02-2.69L345.02-2.69L345.02-2.69Q340.35 0.77 331.39 0.77L331.39 0.77L331.39 0.77Q321.98 0.77 316.80-3.62L316.80-3.62L316.80-3.62Q311.62-8 311.62-16.90L311.62-16.90L311.62-16.90Q311.62-25.60 316.67-30.08L316.67-30.08L316.67-30.08Q321.73-34.56 330.62-34.56L330.62-34.56ZM331.14-26.43L331.14-26.43Q325.12-26.43 324.42-20.74L324.42-20.74L336.83-20.74L336.83-20.74Q336.83-23.36 335.33-24.90L335.33-24.90L335.33-24.90Q333.82-26.43 331.14-26.43L331.14-26.43ZM412.10 0L401.66 0L400.83-5.12L400.83-5.12Q398.85-2.37 395.62-0.80L395.62-0.80L395.62-0.80Q392.38 0.77 388.80 0.77L388.80 0.77L388.80 0.77Q382.91 0.77 379.97-2.50L379.97-2.50L379.97-2.50Q377.02-5.76 377.02-11.90L377.02-11.90L377.02-33.79L389.76-33.79L389.76-13.44L389.76-13.44Q389.76-11.26 390.88-9.95L390.88-9.95L390.88-9.95Q392.00-8.64 394.05-8.64L394.05-8.64L394.05-8.64Q396.42-8.64 397.89-10.18L397.89-10.18L397.89-10.18Q399.36-11.71 399.36-13.95L399.36-13.95L399.36-33.79L412.10-33.79L412.10 0ZM437.31-34.56L437.31-34.56Q445.63-34.56 450.78-31.01L450.78-31.01L450.78-31.01Q455.94-27.46 455.94-20.16L455.94-20.16L443.58-20.16L443.58-20.16Q443.58-25.92 437.31-25.92L437.31-25.92L437.31-25.92Q431.04-25.92 431.04-18.69L431.04-18.69L431.04-15.04L431.04-15.04Q431.04-7.87 437.57-7.87L437.57-7.87L437.57-7.87Q444.10-7.87 444.10-13.76L444.10-13.76L455.94-13.76L455.94-13.76Q455.94-6.40 450.78-2.82L450.78-2.82L450.78-2.82Q445.63 0.77 437.31 0.77L437.31 0.77L437.31 0.77Q428.42 0.77 423.36-3.71L423.36-3.71L423.36-3.71Q418.30-8.19 418.30-16.90L418.30-16.90L418.30-16.90Q418.30-25.60 423.36-30.08L423.36-30.08L423.36-30.08Q428.42-34.56 437.31-34.56L437.31-34.56ZM492.35-29.82L478.02-8.64L492.93-8.64L492.93 0L459.97 0L459.97-4.16L474.18-25.15L460.74-25.15L460.74-33.79L492.35-33.79L492.35-29.82ZM515.58-34.56L515.58-34.56Q524.86-34.56 529.76-30.21L529.76-30.21L529.76-30.21Q534.66-25.86 534.66-16.90L534.66-16.90L534.66-14.72L509.31-14.72L509.31-14.72Q509.31-11.07 510.94-9.22L510.94-9.22L510.94-9.22Q512.58-7.36 516.10-7.36L516.10-7.36L516.10-7.36Q519.30-7.36 520.80-8.70L520.80-8.70L520.80-8.70Q522.30-10.05 522.30-12.29L522.30-12.29L534.66-12.29L534.66-12.29Q534.66-6.14 529.98-2.69L529.98-2.69L529.98-2.69Q525.31 0.77 516.35 0.77L516.35 0.77L516.35 0.77Q506.94 0.77 501.76-3.62L501.76-3.62L501.76-3.62Q496.58-8 496.58-16.90L496.58-16.90L496.58-16.90Q496.58-25.60 501.63-30.08L501.63-30.08L501.63-30.08Q506.69-34.56 515.58-34.56L515.58-34.56ZM516.10-26.43L516.10-26.43Q510.08-26.43 509.38-20.74L509.38-20.74L521.79-20.74L521.79-20.74Q521.79-23.36 520.29-24.90L520.29-24.90L520.29-24.90Q518.78-26.43 516.10-26.43L516.10-26.43ZM553.98 0L541.25 0L541.25-46.40L553.98-46.40L553.98 0ZM585.41-34.56L585.41-34.56Q591.30-34.56 594.24-31.30L594.24-31.30L594.24-31.30Q597.18-28.03 597.18-21.89L597.18-21.89L597.18 0L584.45 0L584.45-20.35L584.45-20.35Q584.45-22.53 583.33-23.84L583.33-23.84L583.33-23.84Q582.21-25.15 580.16-25.15L580.16-25.15L580.16-25.15Q577.79-25.15 576.32-23.62L576.32-23.62L576.32-23.62Q574.85-22.08 574.85-19.84L574.85-19.84L574.85 0L562.11 0L562.11-33.79L572.54-33.79L573.38-28.67L573.38-28.67Q575.36-31.36 578.59-32.96L578.59-32.96L578.59-32.96Q581.82-34.56 585.41-34.56L585.41-34.56ZM617.98-37.76L605.25-37.76L605.25-46.40L617.98-46.40L617.98-37.76ZM617.98 0L605.25 0L605.25-33.79L617.98-33.79L617.98 0ZM643.58-34.56L643.58-34.56Q652.86-34.56 657.76-30.21L657.76-30.21L657.76-30.21Q662.66-25.86 662.66-16.90L662.66-16.90L662.66-14.72L637.31-14.72L637.31-14.72Q637.31-11.07 638.94-9.22L638.94-9.22L638.94-9.22Q640.58-7.36 644.10-7.36L644.10-7.36L644.10-7.36Q647.30-7.36 648.80-8.70L648.80-8.70L648.80-8.70Q650.30-10.05 650.30-12.29L650.30-12.29L662.66-12.29L662.66-12.29Q662.66-6.14 657.98-2.69L657.98-2.69L657.98-2.69Q653.31 0.77 644.35 0.77L644.35 0.77L644.35 0.77Q634.94 0.77 629.76-3.62L629.76-3.62L629.76-3.62Q624.58-8 624.58-16.90L624.58-16.90L624.58-16.90Q624.58-25.60 629.63-30.08L629.63-30.08L629.63-30.08Q634.69-34.56 643.58-34.56L643.58-34.56ZM644.10-26.43L644.10-26.43Q638.08-26.43 637.38-20.74L637.38-20.74L649.79-20.74L649.79-20.74Q649.79-23.36 648.29-24.90L648.29-24.90L648.29-24.90Q646.78-26.43 644.10-26.43L644.10-26.43Z" fill="#0d99ff"></path></g></g><style>text {
  font-size: 64px;
  font-family: Arial Black;
  dominant-baseline: central;
  text-anchor: middle;
}</style></svg>