<svg width="662.0474609375px" height="78.777587890625px" xmlns="http://www.w3.org/2000/svg" viewBox="-81.02373046874999 35.6112060546875 662.0474609375 78.777587890625" style="background-color: rgba(0, 0, 0, 0); background-position: initial initial; background-repeat: initial initial;" preserveAspectRatio="xMidYMid"><defs><filter id="editing-extrude-glow"><feFlood flood-color="rgba(0%,0%,0%,0)" result="flood-1"></feFlood><feMorphology operator="erode" radius="1" in="SourceAlpha" result="erode"></feMorphology><feComposite operator="in" in="flood-1" in2="erode" result="comp1"></feComposite><feConvolveMatrix order="3,3" divisor="1" in="comp1" result="convolve" kernelMatrix="0 0 0 1 1 1 0 0 0"></feConvolveMatrix><feOffset dx="-3" dy="0" in="convolve" result="extrude"></feOffset><feComposite operator="in" in="flood-1" in2="extrude" result="comp-extrude"></feComposite><feFlood flood-color="rgba(0%,0%,0%,0)" result="flood-2"></feFlood><feComposite operator="in" in="flood-2" in2="SourceAlpha" result="comp2"></feComposite><feMorphology operator="dilate" radius="1" in="comp2" result="dilate"></feMorphology><feOffset dx="-4.5" dy="0" in="dilate" result="offset"></feOffset><feGaussianBlur in="offset" stdDeviation="5.8" result="blur"></feGaussianBlur><feComponentTransfer in="blur" result="shadow"><feFuncA type="linear" slope="0.8" intercept="-0.2"></feFuncA></feComponentTransfer><feMerge><feMergeNode in="shadow"></feMergeNode><feMergeNode in="comp-extrude"></feMergeNode><feMergeNode in="SourceGraphic"></feMergeNode></feMerge></filter></defs><g filter="url(#editing-extrude-glow)"><g transform="translate(12.120007321238518, 93.81375122070312)"><path d="M33.36 0L23.64 0L20.08-16.76L19.92-16.76L16.36 0L6.64 0L0.20-27.52L9.40-27.52L12.56-11.92L12.72-11.92L15.84-27.52L24.56-27.52L27.88-11.92L28.04-11.92L31-27.52L39.80-27.52L33.36 0ZM52.44-21.60L52.44-21.60Q56.68-21.60 59.62-19.94L59.62-19.94L59.62-19.94Q62.56-18.28 62.56-14.80L62.56-14.80L55.16-14.80L55.16-14.80Q55.16-15.96 54.12-16.44L54.12-16.44L54.12-16.44Q53.40-16.84 52.32-16.84L52.32-16.84L52.32-16.84Q49.44-16.84 49.44-15.48L49.44-15.48L49.44-15.48Q49.44-14.72 50.44-14.40L50.44-14.40L50.44-14.40Q51.44-14.08 53.72-13.72L53.72-13.72L53.72-13.72Q56.52-13.32 58.40-12.78L58.40-12.78L58.40-12.78Q60.28-12.24 61.68-10.86L61.68-10.86L61.68-10.86Q63.08-9.48 63.08-7L63.08-7L63.08-7Q63.08-2.96 60.06-1.24L60.06-1.24L60.06-1.24Q57.04 0.48 52.16 0.48L52.16 0.48L52.16 0.48Q49.36 0.48 46.88-0.30L46.88-0.30L46.88-0.30Q44.40-1.08 42.84-2.72L42.84-2.72L42.84-2.72Q41.28-4.36 41.28-6.88L41.28-6.88L48.68-6.88L48.68-6.72L48.68-6.72Q48.72-5.36 49.82-4.82L49.82-4.82L49.82-4.82Q50.92-4.28 52.16-4.28L52.16-4.28L52.16-4.28Q55.48-4.28 55.48-5.84L55.48-5.84L55.48-5.84Q55.48-6.64 54.44-7L54.44-7L54.44-7Q53.40-7.36 51.04-7.76L51.04-7.76L51.04-7.76Q48.20-8.24 46.38-8.80L46.38-8.80L46.38-8.80Q44.56-9.36 43.20-10.70L43.20-10.70L43.20-10.70Q41.84-12.04 41.84-14.44L41.84-14.44L41.84-14.44Q41.84-18.32 44.78-19.96L44.78-19.96L44.78-19.96Q47.72-21.60 52.44-21.60L52.44-21.60ZM85.48-18.64L76.52-5.40L85.84-5.40L85.84 0L65.24 0L65.24-2.60L74.12-15.72L65.72-15.72L65.72-21.12L85.48-21.12L85.48-18.64ZM103.60-0.64L103.60-0.64Q101.96 3.80 99.58 6.10L99.58 6.10L99.58 6.10Q97.20 8.40 92.92 8.40L92.92 8.40L92.92 8.40Q90.32 8.40 88.32 7.68L88.32 7.68L88.32 2.92L91.52 2.92L91.52 2.92Q94.52 2.92 95.08 0L95.08 0L86.68-21.12L95.24-21.12L99.28-7.08L99.56-7.08L103.28-21.12L111.12-21.12L103.60-0.64ZM123.56-21.60L123.56-21.60Q127.80-21.60 130.74-19.94L130.74-19.94L130.74-19.94Q133.68-18.28 133.68-14.80L133.68-14.80L126.28-14.80L126.28-14.80Q126.28-15.96 125.24-16.44L125.24-16.44L125.24-16.44Q124.52-16.84 123.44-16.84L123.44-16.84L123.44-16.84Q120.56-16.84 120.56-15.48L120.56-15.48L120.56-15.48Q120.56-14.72 121.56-14.40L121.56-14.40L121.56-14.40Q122.56-14.08 124.84-13.72L124.84-13.72L124.84-13.72Q127.64-13.32 129.52-12.78L129.52-12.78L129.52-12.78Q131.40-12.24 132.80-10.86L132.80-10.86L132.80-10.86Q134.20-9.48 134.20-7L134.20-7L134.20-7Q134.20-2.96 131.18-1.24L131.18-1.24L131.18-1.24Q128.16 0.48 123.28 0.48L123.28 0.48L123.28 0.48Q120.48 0.48 118-0.30L118-0.30L118-0.30Q115.52-1.08 113.96-2.72L113.96-2.72L113.96-2.72Q112.40-4.36 112.40-6.88L112.40-6.88L119.80-6.88L119.80-6.72L119.80-6.72Q119.84-5.36 120.94-4.82L120.94-4.82L120.94-4.82Q122.04-4.28 123.28-4.28L123.28-4.28L123.28-4.28Q126.60-4.28 126.60-5.84L126.60-5.84L126.60-5.84Q126.60-6.64 125.56-7L125.56-7L125.56-7Q124.52-7.36 122.16-7.76L122.16-7.76L122.16-7.76Q119.32-8.24 117.50-8.80L117.50-8.80L117.50-8.80Q115.68-9.36 114.32-10.70L114.32-10.70L114.32-10.70Q112.96-12.04 112.96-14.44L112.96-14.44L112.96-14.44Q112.96-18.32 115.90-19.96L115.90-19.96L115.90-19.96Q118.84-21.60 123.56-21.60L123.56-21.60ZM147.56-21.12L152.04-21.12L152.04-15.72L147.56-15.72L147.56-7.68L147.56-7.68Q147.56-6.24 148.04-5.58L148.04-5.58L148.04-5.58Q148.52-4.92 149.80-4.92L149.80-4.92L152.04-4.92L152.04-0.24L152.04-0.24Q151.08 0.08 149.56 0.28L149.56 0.28L149.56 0.28Q148.04 0.48 146.92 0.48L146.92 0.48L146.92 0.48Q143.40 0.48 141.50-0.80L141.50-0.80L141.50-0.80Q139.60-2.08 139.60-5.16L139.60-5.16L139.60-15.72L136.64-15.72L136.64-21.12L139.92-21.12L141.64-27.52L147.56-27.52L147.56-21.12ZM163.68-13.04L170.44-21.12L179.72-21.12L171.92-12.60L179.92 0L170.88 0L166.44-7.24L163.68-4.56L163.68 0L155.72 0L155.72-29.04L163.68-29.04L163.68-13.04ZM190.64-23.60L182.68-23.60L182.68-29L190.64-29L190.64-23.60ZM190.64 0L182.68 0L182.68-21.12L190.64-21.12L190.64 0ZM206.64-21.60L206.64-21.60Q212.44-21.60 215.50-18.88L215.50-18.88L215.50-18.88Q218.56-16.16 218.56-10.56L218.56-10.56L218.56-9.20L202.72-9.20L202.72-9.20Q202.72-6.92 203.74-5.76L203.74-5.76L203.74-5.76Q204.76-4.60 206.96-4.60L206.96-4.60L206.96-4.60Q208.96-4.60 209.90-5.44L209.90-5.44L209.90-5.44Q210.84-6.28 210.84-7.68L210.84-7.68L218.56-7.68L218.56-7.68Q218.56-3.84 215.64-1.68L215.64-1.68L215.64-1.68Q212.72 0.48 207.12 0.48L207.12 0.48L207.12 0.48Q201.24 0.48 198-2.26L198-2.26L198-2.26Q194.76-5 194.76-10.56L194.76-10.56L194.76-10.56Q194.76-16 197.92-18.80L197.92-18.80L197.92-18.80Q201.08-21.60 206.64-21.60L206.64-21.60ZM206.96-16.52L206.96-16.52Q203.20-16.52 202.76-12.96L202.76-12.96L210.52-12.96L210.52-12.96Q210.52-14.60 209.58-15.56L209.58-15.56L209.58-15.56Q208.64-16.52 206.96-16.52L206.96-16.52ZM249.64-21.60L249.64-21.60Q253.92-21.60 256.24-18.80L256.24-18.80L256.24-18.80Q258.56-16 258.56-10.52L258.56-10.52L258.56-10.52Q258.56-5.08 256.24-2.30L256.24-2.30L256.24-2.30Q253.92 0.48 249.64 0.48L249.64 0.48L249.64 0.48Q245.96 0.48 243.72-1.92L243.72-1.92L243.72 7.88L235.76 7.88L235.76-21.12L242.24-21.12L242.92-18.12L242.92-18.12Q245.24-21.60 249.64-21.60L249.64-21.60ZM247.16-15.72L247.16-15.72Q245.40-15.72 244.52-14.48L244.52-14.48L244.52-14.48Q243.64-13.24 243.64-11.24L243.64-11.24L243.64-9.92L243.64-9.92Q243.64-7.92 244.52-6.66L244.52-6.66L244.52-6.66Q245.40-5.40 247.16-5.40L247.16-5.40L247.16-5.40Q250.60-5.40 250.60-9.52L250.60-9.52L250.60-11.64L250.60-11.64Q250.60-15.72 247.16-15.72L247.16-15.72ZM275.24-21.64L275.24-21.64Q276.16-21.64 276.88-21.42L276.88-21.42L276.88-21.42Q277.60-21.20 277.60-21.16L277.60-21.16L277.60-14.48L275.04-14.48L275.04-14.48Q272.56-14.48 271.46-13.20L271.46-13.20L271.46-13.20Q270.36-11.92 270.36-9.40L270.36-9.40L270.36 0L262.40 0L262.40-21.12L268.92-21.12L269.44-17.92L269.44-17.92Q270.16-19.76 271.72-20.70L271.72-20.70L271.72-20.70Q273.28-21.64 275.24-21.64L275.24-21.64ZM298.80-18.64L289.84-5.40L299.16-5.40L299.16 0L278.56 0L278.56-2.60L287.44-15.72L279.04-15.72L279.04-21.12L298.80-21.12L298.80-18.64ZM313.32-21.60L313.32-21.60Q319.12-21.60 322.18-18.88L322.18-18.88L322.18-18.88Q325.24-16.16 325.24-10.56L325.24-10.56L325.24-9.20L309.40-9.20L309.40-9.20Q309.40-6.92 310.42-5.76L310.42-5.76L310.42-5.76Q311.44-4.60 313.64-4.60L313.64-4.60L313.64-4.60Q315.64-4.60 316.58-5.44L316.58-5.44L316.58-5.44Q317.52-6.28 317.52-7.68L317.52-7.68L325.24-7.68L325.24-7.68Q325.24-3.84 322.32-1.68L322.32-1.68L322.32-1.68Q319.40 0.48 313.80 0.48L313.80 0.48L313.80 0.48Q307.92 0.48 304.68-2.26L304.68-2.26L304.68-2.26Q301.44-5 301.44-10.56L301.44-10.56L301.44-10.56Q301.44-16 304.60-18.80L304.60-18.80L304.60-18.80Q307.76-21.60 313.32-21.60L313.32-21.60ZM313.64-16.52L313.64-16.52Q309.88-16.52 309.44-12.96L309.44-12.96L317.20-12.96L317.20-12.96Q317.20-14.60 316.26-15.56L316.26-15.56L316.26-15.56Q315.32-16.52 313.64-16.52L313.64-16.52ZM350.92 0L344.44 0L343.76-3L343.76-3Q341.44 0.48 337.04 0.48L337.04 0.48L337.04 0.48Q332.76 0.48 330.44-2.32L330.44-2.32L330.44-2.32Q328.12-5.12 328.12-10.60L328.12-10.60L328.12-10.60Q328.12-16.04 330.44-18.82L330.44-18.82L330.44-18.82Q332.76-21.60 337.04-21.60L337.04-21.60L337.04-21.60Q340.68-21.60 342.96-19.16L342.96-19.16L342.96-29L350.92-29L350.92 0ZM339.52-15.72L339.52-15.72Q336.08-15.72 336.08-11.60L336.08-11.60L336.08-9.48L336.08-9.48Q336.08-5.40 339.52-5.40L339.52-5.40L339.52-5.40Q341.28-5.40 342.16-6.64L342.16-6.64L342.16-6.64Q343.04-7.88 343.04-9.88L343.04-9.88L343.04-11.20L343.04-11.20Q343.04-13.20 342.16-14.46L342.16-14.46L342.16-14.46Q341.28-15.72 339.52-15.72L339.52-15.72ZM383.80-21.60L383.80-21.60Q387.40-21.60 389.20-19.54L389.20-19.54L389.20-19.54Q391-17.48 391-13.68L391-13.68L391 0L383.04 0L383.04-12.72L383.04-12.72Q383.04-14.08 382.38-14.90L382.38-14.90L382.38-14.90Q381.72-15.72 380.52-15.72L380.52-15.72L380.52-15.72Q379.12-15.72 378.24-14.76L378.24-14.76L378.24-14.76Q377.36-13.80 377.36-12.40L377.36-12.40L377.36 0L369.40 0L369.40-12.72L369.40-12.72Q369.40-14.08 368.74-14.90L368.74-14.90L368.74-14.90Q368.08-15.72 366.88-15.72L366.88-15.72L366.88-15.72Q365.48-15.72 364.60-14.76L364.60-14.76L364.60-14.76Q363.72-13.80 363.72-12.40L363.72-12.40L363.72 0L355.76 0L355.76-21.12L362.28-21.12L362.80-17.96L362.80-17.96Q364-19.64 365.98-20.62L365.98-20.62L365.98-20.62Q367.96-21.60 370.16-21.60L370.16-21.60L370.16-21.60Q374.92-21.60 376.56-17.96L376.56-17.96L376.56-17.96Q377.80-19.64 379.74-20.62L379.74-20.62L379.74-20.62Q381.68-21.60 383.80-21.60L383.80-21.60ZM404-23.60L396.04-23.60L396.04-29L404-29L404-23.60ZM404 0L396.04 0L396.04-21.12L404-21.12L404 0ZM420-21.60L420-21.60Q425.56-21.60 428.74-18.78L428.74-18.78L428.74-18.78Q431.92-15.96 431.92-10.56L431.92-10.56L431.92-10.56Q431.92-5.16 428.74-2.34L428.74-2.34L428.74-2.34Q425.56 0.48 420 0.48L420 0.48L420 0.48Q414.44 0.48 411.28-2.32L411.28-2.32L411.28-2.32Q408.12-5.12 408.12-10.56L408.12-10.56L408.12-10.56Q408.12-16 411.28-18.80L411.28-18.80L411.28-18.80Q414.44-21.60 420-21.60L420-21.60ZM420-16.20L420-16.20Q416.08-16.20 416.08-11.68L416.08-11.68L416.08-9.40L416.08-9.40Q416.08-4.92 420-4.92L420-4.92L420-4.92Q423.96-4.92 423.96-9.40L423.96-9.40L423.96-11.68L423.96-11.68Q423.96-16.20 420-16.20L420-16.20ZM445.36-21.12L449.84-21.12L449.84-15.72L445.36-15.72L445.36-7.68L445.36-7.68Q445.36-6.24 445.84-5.58L445.84-5.58L445.84-5.58Q446.32-4.92 447.60-4.92L447.60-4.92L449.84-4.92L449.84-0.24L449.84-0.24Q448.88 0.08 447.36 0.28L447.36 0.28L447.36 0.28Q445.84 0.48 444.72 0.48L444.72 0.48L444.72 0.48Q441.20 0.48 439.30-0.80L439.30-0.80L439.30-0.80Q437.40-2.08 437.40-5.16L437.40-5.16L437.40-15.72L434.44-15.72L434.44-21.12L437.72-21.12L439.44-27.52L445.36-27.52L445.36-21.12ZM468.04-0.64L468.04-0.64Q466.40 3.80 464.02 6.10L464.02 6.10L464.02 6.10Q461.64 8.40 457.36 8.40L457.36 8.40L457.36 8.40Q454.76 8.40 452.76 7.68L452.76 7.68L452.76 2.92L455.96 2.92L455.96 2.92Q458.96 2.92 459.52 0L459.52 0L451.12-21.12L459.68-21.12L463.72-7.08L464-7.08L467.72-21.12L475.56-21.12L468.04-0.64Z" fill="#0d99ff"></path></g></g><style>text {
  font-size: 64px;
  font-family: Arial Black;
  dominant-baseline: central;
  text-anchor: middle;
}</style></svg>