<svg width="581.0849975585937px" height="78.777587890625px" xmlns="http://www.w3.org/2000/svg" viewBox="-40.542498779296864 35.6112060546875 581.0849975585937 78.777587890625" style="background-color: rgba(0, 0, 0, 0); background-position: initial initial; background-repeat: initial initial;" preserveAspectRatio="xMidYMid"><defs><filter id="editing-extrude-glow"><feFlood flood-color="rgba(0%,0%,0%,0)" result="flood-1"></feFlood><feMorphology operator="erode" radius="1" in="SourceAlpha" result="erode"></feMorphology><feComposite operator="in" in="flood-1" in2="erode" result="comp1"></feComposite><feConvolveMatrix order="3,3" divisor="1" in="comp1" result="convolve" kernelMatrix="0 0 0 1 1 1 0 0 0"></feConvolveMatrix><feOffset dx="-3" dy="0" in="convolve" result="extrude"></feOffset><feComposite operator="in" in="flood-1" in2="extrude" result="comp-extrude"></feComposite><feFlood flood-color="rgba(0%,0%,0%,0)" result="flood-2"></feFlood><feComposite operator="in" in="flood-2" in2="SourceAlpha" result="comp2"></feComposite><feMorphology operator="dilate" radius="1" in="comp2" result="dilate"></feMorphology><feOffset dx="-4.5" dy="0" in="dilate" result="offset"></feOffset><feGaussianBlur in="offset" stdDeviation="5.8" result="blur"></feGaussianBlur><feComponentTransfer in="blur" result="shadow"><feFuncA type="linear" slope="0.8" intercept="-0.2"></feFuncA></feComponentTransfer><feMerge><feMergeNode in="shadow"></feMergeNode><feMergeNode in="comp-extrude"></feMergeNode><feMergeNode in="SourceGraphic"></feMergeNode></feMerge></filter></defs><g filter="url(#editing-extrude-glow)"><g transform="translate(42.820004269480705, 93.81375122070312)"><path d="M33.36 0L23.64 0L20.08-16.76L19.92-16.76L16.36 0L6.64 0L0.20-27.52L9.40-27.52L12.56-11.92L12.72-11.92L15.84-27.52L24.56-27.52L27.88-11.92L28.04-11.92L31-27.52L39.80-27.52L33.36 0ZM52.44-21.60L52.44-21.60Q56.68-21.60 59.62-19.94L59.62-19.94L59.62-19.94Q62.56-18.28 62.56-14.80L62.56-14.80L55.16-14.80L55.16-14.80Q55.16-15.96 54.12-16.44L54.12-16.44L54.12-16.44Q53.40-16.84 52.32-16.84L52.32-16.84L52.32-16.84Q49.44-16.84 49.44-15.48L49.44-15.48L49.44-15.48Q49.44-14.72 50.44-14.40L50.44-14.40L50.44-14.40Q51.44-14.08 53.72-13.72L53.72-13.72L53.72-13.72Q56.52-13.32 58.40-12.78L58.40-12.78L58.40-12.78Q60.28-12.24 61.68-10.86L61.68-10.86L61.68-10.86Q63.08-9.48 63.08-7L63.08-7L63.08-7Q63.08-2.96 60.06-1.24L60.06-1.24L60.06-1.24Q57.04 0.48 52.16 0.48L52.16 0.48L52.16 0.48Q49.36 0.48 46.88-0.30L46.88-0.30L46.88-0.30Q44.40-1.08 42.84-2.72L42.84-2.72L42.84-2.72Q41.28-4.36 41.28-6.88L41.28-6.88L48.68-6.88L48.68-6.72L48.68-6.72Q48.72-5.36 49.82-4.82L49.82-4.82L49.82-4.82Q50.92-4.28 52.16-4.28L52.16-4.28L52.16-4.28Q55.48-4.28 55.48-5.84L55.48-5.84L55.48-5.84Q55.48-6.64 54.44-7L54.44-7L54.44-7Q53.40-7.36 51.04-7.76L51.04-7.76L51.04-7.76Q48.20-8.24 46.38-8.80L46.38-8.80L46.38-8.80Q44.56-9.36 43.20-10.70L43.20-10.70L43.20-10.70Q41.84-12.04 41.84-14.44L41.84-14.44L41.84-14.44Q41.84-18.32 44.78-19.96L44.78-19.96L44.78-19.96Q47.72-21.60 52.44-21.60L52.44-21.60ZM85.48-18.64L76.52-5.40L85.84-5.40L85.84 0L65.24 0L65.24-2.60L74.12-15.72L65.72-15.72L65.72-21.12L85.48-21.12L85.48-18.64ZM103.60-0.64L103.60-0.64Q101.96 3.80 99.58 6.10L99.58 6.10L99.58 6.10Q97.20 8.40 92.92 8.40L92.92 8.40L92.92 8.40Q90.32 8.40 88.32 7.68L88.32 7.68L88.32 2.92L91.52 2.92L91.52 2.92Q94.52 2.92 95.08 0L95.08 0L86.68-21.12L95.24-21.12L99.28-7.08L99.56-7.08L103.28-21.12L111.12-21.12L103.60-0.64ZM123.56-21.60L123.56-21.60Q127.80-21.60 130.74-19.94L130.74-19.94L130.74-19.94Q133.68-18.28 133.68-14.80L133.68-14.80L126.28-14.80L126.28-14.80Q126.28-15.96 125.24-16.44L125.24-16.44L125.24-16.44Q124.52-16.84 123.44-16.84L123.44-16.84L123.44-16.84Q120.56-16.84 120.56-15.48L120.56-15.48L120.56-15.48Q120.56-14.72 121.56-14.40L121.56-14.40L121.56-14.40Q122.56-14.08 124.84-13.72L124.84-13.72L124.84-13.72Q127.64-13.32 129.52-12.78L129.52-12.78L129.52-12.78Q131.40-12.24 132.80-10.86L132.80-10.86L132.80-10.86Q134.20-9.48 134.20-7L134.20-7L134.20-7Q134.20-2.96 131.18-1.24L131.18-1.24L131.18-1.24Q128.16 0.48 123.28 0.48L123.28 0.48L123.28 0.48Q120.48 0.48 118-0.30L118-0.30L118-0.30Q115.52-1.08 113.96-2.72L113.96-2.72L113.96-2.72Q112.40-4.36 112.40-6.88L112.40-6.88L119.80-6.88L119.80-6.72L119.80-6.72Q119.84-5.36 120.94-4.82L120.94-4.82L120.94-4.82Q122.04-4.28 123.28-4.28L123.28-4.28L123.28-4.28Q126.60-4.28 126.60-5.84L126.60-5.84L126.60-5.84Q126.60-6.64 125.56-7L125.56-7L125.56-7Q124.52-7.36 122.16-7.76L122.16-7.76L122.16-7.76Q119.32-8.24 117.50-8.80L117.50-8.80L117.50-8.80Q115.68-9.36 114.32-10.70L114.32-10.70L114.32-10.70Q112.96-12.04 112.96-14.44L112.96-14.44L112.96-14.44Q112.96-18.32 115.90-19.96L115.90-19.96L115.90-19.96Q118.84-21.60 123.56-21.60L123.56-21.60ZM147.56-21.12L152.04-21.12L152.04-15.72L147.56-15.72L147.56-7.68L147.56-7.68Q147.56-6.24 148.04-5.58L148.04-5.58L148.04-5.58Q148.52-4.92 149.80-4.92L149.80-4.92L152.04-4.92L152.04-0.24L152.04-0.24Q151.08 0.08 149.56 0.28L149.56 0.28L149.56 0.28Q148.04 0.48 146.92 0.48L146.92 0.48L146.92 0.48Q143.40 0.48 141.50-0.80L141.50-0.80L141.50-0.80Q139.60-2.08 139.60-5.16L139.60-5.16L139.60-15.72L136.64-15.72L136.64-21.12L139.92-21.12L141.64-27.52L147.56-27.52L147.56-21.12ZM163.68-13.04L170.44-21.12L179.72-21.12L171.92-12.60L179.92 0L170.88 0L166.44-7.24L163.68-4.56L163.68 0L155.72 0L155.72-29.04L163.68-29.04L163.68-13.04ZM190.64-23.60L182.68-23.60L182.68-29L190.64-29L190.64-23.60ZM190.64 0L182.68 0L182.68-21.12L190.64-21.12L190.64 0ZM206.64-21.60L206.64-21.60Q212.44-21.60 215.50-18.88L215.50-18.88L215.50-18.88Q218.56-16.16 218.56-10.56L218.56-10.56L218.56-9.20L202.72-9.20L202.72-9.20Q202.72-6.92 203.74-5.76L203.74-5.76L203.74-5.76Q204.76-4.60 206.96-4.60L206.96-4.60L206.96-4.60Q208.96-4.60 209.90-5.44L209.90-5.44L209.90-5.44Q210.84-6.28 210.84-7.68L210.84-7.68L218.56-7.68L218.56-7.68Q218.56-3.84 215.64-1.68L215.64-1.68L215.64-1.68Q212.72 0.48 207.12 0.48L207.12 0.48L207.12 0.48Q201.24 0.48 198-2.26L198-2.26L198-2.26Q194.76-5 194.76-10.56L194.76-10.56L194.76-10.56Q194.76-16 197.92-18.80L197.92-18.80L197.92-18.80Q201.08-21.60 206.64-21.60L206.64-21.60ZM206.96-16.52L206.96-16.52Q203.20-16.52 202.76-12.96L202.76-12.96L210.52-12.96L210.52-12.96Q210.52-14.60 209.58-15.56L209.58-15.56L209.58-15.56Q208.64-16.52 206.96-16.52L206.96-16.52ZM257.56 0L251.04 0L250.52-3.20L250.52-3.20Q249.28-1.48 247.26-0.50L247.26-0.50L247.26-0.50Q245.24 0.48 243 0.48L243 0.48L243 0.48Q239.32 0.48 237.48-1.56L237.48-1.56L237.48-1.56Q235.64-3.60 235.64-7.44L235.64-7.44L235.64-21.12L243.60-21.12L243.60-8.40L243.60-8.40Q243.60-7.04 244.30-6.22L244.30-6.22L244.30-6.22Q245-5.40 246.28-5.40L246.28-5.40L246.28-5.40Q247.76-5.40 248.68-6.36L248.68-6.36L248.68-6.36Q249.60-7.32 249.60-8.72L249.60-8.72L249.60-21.12L257.56-21.12L257.56 0ZM273.32-21.60L273.32-21.60Q278.52-21.60 281.74-19.38L281.74-19.38L281.74-19.38Q284.96-17.16 284.96-12.60L284.96-12.60L277.24-12.60L277.24-12.60Q277.24-16.20 273.32-16.20L273.32-16.20L273.32-16.20Q269.40-16.20 269.40-11.68L269.40-11.68L269.40-9.40L269.40-9.40Q269.40-4.92 273.48-4.92L273.48-4.92L273.48-4.92Q277.56-4.92 277.56-8.60L277.56-8.60L284.96-8.60L284.96-8.60Q284.96-4 281.74-1.76L281.74-1.76L281.74-1.76Q278.52 0.48 273.32 0.48L273.32 0.48L273.32 0.48Q267.76 0.48 264.60-2.32L264.60-2.32L264.60-2.32Q261.44-5.12 261.44-10.56L261.44-10.56L261.44-10.56Q261.44-16 264.60-18.80L264.60-18.80L264.60-18.80Q267.76-21.60 273.32-21.60L273.32-21.60ZM307.72-18.64L298.76-5.40L308.08-5.40L308.08 0L287.48 0L287.48-2.60L296.36-15.72L287.96-15.72L287.96-21.12L307.72-21.12L307.72-18.64ZM322.24-21.60L322.24-21.60Q328.04-21.60 331.10-18.88L331.10-18.88L331.10-18.88Q334.16-16.16 334.16-10.56L334.16-10.56L334.16-9.20L318.32-9.20L318.32-9.20Q318.32-6.92 319.34-5.76L319.34-5.76L319.34-5.76Q320.36-4.60 322.56-4.60L322.56-4.60L322.56-4.60Q324.56-4.60 325.50-5.44L325.50-5.44L325.50-5.44Q326.44-6.28 326.44-7.68L326.44-7.68L334.16-7.68L334.16-7.68Q334.16-3.84 331.24-1.68L331.24-1.68L331.24-1.68Q328.32 0.48 322.72 0.48L322.72 0.48L322.72 0.48Q316.84 0.48 313.60-2.26L313.60-2.26L313.60-2.26Q310.36-5 310.36-10.56L310.36-10.56L310.36-10.56Q310.36-16 313.52-18.80L313.52-18.80L313.52-18.80Q316.68-21.60 322.24-21.60L322.24-21.60ZM322.56-16.52L322.56-16.52Q318.80-16.52 318.36-12.96L318.36-12.96L326.12-12.96L326.12-12.96Q326.12-14.60 325.18-15.56L325.18-15.56L325.18-15.56Q324.24-16.52 322.56-16.52L322.56-16.52ZM346.24 0L338.28 0L338.28-29L346.24-29L346.24 0ZM365.88-21.60L365.88-21.60Q369.56-21.60 371.40-19.56L371.40-19.56L371.40-19.56Q373.24-17.52 373.24-13.68L373.24-13.68L373.24 0L365.28 0L365.28-12.72L365.28-12.72Q365.28-14.08 364.58-14.90L364.58-14.90L364.58-14.90Q363.88-15.72 362.60-15.72L362.60-15.72L362.60-15.72Q361.12-15.72 360.20-14.76L360.20-14.76L360.20-14.76Q359.28-13.80 359.28-12.40L359.28-12.40L359.28 0L351.32 0L351.32-21.12L357.84-21.12L358.36-17.92L358.36-17.92Q359.60-19.60 361.62-20.60L361.62-20.60L361.62-20.60Q363.64-21.60 365.88-21.60L365.88-21.60ZM386.24-23.60L378.28-23.60L378.28-29L386.24-29L386.24-23.60ZM386.24 0L378.28 0L378.28-21.12L386.24-21.12L386.24 0ZM402.24-21.60L402.24-21.60Q408.04-21.60 411.10-18.88L411.10-18.88L411.10-18.88Q414.16-16.16 414.16-10.56L414.16-10.56L414.16-9.20L398.32-9.20L398.32-9.20Q398.32-6.92 399.34-5.76L399.34-5.76L399.34-5.76Q400.36-4.60 402.56-4.60L402.56-4.60L402.56-4.60Q404.56-4.60 405.50-5.44L405.50-5.44L405.50-5.44Q406.44-6.28 406.44-7.68L406.44-7.68L414.16-7.68L414.16-7.68Q414.16-3.84 411.24-1.68L411.24-1.68L411.24-1.68Q408.32 0.48 402.72 0.48L402.72 0.48L402.72 0.48Q396.84 0.48 393.60-2.26L393.60-2.26L393.60-2.26Q390.36-5 390.36-10.56L390.36-10.56L390.36-10.56Q390.36-16 393.52-18.80L393.52-18.80L393.52-18.80Q396.68-21.60 402.24-21.60L402.24-21.60ZM402.56-16.52L402.56-16.52Q398.80-16.52 398.36-12.96L398.36-12.96L406.12-12.96L406.12-12.96Q406.12-14.60 405.18-15.56L405.18-15.56L405.18-15.56Q404.24-16.52 402.56-16.52L402.56-16.52Z" fill="#0d99ff"></path></g></g><style>text {
  font-size: 64px;
  font-family: Arial Black;
  dominant-baseline: central;
  text-anchor: middle;
}</style></svg>