<svg width="545.0449707031249px" height="78.777587890625px" xmlns="http://www.w3.org/2000/svg" viewBox="-22.522485351562466 35.6112060546875 545.0449707031249 78.777587890625" style="background-color: rgba(0, 0, 0, 0); background-position: initial initial; background-repeat: initial initial;" preserveAspectRatio="xMidYMid"><defs><filter id="editing-extrude-glow"><feFlood flood-color="rgba(0%,0%,0%,0)" result="flood-1"></feFlood><feMorphology operator="erode" radius="1" in="SourceAlpha" result="erode"></feMorphology><feComposite operator="in" in="flood-1" in2="erode" result="comp1"></feComposite><feConvolveMatrix order="3,3" divisor="1" in="comp1" result="convolve" kernelMatrix="0 0 0 1 1 1 0 0 0"></feConvolveMatrix><feOffset dx="-3" dy="0" in="convolve" result="extrude"></feOffset><feComposite operator="in" in="flood-1" in2="extrude" result="comp-extrude"></feComposite><feFlood flood-color="rgba(0%,0%,0%,0)" result="flood-2"></feFlood><feComposite operator="in" in="flood-2" in2="SourceAlpha" result="comp2"></feComposite><feMorphology operator="dilate" radius="1" in="comp2" result="dilate"></feMorphology><feOffset dx="-4.5" dy="0" in="dilate" result="offset"></feOffset><feGaussianBlur in="offset" stdDeviation="5.8" result="blur"></feGaussianBlur><feComponentTransfer in="blur" result="shadow"><feFuncA type="linear" slope="0.8" intercept="-0.2"></feFuncA></feComponentTransfer><feMerge><feMergeNode in="shadow"></feMergeNode><feMergeNode in="comp-extrude"></feMergeNode><feMergeNode in="SourceGraphic"></feMergeNode></feMerge></filter></defs><g filter="url(#editing-extrude-glow)"><g transform="translate(56.78001098334789, 93.79375076293945)"><path d="M33.36 0L23.64 0L20.08-16.76L19.92-16.76L16.36 0L6.64 0L0.20-27.52L9.40-27.52L12.56-11.92L12.72-11.92L15.84-27.52L24.56-27.52L27.88-11.92L28.04-11.92L31-27.52L39.80-27.52L33.36 0ZM52.44-21.60L52.44-21.60Q56.68-21.60 59.62-19.94L59.62-19.94L59.62-19.94Q62.56-18.28 62.56-14.80L62.56-14.80L55.16-14.80L55.16-14.80Q55.16-15.96 54.12-16.44L54.12-16.44L54.12-16.44Q53.40-16.84 52.32-16.84L52.32-16.84L52.32-16.84Q49.44-16.84 49.44-15.48L49.44-15.48L49.44-15.48Q49.44-14.72 50.44-14.40L50.44-14.40L50.44-14.40Q51.44-14.08 53.72-13.72L53.72-13.72L53.72-13.72Q56.52-13.32 58.40-12.78L58.40-12.78L58.40-12.78Q60.28-12.24 61.68-10.86L61.68-10.86L61.68-10.86Q63.08-9.48 63.08-7L63.08-7L63.08-7Q63.08-2.96 60.06-1.24L60.06-1.24L60.06-1.24Q57.04 0.48 52.16 0.48L52.16 0.48L52.16 0.48Q49.36 0.48 46.88-0.30L46.88-0.30L46.88-0.30Q44.40-1.08 42.84-2.72L42.84-2.72L42.84-2.72Q41.28-4.36 41.28-6.88L41.28-6.88L48.68-6.88L48.68-6.72L48.68-6.72Q48.72-5.36 49.82-4.82L49.82-4.82L49.82-4.82Q50.92-4.28 52.16-4.28L52.16-4.28L52.16-4.28Q55.48-4.28 55.48-5.84L55.48-5.84L55.48-5.84Q55.48-6.64 54.44-7L54.44-7L54.44-7Q53.40-7.36 51.04-7.76L51.04-7.76L51.04-7.76Q48.20-8.24 46.38-8.80L46.38-8.80L46.38-8.80Q44.56-9.36 43.20-10.70L43.20-10.70L43.20-10.70Q41.84-12.04 41.84-14.44L41.84-14.44L41.84-14.44Q41.84-18.32 44.78-19.96L44.78-19.96L44.78-19.96Q47.72-21.60 52.44-21.60L52.44-21.60ZM85.48-18.64L76.52-5.40L85.84-5.40L85.84 0L65.24 0L65.24-2.60L74.12-15.72L65.72-15.72L65.72-21.12L85.48-21.12L85.48-18.64ZM103.60-0.64L103.60-0.64Q101.96 3.80 99.58 6.10L99.58 6.10L99.58 6.10Q97.20 8.40 92.92 8.40L92.92 8.40L92.92 8.40Q90.32 8.40 88.32 7.68L88.32 7.68L88.32 2.92L91.52 2.92L91.52 2.92Q94.52 2.92 95.08 0L95.08 0L86.68-21.12L95.24-21.12L99.28-7.08L99.56-7.08L103.28-21.12L111.12-21.12L103.60-0.64ZM123.56-21.60L123.56-21.60Q127.80-21.60 130.74-19.94L130.74-19.94L130.74-19.94Q133.68-18.28 133.68-14.80L133.68-14.80L126.28-14.80L126.28-14.80Q126.28-15.96 125.24-16.44L125.24-16.44L125.24-16.44Q124.52-16.84 123.44-16.84L123.44-16.84L123.44-16.84Q120.56-16.84 120.56-15.48L120.56-15.48L120.56-15.48Q120.56-14.72 121.56-14.40L121.56-14.40L121.56-14.40Q122.56-14.08 124.84-13.72L124.84-13.72L124.84-13.72Q127.64-13.32 129.52-12.78L129.52-12.78L129.52-12.78Q131.40-12.24 132.80-10.86L132.80-10.86L132.80-10.86Q134.20-9.48 134.20-7L134.20-7L134.20-7Q134.20-2.96 131.18-1.24L131.18-1.24L131.18-1.24Q128.16 0.48 123.28 0.48L123.28 0.48L123.28 0.48Q120.48 0.48 118-0.30L118-0.30L118-0.30Q115.52-1.08 113.96-2.72L113.96-2.72L113.96-2.72Q112.40-4.36 112.40-6.88L112.40-6.88L119.80-6.88L119.80-6.72L119.80-6.72Q119.84-5.36 120.94-4.82L120.94-4.82L120.94-4.82Q122.04-4.28 123.28-4.28L123.28-4.28L123.28-4.28Q126.60-4.28 126.60-5.84L126.60-5.84L126.60-5.84Q126.60-6.64 125.56-7L125.56-7L125.56-7Q124.52-7.36 122.16-7.76L122.16-7.76L122.16-7.76Q119.32-8.24 117.50-8.80L117.50-8.80L117.50-8.80Q115.68-9.36 114.32-10.70L114.32-10.70L114.32-10.70Q112.96-12.04 112.96-14.44L112.96-14.44L112.96-14.44Q112.96-18.32 115.90-19.96L115.90-19.96L115.90-19.96Q118.84-21.60 123.56-21.60L123.56-21.60ZM148.88-21.60L148.88-21.60Q154.08-21.60 157.30-19.38L157.30-19.38L157.30-19.38Q160.52-17.16 160.52-12.60L160.52-12.60L152.80-12.60L152.80-12.60Q152.80-16.20 148.88-16.20L148.88-16.20L148.88-16.20Q144.96-16.20 144.96-11.68L144.96-11.68L144.96-9.40L144.96-9.40Q144.96-4.92 149.04-4.92L149.04-4.92L149.04-4.92Q153.12-4.92 153.12-8.60L153.12-8.60L160.52-8.60L160.52-8.60Q160.52-4 157.30-1.76L157.30-1.76L157.30-1.76Q154.08 0.48 148.88 0.48L148.88 0.48L148.88 0.48Q143.32 0.48 140.16-2.32L140.16-2.32L140.16-2.32Q137-5.12 137-10.56L137-10.56L137-10.56Q137-16 140.16-18.80L140.16-18.80L140.16-18.80Q143.32-21.60 148.88-21.60L148.88-21.60ZM179.16-0.64L179.16-0.64Q177.52 3.80 175.14 6.10L175.14 6.10L175.14 6.10Q172.76 8.40 168.48 8.40L168.48 8.40L168.48 8.40Q165.88 8.40 163.88 7.68L163.88 7.68L163.88 2.92L167.08 2.92L167.08 2.92Q170.08 2.92 170.64 0L170.64 0L162.24-21.12L170.80-21.12L174.84-7.08L175.12-7.08L178.84-21.12L186.68-21.12L179.16-0.64ZM212.44-21.60L212.44-21.60Q216.68-21.60 219.62-19.94L219.62-19.94L219.62-19.94Q222.56-18.28 222.56-14.80L222.56-14.80L215.16-14.80L215.16-14.80Q215.16-15.96 214.12-16.44L214.12-16.44L214.12-16.44Q213.40-16.84 212.32-16.84L212.32-16.84L212.32-16.84Q209.44-16.84 209.44-15.48L209.44-15.48L209.44-15.48Q209.44-14.72 210.44-14.40L210.44-14.40L210.44-14.40Q211.44-14.08 213.72-13.72L213.72-13.72L213.72-13.72Q216.52-13.32 218.40-12.78L218.40-12.78L218.40-12.78Q220.28-12.24 221.68-10.86L221.68-10.86L221.68-10.86Q223.08-9.48 223.08-7L223.08-7L223.08-7Q223.08-2.96 220.06-1.24L220.06-1.24L220.06-1.24Q217.04 0.48 212.16 0.48L212.16 0.48L212.16 0.48Q209.36 0.48 206.88-0.30L206.88-0.30L206.88-0.30Q204.40-1.08 202.84-2.72L202.84-2.72L202.84-2.72Q201.28-4.36 201.28-6.88L201.28-6.88L208.68-6.88L208.68-6.72L208.68-6.72Q208.72-5.36 209.82-4.82L209.82-4.82L209.82-4.82Q210.92-4.28 212.16-4.28L212.16-4.28L212.16-4.28Q215.48-4.28 215.48-5.84L215.48-5.84L215.48-5.84Q215.48-6.64 214.44-7L214.44-7L214.44-7Q213.40-7.36 211.04-7.76L211.04-7.76L211.04-7.76Q208.20-8.24 206.38-8.80L206.38-8.80L206.38-8.80Q204.56-9.36 203.20-10.70L203.20-10.70L203.20-10.70Q201.84-12.04 201.84-14.44L201.84-14.44L201.84-14.44Q201.84-18.32 204.78-19.96L204.78-19.96L204.78-19.96Q207.72-21.60 212.44-21.60L212.44-21.60ZM236.44-21.12L240.92-21.12L240.92-15.72L236.44-15.72L236.44-7.68L236.44-7.68Q236.44-6.24 236.92-5.58L236.92-5.58L236.92-5.58Q237.40-4.92 238.68-4.92L238.68-4.92L240.92-4.92L240.92-0.24L240.92-0.24Q239.96 0.08 238.44 0.28L238.44 0.28L238.44 0.28Q236.92 0.48 235.80 0.48L235.80 0.48L235.80 0.48Q232.28 0.48 230.38-0.80L230.38-0.80L230.38-0.80Q228.48-2.08 228.48-5.16L228.48-5.16L228.48-15.72L225.52-15.72L225.52-21.12L228.80-21.12L230.52-27.52L236.44-27.52L236.44-21.12ZM266.44 0L259.92 0L259.40-3.20L259.40-3.20Q258.16-1.48 256.14-0.50L256.14-0.50L256.14-0.50Q254.12 0.48 251.88 0.48L251.88 0.48L251.88 0.48Q248.20 0.48 246.36-1.56L246.36-1.56L246.36-1.56Q244.52-3.60 244.52-7.44L244.52-7.44L244.52-21.12L252.48-21.12L252.48-8.40L252.48-8.40Q252.48-7.04 253.18-6.22L253.18-6.22L253.18-6.22Q253.88-5.40 255.16-5.40L255.16-5.40L255.16-5.40Q256.64-5.40 257.56-6.36L257.56-6.36L257.56-6.36Q258.48-7.32 258.48-8.72L258.48-8.72L258.48-21.12L266.44-21.12L266.44 0ZM293.12 0L286.64 0L285.96-3L285.96-3Q283.64 0.48 279.24 0.48L279.24 0.48L279.24 0.48Q274.96 0.48 272.64-2.32L272.64-2.32L272.64-2.32Q270.32-5.12 270.32-10.60L270.32-10.60L270.32-10.60Q270.32-16.04 272.64-18.82L272.64-18.82L272.64-18.82Q274.96-21.60 279.24-21.60L279.24-21.60L279.24-21.60Q282.88-21.60 285.16-19.16L285.16-19.16L285.16-29L293.12-29L293.12 0ZM281.72-15.72L281.72-15.72Q278.28-15.72 278.28-11.60L278.28-11.60L278.28-9.48L278.28-9.48Q278.28-5.40 281.72-5.40L281.72-5.40L281.72-5.40Q283.48-5.40 284.36-6.64L284.36-6.64L284.36-6.64Q285.24-7.88 285.24-9.88L285.24-9.88L285.24-11.20L285.24-11.20Q285.24-13.20 284.36-14.46L284.36-14.46L284.36-14.46Q283.48-15.72 281.72-15.72L281.72-15.72ZM308.88-21.60L308.88-21.60Q314.68-21.60 317.74-18.88L317.74-18.88L317.74-18.88Q320.80-16.16 320.80-10.56L320.80-10.56L320.80-9.20L304.96-9.20L304.96-9.20Q304.96-6.92 305.98-5.76L305.98-5.76L305.98-5.76Q307-4.60 309.20-4.60L309.20-4.60L309.20-4.60Q311.20-4.60 312.14-5.44L312.14-5.44L312.14-5.44Q313.08-6.28 313.08-7.68L313.08-7.68L320.80-7.68L320.80-7.68Q320.80-3.84 317.88-1.68L317.88-1.68L317.88-1.68Q314.96 0.48 309.36 0.48L309.36 0.48L309.36 0.48Q303.48 0.48 300.24-2.26L300.24-2.26L300.24-2.26Q297-5 297-10.56L297-10.56L297-10.56Q297-16 300.16-18.80L300.16-18.80L300.16-18.80Q303.32-21.60 308.88-21.60L308.88-21.60ZM309.20-16.52L309.20-16.52Q305.44-16.52 305-12.96L305-12.96L312.76-12.96L312.76-12.96Q312.76-14.60 311.82-15.56L311.82-15.56L311.82-15.56Q310.88-16.52 309.20-16.52L309.20-16.52ZM339.20-21.60L339.20-21.60Q342.88-21.60 344.72-19.56L344.72-19.56L344.72-19.56Q346.56-17.52 346.56-13.68L346.56-13.68L346.56 0L338.60 0L338.60-12.72L338.60-12.72Q338.60-14.08 337.90-14.90L337.90-14.90L337.90-14.90Q337.20-15.72 335.92-15.72L335.92-15.72L335.92-15.72Q334.44-15.72 333.52-14.76L333.52-14.76L333.52-14.76Q332.60-13.80 332.60-12.40L332.60-12.40L332.60 0L324.64 0L324.64-21.12L331.16-21.12L331.68-17.92L331.68-17.92Q332.92-19.60 334.94-20.60L334.94-20.60L334.94-20.60Q336.96-21.60 339.20-21.60L339.20-21.60ZM362.24-21.60L362.24-21.60Q367.44-21.60 370.66-19.38L370.66-19.38L370.66-19.38Q373.88-17.16 373.88-12.60L373.88-12.60L366.16-12.60L366.16-12.60Q366.16-16.20 362.24-16.20L362.24-16.20L362.24-16.20Q358.32-16.20 358.32-11.68L358.32-11.68L358.32-9.40L358.32-9.40Q358.32-4.92 362.40-4.92L362.40-4.92L362.40-4.92Q366.48-4.92 366.48-8.60L366.48-8.60L373.88-8.60L373.88-8.60Q373.88-4 370.66-1.76L370.66-1.76L370.66-1.76Q367.44 0.48 362.24 0.48L362.24 0.48L362.24 0.48Q356.68 0.48 353.52-2.32L353.52-2.32L353.52-2.32Q350.36-5.12 350.36-10.56L350.36-10.56L350.36-10.56Q350.36-16 353.52-18.80L353.52-18.80L353.52-18.80Q356.68-21.60 362.24-21.60L362.24-21.60ZM386.24-23.60L378.28-23.60L378.28-29L386.24-29L386.24-23.60ZM386.24 0L378.28 0L378.28-21.12L386.24-21.12L386.24 0Z" fill="#0d99ff"></path></g></g><style>text {
  font-size: 64px;
  font-family: Arial Black;
  dominant-baseline: central;
  text-anchor: middle;
}</style></svg>