<svg width="1006.08505859375px" height="114.66875px" xmlns="http://www.w3.org/2000/svg" viewBox="-253.042529296875 17.665625 1006.08505859375 114.66875" style="background-image: none; background-position: initial initial; background-repeat: initial initial;" preserveAspectRatio="xMidYMid"><defs><filter id="editing-extrude-glow"><feFlood flood-color="none" result="flood-1"></feFlood><feMorphology operator="erode" radius="1" in="SourceAlpha" result="erode"></feMorphology><feComposite operator="in" in="flood-1" in2="erode" result="comp1"></feComposite><feConvolveMatrix order="1,1" divisor="1" in="comp1" result="convolve" kernelMatrix="1"></feConvolveMatrix><feOffset dx="-1" dy="0" in="convolve" result="extrude"></feOffset><feComposite operator="in" in="flood-1" in2="extrude" result="comp-extrude"></feComposite><feFlood flood-color="rgba(0%,0%,0%,0)" result="flood-2"></feFlood><feComposite operator="in" in="flood-2" in2="SourceAlpha" result="comp2"></feComposite><feMorphology operator="dilate" radius="1" in="comp2" result="dilate"></feMorphology><feOffset dx="-1.5" dy="0" in="dilate" result="offset"></feOffset><feGaussianBlur in="offset" stdDeviation="5.8" result="blur"></feGaussianBlur><feComponentTransfer in="blur" result="shadow"><feFuncA type="linear" slope="0.8" intercept="-0.2"></feFuncA></feComponentTransfer><feMerge><feMergeNode in="shadow"></feMergeNode><feMergeNode in="comp-extrude"></feMergeNode><feMergeNode in="SourceGraphic"></feMergeNode></feMerge></filter></defs><g filter="url(#editing-extrude-glow)"><g transform="translate(-112.84999880194664, 104.92781257629395)"><path d="M53.38 0L37.82 0L32.13-26.82L31.87-26.82L26.18 0L10.62 0L0.32-44.03L15.04-44.03L20.10-19.07L20.35-19.07L25.34-44.03L39.30-44.03L44.61-19.07L44.86-19.07L49.60-44.03L63.68-44.03L53.38 0ZM83.90-34.56L83.90-34.56Q90.69-34.56 95.39-31.90L95.39-31.90L95.39-31.90Q100.10-29.25 100.10-23.68L100.10-23.68L88.26-23.68L88.26-23.68Q88.26-25.54 86.59-26.30L86.59-26.30L86.59-26.30Q85.44-26.94 83.71-26.94L83.71-26.94L83.71-26.94Q79.10-26.94 79.10-24.77L79.10-24.77L79.10-24.77Q79.10-23.55 80.70-23.04L80.70-23.04L80.70-23.04Q82.30-22.53 85.95-21.95L85.95-21.95L85.95-21.95Q90.43-21.31 93.44-20.45L93.44-20.45L93.44-20.45Q96.45-19.58 98.69-17.38L98.69-17.38L98.69-17.38Q100.93-15.17 100.93-11.20L100.93-11.20L100.93-11.20Q100.93-4.74 96.10-1.98L96.10-1.98L96.10-1.98Q91.26 0.77 83.46 0.77L83.46 0.77L83.46 0.77Q78.98 0.77 75.01-0.48L75.01-0.48L75.01-0.48Q71.04-1.73 68.54-4.35L68.54-4.35L68.54-4.35Q66.05-6.98 66.05-11.01L66.05-11.01L77.89-11.01L77.89-10.75L77.89-10.75Q77.95-8.58 79.71-7.71L79.71-7.71L79.71-7.71Q81.47-6.85 83.46-6.85L83.46-6.85L83.46-6.85Q88.77-6.85 88.77-9.34L88.77-9.34L88.77-9.34Q88.77-10.62 87.10-11.20L87.10-11.20L87.10-11.20Q85.44-11.78 81.66-12.42L81.66-12.42L81.66-12.42Q77.12-13.18 74.21-14.08L74.21-14.08L74.21-14.08Q71.30-14.98 69.12-17.12L69.12-17.12L69.12-17.12Q66.94-19.26 66.94-23.10L66.94-23.10L66.94-23.10Q66.94-29.31 71.65-31.94L71.65-31.94L71.65-31.94Q76.35-34.56 83.90-34.56L83.90-34.56ZM136.77-29.82L122.43-8.64L137.34-8.64L137.34 0L104.38 0L104.38-4.16L118.59-25.15L105.15-25.15L105.15-33.79L136.77-33.79L136.77-29.82ZM165.76-1.02L165.76-1.02Q163.14 6.08 159.33 9.76L159.33 9.76L159.33 9.76Q155.52 13.44 148.67 13.44L148.67 13.44L148.67 13.44Q144.51 13.44 141.31 12.29L141.31 12.29L141.31 4.67L146.43 4.67L146.43 4.67Q151.23 4.67 152.13 0L152.13 0L138.69-33.79L152.38-33.79L158.85-11.33L159.30-11.33L165.25-33.79L177.79-33.79L165.76-1.02ZM197.70-34.56L197.70-34.56Q204.48-34.56 209.18-31.90L209.18-31.90L209.18-31.90Q213.89-29.25 213.89-23.68L213.89-23.68L202.05-23.68L202.05-23.68Q202.05-25.54 200.38-26.30L200.38-26.30L200.38-26.30Q199.23-26.94 197.50-26.94L197.50-26.94L197.50-26.94Q192.90-26.94 192.90-24.77L192.90-24.77L192.90-24.77Q192.90-23.55 194.50-23.04L194.50-23.04L194.50-23.04Q196.10-22.53 199.74-21.95L199.74-21.95L199.74-21.95Q204.22-21.31 207.23-20.45L207.23-20.45L207.23-20.45Q210.24-19.58 212.48-17.38L212.48-17.38L212.48-17.38Q214.72-15.17 214.72-11.20L214.72-11.20L214.72-11.20Q214.72-4.74 209.89-1.98L209.89-1.98L209.89-1.98Q205.06 0.77 197.25 0.77L197.25 0.77L197.25 0.77Q192.77 0.77 188.80-0.48L188.80-0.48L188.80-0.48Q184.83-1.73 182.34-4.35L182.34-4.35L182.34-4.35Q179.84-6.98 179.84-11.01L179.84-11.01L191.68-11.01L191.68-10.75L191.68-10.75Q191.74-8.58 193.50-7.71L193.50-7.71L193.50-7.71Q195.26-6.85 197.25-6.85L197.25-6.85L197.25-6.85Q202.56-6.85 202.56-9.34L202.56-9.34L202.56-9.34Q202.56-10.62 200.90-11.20L200.90-11.20L200.90-11.20Q199.23-11.78 195.46-12.42L195.46-12.42L195.46-12.42Q190.91-13.18 188.00-14.08L188.00-14.08L188.00-14.08Q185.09-14.98 182.91-17.12L182.91-17.12L182.91-17.12Q180.74-19.26 180.74-23.10L180.74-23.10L180.74-23.10Q180.74-29.31 185.44-31.94L185.44-31.94L185.44-31.94Q190.14-34.56 197.70-34.56L197.70-34.56ZM238.21-34.56L238.21-34.56Q246.53-34.56 251.68-31.01L251.68-31.01L251.68-31.01Q256.83-27.46 256.83-20.16L256.83-20.16L244.48-20.16L244.48-20.16Q244.48-25.92 238.21-25.92L238.21-25.92L238.21-25.92Q231.94-25.92 231.94-18.69L231.94-18.69L231.94-15.04L231.94-15.04Q231.94-7.87 238.46-7.87L238.46-7.87L238.46-7.87Q244.99-7.87 244.99-13.76L244.99-13.76L256.83-13.76L256.83-13.76Q256.83-6.40 251.68-2.82L251.68-2.82L251.68-2.82Q246.53 0.77 238.21 0.77L238.21 0.77L238.21 0.77Q229.31 0.77 224.26-3.71L224.26-3.71L224.26-3.71Q219.20-8.19 219.20-16.90L219.20-16.90L219.20-16.90Q219.20-25.60 224.26-30.08L224.26-30.08L224.26-30.08Q229.31-34.56 238.21-34.56L238.21-34.56ZM286.66-1.02L286.66-1.02Q284.03 6.08 280.22 9.76L280.22 9.76L280.22 9.76Q276.42 13.44 269.57 13.44L269.57 13.44L269.57 13.44Q265.41 13.44 262.21 12.29L262.21 12.29L262.21 4.67L267.33 4.67L267.33 4.67Q272.13 4.67 273.02 0L273.02 0L259.58-33.79L273.28-33.79L279.74-11.33L280.19-11.33L286.14-33.79L298.69-33.79L286.66-1.02ZM346.11-34.56L346.11-34.56Q352.96-34.56 356.67-30.08L356.67-30.08L356.67-30.08Q360.38-25.60 360.38-16.83L360.38-16.83L360.38-16.83Q360.38-8.13 356.67-3.68L356.67-3.68L356.67-3.68Q352.96 0.77 346.11 0.77L346.11 0.77L346.11 0.77Q340.22 0.77 336.64-3.07L336.64-3.07L336.64 12.61L323.90 12.61L323.90-33.79L334.27-33.79L335.36-28.99L335.36-28.99Q339.07-34.56 346.11-34.56L346.11-34.56ZM342.14-25.15L342.14-25.15Q339.33-25.15 337.92-23.17L337.92-23.17L337.92-23.17Q336.51-21.18 336.51-17.98L336.51-17.98L336.51-15.87L336.51-15.87Q336.51-12.67 337.92-10.66L337.92-10.66L337.92-10.66Q339.33-8.64 342.14-8.64L342.14-8.64L342.14-8.64Q347.65-8.64 347.65-15.23L347.65-15.23L347.65-18.62L347.65-18.62Q347.65-25.15 342.14-25.15L342.14-25.15ZM387.07-34.62L387.07-34.62Q388.54-34.62 389.70-34.27L389.70-34.27L389.70-34.27Q390.85-33.92 390.85-33.86L390.85-33.86L390.85-23.17L386.75-23.17L386.75-23.17Q382.78-23.17 381.02-21.12L381.02-21.12L381.02-21.12Q379.26-19.07 379.26-15.04L379.26-15.04L379.26 0L366.53 0L366.53-33.79L376.96-33.79L377.79-28.67L377.79-28.67Q378.94-31.62 381.44-33.12L381.44-33.12L381.44-33.12Q383.94-34.62 387.07-34.62L387.07-34.62ZM411.65-34.56L411.65-34.56Q419.39-34.56 424.26-31.97L424.26-31.97L424.26-31.97Q429.12-29.38 429.12-23.55L429.12-23.55L429.12-10.37L429.12-10.37Q429.12-9.28 429.63-8.58L429.63-8.58L429.63-8.58Q430.14-7.87 431.17-7.87L431.17-7.87L433.47-7.87L433.47-0.51L433.47-0.51Q433.28-0.38 432.48-0.10L432.48-0.10L432.48-0.10Q431.68 0.19 430.21 0.48L430.21 0.48L430.21 0.48Q428.74 0.77 426.82 0.77L426.82 0.77L426.82 0.77Q423.10 0.77 420.70-0.35L420.70-0.35L420.70-0.35Q418.30-1.47 417.41-3.46L417.41-3.46L417.41-3.46Q414.98-1.54 411.97-0.38L411.97-0.38L411.97-0.38Q408.96 0.77 404.93 0.77L404.93 0.77L404.93 0.77Q393.02 0.77 393.02-8.70L393.02-8.70L393.02-8.70Q393.02-13.63 395.68-16.22L395.68-16.22L395.68-16.22Q398.34-18.82 403.33-19.78L403.33-19.78L403.33-19.78Q408.32-20.74 416.38-20.74L416.38-20.74L416.38-22.40L416.38-22.40Q416.38-24.38 415.01-25.41L415.01-25.41L415.01-25.41Q413.63-26.43 411.46-26.43L411.46-26.43L411.46-26.43Q409.47-26.43 408.03-25.73L408.03-25.73L408.03-25.73Q406.59-25.02 406.59-23.49L406.59-23.49L406.59-23.23L394.05-23.23L394.05-23.23Q393.98-23.55 393.98-24.13L393.98-24.13L393.98-24.13Q393.98-28.93 398.56-31.74L398.56-31.74L398.56-31.74Q403.14-34.56 411.65-34.56L411.65-34.56ZM416.38-14.72L416.38-14.72Q410.94-14.72 408.35-13.54L408.35-13.54L408.35-13.54Q405.76-12.35 405.76-10.37L405.76-10.37L405.76-10.37Q405.76-7.17 410.11-7.17L410.11-7.17L410.11-7.17Q412.61-7.17 414.50-8.51L414.50-8.51L414.50-8.51Q416.38-9.86 416.38-11.84L416.38-11.84L416.38-14.72ZM455.10-34.56L455.10-34.56Q463.42-34.56 468.58-31.01L468.58-31.01L468.58-31.01Q473.73-27.46 473.73-20.16L473.73-20.16L461.38-20.16L461.38-20.16Q461.38-25.92 455.10-25.92L455.10-25.92L455.10-25.92Q448.83-25.92 448.83-18.69L448.83-18.69L448.83-15.04L448.83-15.04Q448.83-7.87 455.36-7.87L455.36-7.87L455.36-7.87Q461.89-7.87 461.89-13.76L461.89-13.76L473.73-13.76L473.73-13.76Q473.73-6.40 468.58-2.82L468.58-2.82L468.58-2.82Q463.42 0.77 455.10 0.77L455.10 0.77L455.10 0.77Q446.21 0.77 441.15-3.71L441.15-3.71L441.15-3.71Q436.10-8.19 436.10-16.90L436.10-16.90L436.10-16.90Q436.10-25.60 441.15-30.08L441.15-30.08L441.15-30.08Q446.21-34.56 455.10-34.56L455.10-34.56ZM497.79-34.56L497.79-34.56Q506.69-34.56 511.78-30.05L511.78-30.05L511.78-30.05Q516.86-25.54 516.86-16.90L516.86-16.90L516.86-16.90Q516.86-8.26 511.78-3.74L511.78-3.74L511.78-3.74Q506.69 0.77 497.79 0.77L497.79 0.77L497.79 0.77Q488.90 0.77 483.84-3.71L483.84-3.71L483.84-3.71Q478.78-8.19 478.78-16.90L478.78-16.90L478.78-16.90Q478.78-25.60 483.84-30.08L483.84-30.08L483.84-30.08Q488.90-34.56 497.79-34.56L497.79-34.56ZM497.79-25.92L497.79-25.92Q491.52-25.92 491.52-18.69L491.52-18.69L491.52-15.04L491.52-15.04Q491.52-7.87 497.79-7.87L497.79-7.87L497.79-7.87Q504.13-7.87 504.13-15.04L504.13-15.04L504.13-18.69L504.13-18.69Q504.13-25.92 497.79-25.92L497.79-25.92ZM567.17 0L554.75 0L549.50-18.82L549.25-18.82L543.94 0L531.52 0L519.17-33.79L532.86-33.79L537.98-13.82L538.43-13.82L543.74-33.79L556.42-33.79L561.54-13.82L561.98-13.82L567.17-33.79L579.58-33.79L567.17 0ZM606.72-34.56L606.72-34.56Q612.61-34.56 615.55-31.30L615.55-31.30L615.55-31.30Q618.50-28.03 618.50-21.89L618.50-21.89L618.50 0L605.76 0L605.76-20.35L605.76-20.35Q605.76-22.53 604.64-23.84L604.64-23.84L604.64-23.84Q603.52-25.15 601.47-25.15L601.47-25.15L601.47-25.15Q599.10-25.15 597.63-23.62L597.63-23.62L597.63-23.62Q596.16-22.08 596.16-19.84L596.16-19.84L596.16 0L583.42 0L583.42-33.79L593.86-33.79L594.69-28.67L594.69-28.67Q596.67-31.36 599.90-32.96L599.90-32.96L599.90-32.96Q603.14-34.56 606.72-34.56L606.72-34.56ZM639.30-37.76L626.56-37.76L626.56-46.40L639.30-46.40L639.30-37.76ZM639.30 0L626.56 0L626.56-33.79L639.30-33.79L639.30 0ZM664.90-34.56L664.90-34.56Q673.22-34.56 678.37-31.01L678.37-31.01L678.37-31.01Q683.52-27.46 683.52-20.16L683.52-20.16L671.17-20.16L671.17-20.16Q671.17-25.92 664.90-25.92L664.90-25.92L664.90-25.92Q658.62-25.92 658.62-18.69L658.62-18.69L658.62-15.04L658.62-15.04Q658.62-7.87 665.15-7.87L665.15-7.87L665.15-7.87Q671.68-7.87 671.68-13.76L671.68-13.76L683.52-13.76L683.52-13.76Q683.52-6.40 678.37-2.82L678.37-2.82L678.37-2.82Q673.22 0.77 664.90 0.77L664.90 0.77L664.90 0.77Q656 0.77 650.94-3.71L650.94-3.71L650.94-3.71Q645.89-8.19 645.89-16.90L645.89-16.90L645.89-16.90Q645.89-25.60 650.94-30.08L650.94-30.08L650.94-30.08Q656-34.56 664.90-34.56L664.90-34.56ZM713.34-1.02L713.34-1.02Q710.72 6.08 706.91 9.76L706.91 9.76L706.91 9.76Q703.10 13.44 696.26 13.44L696.26 13.44L696.26 13.44Q692.10 13.44 688.90 12.29L688.90 12.29L688.90 4.67L694.02 4.67L694.02 4.67Q698.82 4.67 699.71 0L699.71 0L686.27-33.79L699.97-33.79L706.43-11.33L706.88-11.33L712.83-33.79L725.38-33.79L713.34-1.02Z" fill="#0d99ff"></path></g></g><style>text {
  font-size: 64px;
  font-family: Arial Black;
  dominant-baseline: central;
  text-anchor: middle;
}</style></svg>