<svg width="632.04248046875px" height="78.777587890625px" xmlns="http://www.w3.org/2000/svg" viewBox="-66.021240234375 35.6112060546875 632.04248046875 78.777587890625" style="background-color: rgba(0, 0, 0, 0); background-position: initial initial; background-repeat: initial initial;" preserveAspectRatio="xMidYMid"><defs><filter id="editing-extrude-glow"><feFlood flood-color="rgba(0%,0%,0%,0)" result="flood-1"></feFlood><feMorphology operator="erode" radius="1" in="SourceAlpha" result="erode"></feMorphology><feComposite operator="in" in="flood-1" in2="erode" result="comp1"></feComposite><feConvolveMatrix order="3,3" divisor="1" in="comp1" result="convolve" kernelMatrix="0 0 0 1 1 1 0 0 0"></feConvolveMatrix><feOffset dx="-3" dy="0" in="convolve" result="extrude"></feOffset><feComposite operator="in" in="flood-1" in2="extrude" result="comp-extrude"></feComposite><feFlood flood-color="rgba(0%,0%,0%,0)" result="flood-2"></feFlood><feComposite operator="in" in="flood-2" in2="SourceAlpha" result="comp2"></feComposite><feMorphology operator="dilate" radius="1" in="comp2" result="dilate"></feMorphology><feOffset dx="-4.5" dy="0" in="dilate" result="offset"></feOffset><feGaussianBlur in="offset" stdDeviation="5.8" result="blur"></feGaussianBlur><feComponentTransfer in="blur" result="shadow"><feFuncA type="linear" slope="0.8" intercept="-0.2"></feFuncA></feComponentTransfer><feMerge><feMergeNode in="shadow"></feMergeNode><feMergeNode in="comp-extrude"></feMergeNode><feMergeNode in="SourceGraphic"></feMergeNode></feMerge></filter></defs><g filter="url(#editing-extrude-glow)"><g transform="translate(23.220013424754143, 93.79375076293945)"><path d="M33.36 0L23.64 0L20.08-16.76L19.92-16.76L16.36 0L6.64 0L0.20-27.52L9.40-27.52L12.56-11.92L12.72-11.92L15.84-27.52L24.56-27.52L27.88-11.92L28.04-11.92L31-27.52L39.80-27.52L33.36 0ZM52.44-21.60L52.44-21.60Q56.68-21.60 59.62-19.94L59.62-19.94L59.62-19.94Q62.56-18.28 62.56-14.80L62.56-14.80L55.16-14.80L55.16-14.80Q55.16-15.96 54.12-16.44L54.12-16.44L54.12-16.44Q53.40-16.84 52.32-16.84L52.32-16.84L52.32-16.84Q49.44-16.84 49.44-15.48L49.44-15.48L49.44-15.48Q49.44-14.72 50.44-14.40L50.44-14.40L50.44-14.40Q51.44-14.08 53.72-13.72L53.72-13.72L53.72-13.72Q56.52-13.32 58.40-12.78L58.40-12.78L58.40-12.78Q60.28-12.24 61.68-10.86L61.68-10.86L61.68-10.86Q63.08-9.48 63.08-7L63.08-7L63.08-7Q63.08-2.96 60.06-1.24L60.06-1.24L60.06-1.24Q57.04 0.48 52.16 0.48L52.16 0.48L52.16 0.48Q49.36 0.48 46.88-0.30L46.88-0.30L46.88-0.30Q44.40-1.08 42.84-2.72L42.84-2.72L42.84-2.72Q41.28-4.36 41.28-6.88L41.28-6.88L48.68-6.88L48.68-6.72L48.68-6.72Q48.72-5.36 49.82-4.82L49.82-4.82L49.82-4.82Q50.92-4.28 52.16-4.28L52.16-4.28L52.16-4.28Q55.48-4.28 55.48-5.84L55.48-5.84L55.48-5.84Q55.48-6.64 54.44-7L54.44-7L54.44-7Q53.40-7.36 51.04-7.76L51.04-7.76L51.04-7.76Q48.20-8.24 46.38-8.80L46.38-8.80L46.38-8.80Q44.56-9.36 43.20-10.70L43.20-10.70L43.20-10.70Q41.84-12.04 41.84-14.44L41.84-14.44L41.84-14.44Q41.84-18.32 44.78-19.96L44.78-19.96L44.78-19.96Q47.72-21.60 52.44-21.60L52.44-21.60ZM85.48-18.64L76.52-5.40L85.84-5.40L85.84 0L65.24 0L65.24-2.60L74.12-15.72L65.72-15.72L65.72-21.12L85.48-21.12L85.48-18.64ZM103.60-0.64L103.60-0.64Q101.96 3.80 99.58 6.10L99.58 6.10L99.58 6.10Q97.20 8.40 92.92 8.40L92.92 8.40L92.92 8.40Q90.32 8.40 88.32 7.68L88.32 7.68L88.32 2.92L91.52 2.92L91.52 2.92Q94.52 2.92 95.08 0L95.08 0L86.68-21.12L95.24-21.12L99.28-7.08L99.56-7.08L103.28-21.12L111.12-21.12L103.60-0.64ZM123.56-21.60L123.56-21.60Q127.80-21.60 130.74-19.94L130.74-19.94L130.74-19.94Q133.68-18.28 133.68-14.80L133.68-14.80L126.28-14.80L126.28-14.80Q126.28-15.96 125.24-16.44L125.24-16.44L125.24-16.44Q124.52-16.84 123.44-16.84L123.44-16.84L123.44-16.84Q120.56-16.84 120.56-15.48L120.56-15.48L120.56-15.48Q120.56-14.72 121.56-14.40L121.56-14.40L121.56-14.40Q122.56-14.08 124.84-13.72L124.84-13.72L124.84-13.72Q127.64-13.32 129.52-12.78L129.52-12.78L129.52-12.78Q131.40-12.24 132.80-10.86L132.80-10.86L132.80-10.86Q134.20-9.48 134.20-7L134.20-7L134.20-7Q134.20-2.96 131.18-1.24L131.18-1.24L131.18-1.24Q128.16 0.48 123.28 0.48L123.28 0.48L123.28 0.48Q120.48 0.48 118-0.30L118-0.30L118-0.30Q115.52-1.08 113.96-2.72L113.96-2.72L113.96-2.72Q112.40-4.36 112.40-6.88L112.40-6.88L119.80-6.88L119.80-6.72L119.80-6.72Q119.84-5.36 120.94-4.82L120.94-4.82L120.94-4.82Q122.04-4.28 123.28-4.28L123.28-4.28L123.28-4.28Q126.60-4.28 126.60-5.84L126.60-5.84L126.60-5.84Q126.60-6.64 125.56-7L125.56-7L125.56-7Q124.52-7.36 122.16-7.76L122.16-7.76L122.16-7.76Q119.32-8.24 117.50-8.80L117.50-8.80L117.50-8.80Q115.68-9.36 114.32-10.70L114.32-10.70L114.32-10.70Q112.96-12.04 112.96-14.44L112.96-14.44L112.96-14.44Q112.96-18.32 115.90-19.96L115.90-19.96L115.90-19.96Q118.84-21.60 123.56-21.60L123.56-21.60ZM148.88-21.60L148.88-21.60Q154.08-21.60 157.30-19.38L157.30-19.38L157.30-19.38Q160.52-17.16 160.52-12.60L160.52-12.60L152.80-12.60L152.80-12.60Q152.80-16.20 148.88-16.20L148.88-16.20L148.88-16.20Q144.96-16.20 144.96-11.68L144.96-11.68L144.96-9.40L144.96-9.40Q144.96-4.92 149.04-4.92L149.04-4.92L149.04-4.92Q153.12-4.92 153.12-8.60L153.12-8.60L160.52-8.60L160.52-8.60Q160.52-4 157.30-1.76L157.30-1.76L157.30-1.76Q154.08 0.48 148.88 0.48L148.88 0.48L148.88 0.48Q143.32 0.48 140.16-2.32L140.16-2.32L140.16-2.32Q137-5.12 137-10.56L137-10.56L137-10.56Q137-16 140.16-18.80L140.16-18.80L140.16-18.80Q143.32-21.60 148.88-21.60L148.88-21.60ZM179.16-0.64L179.16-0.64Q177.52 3.80 175.14 6.10L175.14 6.10L175.14 6.10Q172.76 8.40 168.48 8.40L168.48 8.40L168.48 8.40Q165.88 8.40 163.88 7.68L163.88 7.68L163.88 2.92L167.08 2.92L167.08 2.92Q170.08 2.92 170.64 0L170.64 0L162.24-21.12L170.80-21.12L174.84-7.08L175.12-7.08L178.84-21.12L186.68-21.12L179.16-0.64ZM216.32-21.60L216.32-21.60Q220.60-21.60 222.92-18.80L222.92-18.80L222.92-18.80Q225.24-16 225.24-10.52L225.24-10.52L225.24-10.52Q225.24-5.08 222.92-2.30L222.92-2.30L222.92-2.30Q220.60 0.48 216.32 0.48L216.32 0.48L216.32 0.48Q212.64 0.48 210.40-1.92L210.40-1.92L210.40 7.88L202.44 7.88L202.44-21.12L208.92-21.12L209.60-18.12L209.60-18.12Q211.92-21.60 216.32-21.60L216.32-21.60ZM213.84-15.72L213.84-15.72Q212.08-15.72 211.20-14.48L211.20-14.48L211.20-14.48Q210.32-13.24 210.32-11.24L210.32-11.24L210.32-9.92L210.32-9.92Q210.32-7.92 211.20-6.66L211.20-6.66L211.20-6.66Q212.08-5.40 213.84-5.40L213.84-5.40L213.84-5.40Q217.28-5.40 217.28-9.52L217.28-9.52L217.28-11.64L217.28-11.64Q217.28-15.72 213.84-15.72L213.84-15.72ZM241.92-21.64L241.92-21.64Q242.84-21.64 243.56-21.42L243.56-21.42L243.56-21.42Q244.28-21.20 244.28-21.16L244.28-21.16L244.28-14.48L241.72-14.48L241.72-14.48Q239.24-14.48 238.14-13.20L238.14-13.20L238.14-13.20Q237.04-11.92 237.04-9.40L237.04-9.40L237.04 0L229.08 0L229.08-21.12L235.60-21.12L236.12-17.92L236.12-17.92Q236.84-19.76 238.40-20.70L238.40-20.70L238.40-20.70Q239.96-21.64 241.92-21.64L241.92-21.64ZM257.28-21.60L257.28-21.60Q262.12-21.60 265.16-19.98L265.16-19.98L265.16-19.98Q268.20-18.36 268.20-14.72L268.20-14.72L268.20-6.48L268.20-6.48Q268.20-5.80 268.52-5.36L268.52-5.36L268.52-5.36Q268.84-4.92 269.48-4.92L269.48-4.92L270.92-4.92L270.92-0.32L270.92-0.32Q270.80-0.24 270.30-0.06L270.30-0.06L270.30-0.06Q269.80 0.12 268.88 0.30L268.88 0.30L268.88 0.30Q267.96 0.48 266.76 0.48L266.76 0.48L266.76 0.48Q264.44 0.48 262.94-0.22L262.94-0.22L262.94-0.22Q261.44-0.92 260.88-2.16L260.88-2.16L260.88-2.16Q259.36-0.96 257.48-0.24L257.48-0.24L257.48-0.24Q255.60 0.48 253.08 0.48L253.08 0.48L253.08 0.48Q245.64 0.48 245.64-5.44L245.64-5.44L245.64-5.44Q245.64-8.52 247.30-10.14L247.30-10.14L247.30-10.14Q248.96-11.76 252.08-12.36L252.08-12.36L252.08-12.36Q255.20-12.96 260.24-12.96L260.24-12.96L260.24-14L260.24-14Q260.24-15.24 259.38-15.88L259.38-15.88L259.38-15.88Q258.52-16.52 257.16-16.52L257.16-16.52L257.16-16.52Q255.92-16.52 255.02-16.08L255.02-16.08L255.02-16.08Q254.12-15.64 254.12-14.68L254.12-14.68L254.12-14.52L246.28-14.52L246.28-14.52Q246.24-14.72 246.24-15.08L246.24-15.08L246.24-15.08Q246.24-18.08 249.10-19.84L249.10-19.84L249.10-19.84Q251.96-21.60 257.28-21.60L257.28-21.60ZM260.24-9.20L260.24-9.20Q256.84-9.20 255.22-8.46L255.22-8.46L255.22-8.46Q253.60-7.72 253.60-6.48L253.60-6.48L253.60-6.48Q253.60-4.48 256.32-4.48L256.32-4.48L256.32-4.48Q257.88-4.48 259.06-5.32L259.06-5.32L259.06-5.32Q260.24-6.16 260.24-7.40L260.24-7.40L260.24-9.20ZM284.44-21.60L284.44-21.60Q289.64-21.60 292.86-19.38L292.86-19.38L292.86-19.38Q296.08-17.16 296.08-12.60L296.08-12.60L288.36-12.60L288.36-12.60Q288.36-16.20 284.44-16.20L284.44-16.20L284.44-16.20Q280.52-16.20 280.52-11.68L280.52-11.68L280.52-9.40L280.52-9.40Q280.52-4.92 284.60-4.92L284.60-4.92L284.60-4.92Q288.68-4.92 288.68-8.60L288.68-8.60L296.08-8.60L296.08-8.60Q296.08-4 292.86-1.76L292.86-1.76L292.86-1.76Q289.64 0.48 284.44 0.48L284.44 0.48L284.44 0.48Q278.88 0.48 275.72-2.32L275.72-2.32L275.72-2.32Q272.56-5.12 272.56-10.56L272.56-10.56L272.56-10.56Q272.56-16 275.72-18.80L275.72-18.80L275.72-18.80Q278.88-21.60 284.44-21.60L284.44-21.60ZM311.12-21.60L311.12-21.60Q316.68-21.60 319.86-18.78L319.86-18.78L319.86-18.78Q323.04-15.96 323.04-10.56L323.04-10.56L323.04-10.56Q323.04-5.16 319.86-2.34L319.86-2.34L319.86-2.34Q316.68 0.48 311.12 0.48L311.12 0.48L311.12 0.48Q305.56 0.48 302.40-2.32L302.40-2.32L302.40-2.32Q299.24-5.12 299.24-10.56L299.24-10.56L299.24-10.56Q299.24-16 302.40-18.80L302.40-18.80L302.40-18.80Q305.56-21.60 311.12-21.60L311.12-21.60ZM311.12-16.20L311.12-16.20Q307.20-16.20 307.20-11.68L307.20-11.68L307.20-9.40L307.20-9.40Q307.20-4.92 311.12-4.92L311.12-4.92L311.12-4.92Q315.08-4.92 315.08-9.40L315.08-9.40L315.08-11.68L315.08-11.68Q315.08-16.20 311.12-16.20L311.12-16.20ZM354.48 0L346.72 0L343.44-11.76L343.28-11.76L339.96 0L332.20 0L324.48-21.12L333.04-21.12L336.24-8.64L336.52-8.64L339.84-21.12L347.76-21.12L350.96-8.64L351.24-8.64L354.48-21.12L362.24-21.12L354.48 0ZM379.20-21.60L379.20-21.60Q382.88-21.60 384.72-19.56L384.72-19.56L384.72-19.56Q386.56-17.52 386.56-13.68L386.56-13.68L386.56 0L378.60 0L378.60-12.72L378.60-12.72Q378.60-14.08 377.90-14.90L377.90-14.90L377.90-14.90Q377.20-15.72 375.92-15.72L375.92-15.72L375.92-15.72Q374.44-15.72 373.52-14.76L373.52-14.76L373.52-14.76Q372.60-13.80 372.60-12.40L372.60-12.40L372.60 0L364.64 0L364.64-21.12L371.16-21.12L371.68-17.92L371.68-17.92Q372.92-19.60 374.94-20.60L374.94-20.60L374.94-20.60Q376.96-21.60 379.20-21.60L379.20-21.60ZM399.56-23.60L391.60-23.60L391.60-29L399.56-29L399.56-23.60ZM399.56 0L391.60 0L391.60-21.12L399.56-21.12L399.56 0ZM415.56-21.60L415.56-21.60Q420.76-21.60 423.98-19.38L423.98-19.38L423.98-19.38Q427.20-17.16 427.20-12.60L427.20-12.60L419.48-12.60L419.48-12.60Q419.48-16.20 415.56-16.20L415.56-16.20L415.56-16.20Q411.64-16.20 411.64-11.68L411.64-11.68L411.64-9.40L411.64-9.40Q411.64-4.92 415.72-4.92L415.72-4.92L415.72-4.92Q419.80-4.92 419.80-8.60L419.80-8.60L427.20-8.60L427.20-8.60Q427.20-4 423.98-1.76L423.98-1.76L423.98-1.76Q420.76 0.48 415.56 0.48L415.56 0.48L415.56 0.48Q410 0.48 406.84-2.32L406.84-2.32L406.84-2.32Q403.68-5.12 403.68-10.56L403.68-10.56L403.68-10.56Q403.68-16 406.84-18.80L406.84-18.80L406.84-18.80Q410-21.60 415.56-21.60L415.56-21.60ZM445.84-0.64L445.84-0.64Q444.20 3.80 441.82 6.10L441.82 6.10L441.82 6.10Q439.44 8.40 435.16 8.40L435.16 8.40L435.16 8.40Q432.56 8.40 430.56 7.68L430.56 7.68L430.56 2.92L433.76 2.92L433.76 2.92Q436.76 2.92 437.32 0L437.32 0L428.92-21.12L437.48-21.12L441.52-7.08L441.80-7.08L445.52-21.12L453.36-21.12L445.84-0.64Z" fill="#0d99ff"></path></g></g><style>text {
  font-size: 64px;
  font-family: Arial Black;
  dominant-baseline: central;
  text-anchor: middle;
}</style></svg>