<svg width="575.0499877929688px" height="78.777587890625px" xmlns="http://www.w3.org/2000/svg" viewBox="-37.524993896484375 35.6112060546875 575.0499877929688 78.777587890625" style="background-color: rgba(0, 0, 0, 0); background-position: initial initial; background-repeat: initial initial;" preserveAspectRatio="xMidYMid"><defs><filter id="editing-extrude-glow"><feFlood flood-color="rgba(0%,0%,0%,0)" result="flood-1"></feFlood><feMorphology operator="erode" radius="1" in="SourceAlpha" result="erode"></feMorphology><feComposite operator="in" in="flood-1" in2="erode" result="comp1"></feComposite><feConvolveMatrix order="3,3" divisor="1" in="comp1" result="convolve" kernelMatrix="0 0 0 1 1 1 0 0 0"></feConvolveMatrix><feOffset dx="-3" dy="0" in="convolve" result="extrude"></feOffset><feComposite operator="in" in="flood-1" in2="extrude" result="comp-extrude"></feComposite><feFlood flood-color="rgba(0%,0%,0%,0)" result="flood-2"></feFlood><feComposite operator="in" in="flood-2" in2="SourceAlpha" result="comp2"></feComposite><feMorphology operator="dilate" radius="1" in="comp2" result="dilate"></feMorphology><feOffset dx="-4.5" dy="0" in="dilate" result="offset"></feOffset><feGaussianBlur in="offset" stdDeviation="5.8" result="blur"></feGaussianBlur><feComponentTransfer in="blur" result="shadow"><feFuncA type="linear" slope="0.8" intercept="-0.2"></feFuncA></feComponentTransfer><feMerge><feMergeNode in="shadow"></feMergeNode><feMergeNode in="comp-extrude"></feMergeNode><feMergeNode in="SourceGraphic"></feMergeNode></feMerge></filter></defs><g filter="url(#editing-extrude-glow)"><g transform="translate(45.68000487983227, 93.81375122070312)"><path d="M33.36 0L23.64 0L20.08-16.76L19.92-16.76L16.36 0L6.64 0L0.20-27.52L9.40-27.52L12.56-11.92L12.72-11.92L15.84-27.52L24.56-27.52L27.88-11.92L28.04-11.92L31-27.52L39.80-27.52L33.36 0ZM52.44-21.60L52.44-21.60Q56.68-21.60 59.62-19.94L59.62-19.94L59.62-19.94Q62.56-18.28 62.56-14.80L62.56-14.80L55.16-14.80L55.16-14.80Q55.16-15.96 54.12-16.44L54.12-16.44L54.12-16.44Q53.40-16.84 52.32-16.84L52.32-16.84L52.32-16.84Q49.44-16.84 49.44-15.48L49.44-15.48L49.44-15.48Q49.44-14.72 50.44-14.40L50.44-14.40L50.44-14.40Q51.44-14.08 53.72-13.72L53.72-13.72L53.72-13.72Q56.52-13.32 58.40-12.78L58.40-12.78L58.40-12.78Q60.28-12.24 61.68-10.86L61.68-10.86L61.68-10.86Q63.08-9.48 63.08-7L63.08-7L63.08-7Q63.08-2.96 60.06-1.24L60.06-1.24L60.06-1.24Q57.04 0.48 52.16 0.48L52.16 0.48L52.16 0.48Q49.36 0.48 46.88-0.30L46.88-0.30L46.88-0.30Q44.40-1.08 42.84-2.72L42.84-2.72L42.84-2.72Q41.28-4.36 41.28-6.88L41.28-6.88L48.68-6.88L48.68-6.72L48.68-6.72Q48.72-5.36 49.82-4.82L49.82-4.82L49.82-4.82Q50.92-4.28 52.16-4.28L52.16-4.28L52.16-4.28Q55.48-4.28 55.48-5.84L55.48-5.84L55.48-5.84Q55.48-6.64 54.44-7L54.44-7L54.44-7Q53.40-7.36 51.04-7.76L51.04-7.76L51.04-7.76Q48.20-8.24 46.38-8.80L46.38-8.80L46.38-8.80Q44.56-9.36 43.20-10.70L43.20-10.70L43.20-10.70Q41.84-12.04 41.84-14.44L41.84-14.44L41.84-14.44Q41.84-18.32 44.78-19.96L44.78-19.96L44.78-19.96Q47.72-21.60 52.44-21.60L52.44-21.60ZM85.48-18.64L76.52-5.40L85.84-5.40L85.84 0L65.24 0L65.24-2.60L74.12-15.72L65.72-15.72L65.72-21.12L85.48-21.12L85.48-18.64ZM103.60-0.64L103.60-0.64Q101.96 3.80 99.58 6.10L99.58 6.10L99.58 6.10Q97.20 8.40 92.92 8.40L92.92 8.40L92.92 8.40Q90.32 8.40 88.32 7.68L88.32 7.68L88.32 2.92L91.52 2.92L91.52 2.92Q94.52 2.92 95.08 0L95.08 0L86.68-21.12L95.24-21.12L99.28-7.08L99.56-7.08L103.28-21.12L111.12-21.12L103.60-0.64ZM123.56-21.60L123.56-21.60Q127.80-21.60 130.74-19.94L130.74-19.94L130.74-19.94Q133.68-18.28 133.68-14.80L133.68-14.80L126.28-14.80L126.28-14.80Q126.28-15.96 125.24-16.44L125.24-16.44L125.24-16.44Q124.52-16.84 123.44-16.84L123.44-16.84L123.44-16.84Q120.56-16.84 120.56-15.48L120.56-15.48L120.56-15.48Q120.56-14.72 121.56-14.40L121.56-14.40L121.56-14.40Q122.56-14.08 124.84-13.72L124.84-13.72L124.84-13.72Q127.64-13.32 129.52-12.78L129.52-12.78L129.52-12.78Q131.40-12.24 132.80-10.86L132.80-10.86L132.80-10.86Q134.20-9.48 134.20-7L134.20-7L134.20-7Q134.20-2.96 131.18-1.24L131.18-1.24L131.18-1.24Q128.16 0.48 123.28 0.48L123.28 0.48L123.28 0.48Q120.48 0.48 118-0.30L118-0.30L118-0.30Q115.52-1.08 113.96-2.72L113.96-2.72L113.96-2.72Q112.40-4.36 112.40-6.88L112.40-6.88L119.80-6.88L119.80-6.72L119.80-6.72Q119.84-5.36 120.94-4.82L120.94-4.82L120.94-4.82Q122.04-4.28 123.28-4.28L123.28-4.28L123.28-4.28Q126.60-4.28 126.60-5.84L126.60-5.84L126.60-5.84Q126.60-6.64 125.56-7L125.56-7L125.56-7Q124.52-7.36 122.16-7.76L122.16-7.76L122.16-7.76Q119.32-8.24 117.50-8.80L117.50-8.80L117.50-8.80Q115.68-9.36 114.32-10.70L114.32-10.70L114.32-10.70Q112.96-12.04 112.96-14.44L112.96-14.44L112.96-14.44Q112.96-18.32 115.90-19.96L115.90-19.96L115.90-19.96Q118.84-21.60 123.56-21.60L123.56-21.60ZM147.56-21.12L152.04-21.12L152.04-15.72L147.56-15.72L147.56-7.68L147.56-7.68Q147.56-6.24 148.04-5.58L148.04-5.58L148.04-5.58Q148.52-4.92 149.80-4.92L149.80-4.92L152.04-4.92L152.04-0.24L152.04-0.24Q151.08 0.08 149.56 0.28L149.56 0.28L149.56 0.28Q148.04 0.48 146.92 0.48L146.92 0.48L146.92 0.48Q143.40 0.48 141.50-0.80L141.50-0.80L141.50-0.80Q139.60-2.08 139.60-5.16L139.60-5.16L139.60-15.72L136.64-15.72L136.64-21.12L139.92-21.12L141.64-27.52L147.56-27.52L147.56-21.12ZM163.68-13.04L170.44-21.12L179.72-21.12L171.92-12.60L179.92 0L170.88 0L166.44-7.24L163.68-4.56L163.68 0L155.72 0L155.72-29.04L163.68-29.04L163.68-13.04ZM190.64-23.60L182.68-23.60L182.68-29L190.64-29L190.64-23.60ZM190.64 0L182.68 0L182.68-21.12L190.64-21.12L190.64 0ZM206.64-21.60L206.64-21.60Q212.44-21.60 215.50-18.88L215.50-18.88L215.50-18.88Q218.56-16.16 218.56-10.56L218.56-10.56L218.56-9.20L202.72-9.20L202.72-9.20Q202.72-6.92 203.74-5.76L203.74-5.76L203.74-5.76Q204.76-4.60 206.96-4.60L206.96-4.60L206.96-4.60Q208.96-4.60 209.90-5.44L209.90-5.44L209.90-5.44Q210.84-6.28 210.84-7.68L210.84-7.68L218.56-7.68L218.56-7.68Q218.56-3.84 215.64-1.68L215.64-1.68L215.64-1.68Q212.72 0.48 207.12 0.48L207.12 0.48L207.12 0.48Q201.24 0.48 198-2.26L198-2.26L198-2.26Q194.76-5 194.76-10.56L194.76-10.56L194.76-10.56Q194.76-16 197.92-18.80L197.92-18.80L197.92-18.80Q201.08-21.60 206.64-21.60L206.64-21.60ZM206.96-16.52L206.96-16.52Q203.20-16.52 202.76-12.96L202.76-12.96L210.52-12.96L210.52-12.96Q210.52-14.60 209.58-15.56L209.58-15.56L209.58-15.56Q208.64-16.52 206.96-16.52L206.96-16.52ZM243.68-13.04L250.44-21.12L259.72-21.12L251.92-12.60L259.92 0L250.88 0L246.44-7.24L243.68-4.56L243.68 0L235.72 0L235.72-29.04L243.68-29.04L243.68-13.04ZM270.64-23.60L262.68-23.60L262.68-29L270.64-29L270.64-23.60ZM270.64 0L262.68 0L262.68-21.12L270.64-21.12L270.64 0ZM286.64-21.60L286.64-21.60Q292.44-21.60 295.50-18.88L295.50-18.88L295.50-18.88Q298.56-16.16 298.56-10.56L298.56-10.56L298.56-9.20L282.72-9.20L282.72-9.20Q282.72-6.92 283.74-5.76L283.74-5.76L283.74-5.76Q284.76-4.60 286.96-4.60L286.96-4.60L286.96-4.60Q288.96-4.60 289.90-5.44L289.90-5.44L289.90-5.44Q290.84-6.28 290.84-7.68L290.84-7.68L298.56-7.68L298.56-7.68Q298.56-3.84 295.64-1.68L295.64-1.68L295.64-1.68Q292.72 0.48 287.12 0.48L287.12 0.48L287.12 0.48Q281.24 0.48 278-2.26L278-2.26L278-2.26Q274.76-5 274.76-10.56L274.76-10.56L274.76-10.56Q274.76-16 277.92-18.80L277.92-18.80L277.92-18.80Q281.08-21.60 286.64-21.60L286.64-21.60ZM286.96-16.52L286.96-16.52Q283.20-16.52 282.76-12.96L282.76-12.96L290.52-12.96L290.52-12.96Q290.52-14.60 289.58-15.56L289.58-15.56L289.58-15.56Q288.64-16.52 286.96-16.52L286.96-16.52ZM315.24-21.64L315.24-21.64Q316.16-21.64 316.88-21.42L316.88-21.42L316.88-21.42Q317.60-21.20 317.60-21.16L317.60-21.16L317.60-14.48L315.04-14.48L315.04-14.48Q312.56-14.48 311.46-13.20L311.46-13.20L311.46-13.20Q310.36-11.92 310.36-9.40L310.36-9.40L310.36 0L302.40 0L302.40-21.12L308.92-21.12L309.44-17.92L309.44-17.92Q310.16-19.76 311.72-20.70L311.72-20.70L311.72-20.70Q313.28-21.64 315.24-21.64L315.24-21.64ZM342 0L335.48 0L334.96-3.20L334.96-3.20Q333.72-1.48 331.70-0.50L331.70-0.50L331.70-0.50Q329.68 0.48 327.44 0.48L327.44 0.48L327.44 0.48Q323.76 0.48 321.92-1.56L321.92-1.56L321.92-1.56Q320.08-3.60 320.08-7.44L320.08-7.44L320.08-21.12L328.04-21.12L328.04-8.40L328.04-8.40Q328.04-7.04 328.74-6.22L328.74-6.22L328.74-6.22Q329.44-5.40 330.72-5.40L330.72-5.40L330.72-5.40Q332.20-5.40 333.12-6.36L333.12-6.36L333.12-6.36Q334.04-7.32 334.04-8.72L334.04-8.72L334.04-21.12L342-21.12L342 0ZM361.40-21.60L361.40-21.60Q365.08-21.60 366.92-19.56L366.92-19.56L366.92-19.56Q368.76-17.52 368.76-13.68L368.76-13.68L368.76 0L360.80 0L360.80-12.72L360.80-12.72Q360.80-14.08 360.10-14.90L360.10-14.90L360.10-14.90Q359.40-15.72 358.12-15.72L358.12-15.72L358.12-15.72Q356.64-15.72 355.72-14.76L355.72-14.76L355.72-14.76Q354.80-13.80 354.80-12.40L354.80-12.40L354.80 0L346.84 0L346.84-21.12L353.36-21.12L353.88-17.92L353.88-17.92Q355.12-19.60 357.14-20.60L357.14-20.60L357.14-20.60Q359.16-21.60 361.40-21.60L361.40-21.60ZM381.48-13.04L388.24-21.12L397.52-21.12L389.72-12.60L397.72 0L388.68 0L384.24-7.24L381.48-4.56L381.48 0L373.52 0L373.52-29.04L381.48-29.04L381.48-13.04ZM408.44-23.60L400.48-23.60L400.48-29L408.44-29L408.44-23.60ZM408.44 0L400.48 0L400.48-21.12L408.44-21.12L408.44 0Z" fill="#0d99ff"></path></g></g><style>text {
  font-size: 64px;
  font-family: Arial Black;
  dominant-baseline: central;
  text-anchor: middle;
}</style></svg>