<svg width="865.92001953125px" height="114.66875px" xmlns="http://www.w3.org/2000/svg" viewBox="-182.960009765625 17.665625 865.92001953125 114.66875" style="background-image: none; background-position: initial initial; background-repeat: initial initial;" preserveAspectRatio="xMidYMid"><defs><filter id="editing-extrude-glow"><feFlood flood-color="none" result="flood-1"></feFlood><feMorphology operator="erode" radius="1" in="SourceAlpha" result="erode"></feMorphology><feComposite operator="in" in="flood-1" in2="erode" result="comp1"></feComposite><feConvolveMatrix order="1,1" divisor="1" in="comp1" result="convolve" kernelMatrix="1"></feConvolveMatrix><feOffset dx="-1" dy="0" in="convolve" result="extrude"></feOffset><feComposite operator="in" in="flood-1" in2="extrude" result="comp-extrude"></feComposite><feFlood flood-color="rgba(0%,0%,0%,0)" result="flood-2"></feFlood><feComposite operator="in" in="flood-2" in2="SourceAlpha" result="comp2"></feComposite><feMorphology operator="dilate" radius="1" in="comp2" result="dilate"></feMorphology><feOffset dx="-1.5" dy="0" in="dilate" result="offset"></feOffset><feGaussianBlur in="offset" stdDeviation="5.8" result="blur"></feGaussianBlur><feComponentTransfer in="blur" result="shadow"><feFuncA type="linear" slope="0.8" intercept="-0.2"></feFuncA></feComponentTransfer><feMerge><feMergeNode in="shadow"></feMergeNode><feMergeNode in="comp-extrude"></feMergeNode><feMergeNode in="SourceGraphic"></feMergeNode></feMerge></filter></defs><g filter="url(#editing-extrude-glow)"><g transform="translate(-59.14998659491539, 104.92781257629395)"><path d="M53.38 0L37.82 0L32.13-26.82L31.87-26.82L26.18 0L10.62 0L0.32-44.03L15.04-44.03L20.10-19.07L20.35-19.07L25.34-44.03L39.30-44.03L44.61-19.07L44.86-19.07L49.60-44.03L63.68-44.03L53.38 0ZM83.90-34.56L83.90-34.56Q90.69-34.56 95.39-31.90L95.39-31.90L95.39-31.90Q100.10-29.25 100.10-23.68L100.10-23.68L88.26-23.68L88.26-23.68Q88.26-25.54 86.59-26.30L86.59-26.30L86.59-26.30Q85.44-26.94 83.71-26.94L83.71-26.94L83.71-26.94Q79.10-26.94 79.10-24.77L79.10-24.77L79.10-24.77Q79.10-23.55 80.70-23.04L80.70-23.04L80.70-23.04Q82.30-22.53 85.95-21.95L85.95-21.95L85.95-21.95Q90.43-21.31 93.44-20.45L93.44-20.45L93.44-20.45Q96.45-19.58 98.69-17.38L98.69-17.38L98.69-17.38Q100.93-15.17 100.93-11.20L100.93-11.20L100.93-11.20Q100.93-4.74 96.10-1.98L96.10-1.98L96.10-1.98Q91.26 0.77 83.46 0.77L83.46 0.77L83.46 0.77Q78.98 0.77 75.01-0.48L75.01-0.48L75.01-0.48Q71.04-1.73 68.54-4.35L68.54-4.35L68.54-4.35Q66.05-6.98 66.05-11.01L66.05-11.01L77.89-11.01L77.89-10.75L77.89-10.75Q77.95-8.58 79.71-7.71L79.71-7.71L79.71-7.71Q81.47-6.85 83.46-6.85L83.46-6.85L83.46-6.85Q88.77-6.85 88.77-9.34L88.77-9.34L88.77-9.34Q88.77-10.62 87.10-11.20L87.10-11.20L87.10-11.20Q85.44-11.78 81.66-12.42L81.66-12.42L81.66-12.42Q77.12-13.18 74.21-14.08L74.21-14.08L74.21-14.08Q71.30-14.98 69.12-17.12L69.12-17.12L69.12-17.12Q66.94-19.26 66.94-23.10L66.94-23.10L66.94-23.10Q66.94-29.31 71.65-31.94L71.65-31.94L71.65-31.94Q76.35-34.56 83.90-34.56L83.90-34.56ZM136.77-29.82L122.43-8.64L137.34-8.64L137.34 0L104.38 0L104.38-4.16L118.59-25.15L105.15-25.15L105.15-33.79L136.77-33.79L136.77-29.82ZM165.76-1.02L165.76-1.02Q163.14 6.08 159.33 9.76L159.33 9.76L159.33 9.76Q155.52 13.44 148.67 13.44L148.67 13.44L148.67 13.44Q144.51 13.44 141.31 12.29L141.31 12.29L141.31 4.67L146.43 4.67L146.43 4.67Q151.23 4.67 152.13 0L152.13 0L138.69-33.79L152.38-33.79L158.85-11.33L159.30-11.33L165.25-33.79L177.79-33.79L165.76-1.02ZM197.70-34.56L197.70-34.56Q204.48-34.56 209.18-31.90L209.18-31.90L209.18-31.90Q213.89-29.25 213.89-23.68L213.89-23.68L202.05-23.68L202.05-23.68Q202.05-25.54 200.38-26.30L200.38-26.30L200.38-26.30Q199.23-26.94 197.50-26.94L197.50-26.94L197.50-26.94Q192.90-26.94 192.90-24.77L192.90-24.77L192.90-24.77Q192.90-23.55 194.50-23.04L194.50-23.04L194.50-23.04Q196.10-22.53 199.74-21.95L199.74-21.95L199.74-21.95Q204.22-21.31 207.23-20.45L207.23-20.45L207.23-20.45Q210.24-19.58 212.48-17.38L212.48-17.38L212.48-17.38Q214.72-15.17 214.72-11.20L214.72-11.20L214.72-11.20Q214.72-4.74 209.89-1.98L209.89-1.98L209.89-1.98Q205.06 0.77 197.25 0.77L197.25 0.77L197.25 0.77Q192.77 0.77 188.80-0.48L188.80-0.48L188.80-0.48Q184.83-1.73 182.34-4.35L182.34-4.35L182.34-4.35Q179.84-6.98 179.84-11.01L179.84-11.01L191.68-11.01L191.68-10.75L191.68-10.75Q191.74-8.58 193.50-7.71L193.50-7.71L193.50-7.71Q195.26-6.85 197.25-6.85L197.25-6.85L197.25-6.85Q202.56-6.85 202.56-9.34L202.56-9.34L202.56-9.34Q202.56-10.62 200.90-11.20L200.90-11.20L200.90-11.20Q199.23-11.78 195.46-12.42L195.46-12.42L195.46-12.42Q190.91-13.18 188.00-14.08L188.00-14.08L188.00-14.08Q185.09-14.98 182.91-17.12L182.91-17.12L182.91-17.12Q180.74-19.26 180.74-23.10L180.74-23.10L180.74-23.10Q180.74-29.31 185.44-31.94L185.44-31.94L185.44-31.94Q190.14-34.56 197.70-34.56L197.70-34.56ZM238.21-34.56L238.21-34.56Q246.53-34.56 251.68-31.01L251.68-31.01L251.68-31.01Q256.83-27.46 256.83-20.16L256.83-20.16L244.48-20.16L244.48-20.16Q244.48-25.92 238.21-25.92L238.21-25.92L238.21-25.92Q231.94-25.92 231.94-18.69L231.94-18.69L231.94-15.04L231.94-15.04Q231.94-7.87 238.46-7.87L238.46-7.87L238.46-7.87Q244.99-7.87 244.99-13.76L244.99-13.76L256.83-13.76L256.83-13.76Q256.83-6.40 251.68-2.82L251.68-2.82L251.68-2.82Q246.53 0.77 238.21 0.77L238.21 0.77L238.21 0.77Q229.31 0.77 224.26-3.71L224.26-3.71L224.26-3.71Q219.20-8.19 219.20-16.90L219.20-16.90L219.20-16.90Q219.20-25.60 224.26-30.08L224.26-30.08L224.26-30.08Q229.31-34.56 238.21-34.56L238.21-34.56ZM286.66-1.02L286.66-1.02Q284.03 6.08 280.22 9.76L280.22 9.76L280.22 9.76Q276.42 13.44 269.57 13.44L269.57 13.44L269.57 13.44Q265.41 13.44 262.21 12.29L262.21 12.29L262.21 4.67L267.33 4.67L267.33 4.67Q272.13 4.67 273.02 0L273.02 0L259.58-33.79L273.28-33.79L279.74-11.33L280.19-11.33L286.14-33.79L298.69-33.79L286.66-1.02ZM339.90-34.56L339.90-34.56Q346.69-34.56 351.39-31.90L351.39-31.90L351.39-31.90Q356.10-29.25 356.10-23.68L356.10-23.68L344.26-23.68L344.26-23.68Q344.26-25.54 342.59-26.30L342.59-26.30L342.59-26.30Q341.44-26.94 339.71-26.94L339.71-26.94L339.71-26.94Q335.10-26.94 335.10-24.77L335.10-24.77L335.10-24.77Q335.10-23.55 336.70-23.04L336.70-23.04L336.70-23.04Q338.30-22.53 341.95-21.95L341.95-21.95L341.95-21.95Q346.43-21.31 349.44-20.45L349.44-20.45L349.44-20.45Q352.45-19.58 354.69-17.38L354.69-17.38L354.69-17.38Q356.93-15.17 356.93-11.20L356.93-11.20L356.93-11.20Q356.93-4.74 352.10-1.98L352.10-1.98L352.10-1.98Q347.26 0.77 339.46 0.77L339.46 0.77L339.46 0.77Q334.98 0.77 331.01-0.48L331.01-0.48L331.01-0.48Q327.04-1.73 324.54-4.35L324.54-4.35L324.54-4.35Q322.05-6.98 322.05-11.01L322.05-11.01L333.89-11.01L333.89-10.75L333.89-10.75Q333.95-8.58 335.71-7.71L335.71-7.71L335.71-7.71Q337.47-6.85 339.46-6.85L339.46-6.85L339.46-6.85Q344.77-6.85 344.77-9.34L344.77-9.34L344.77-9.34Q344.77-10.62 343.10-11.20L343.10-11.20L343.10-11.20Q341.44-11.78 337.66-12.42L337.66-12.42L337.66-12.42Q333.12-13.18 330.21-14.08L330.21-14.08L330.21-14.08Q327.30-14.98 325.12-17.12L325.12-17.12L325.12-17.12Q322.94-19.26 322.94-23.10L322.94-23.10L322.94-23.10Q322.94-29.31 327.65-31.94L327.65-31.94L327.65-31.94Q332.35-34.56 339.90-34.56L339.90-34.56ZM378.30-33.79L385.47-33.79L385.47-25.15L378.30-25.15L378.30-12.29L378.30-12.29Q378.30-9.98 379.07-8.93L379.07-8.93L379.07-8.93Q379.84-7.87 381.89-7.87L381.89-7.87L385.47-7.87L385.47-0.38L385.47-0.38Q383.94 0.13 381.50 0.45L381.50 0.45L381.50 0.45Q379.07 0.77 377.28 0.77L377.28 0.77L377.28 0.77Q371.65 0.77 368.61-1.28L368.61-1.28L368.61-1.28Q365.57-3.33 365.57-8.26L365.57-8.26L365.57-25.15L360.83-25.15L360.83-33.79L366.08-33.79L368.83-44.03L378.30-44.03L378.30-33.79ZM426.30 0L415.87 0L415.04-5.12L415.04-5.12Q413.06-2.37 409.82-0.80L409.82-0.80L409.82-0.80Q406.59 0.77 403.01 0.77L403.01 0.77L403.01 0.77Q397.12 0.77 394.18-2.50L394.18-2.50L394.18-2.50Q391.23-5.76 391.23-11.90L391.23-11.90L391.23-33.79L403.97-33.79L403.97-13.44L403.97-13.44Q403.97-11.26 405.09-9.95L405.09-9.95L405.09-9.95Q406.21-8.64 408.26-8.64L408.26-8.64L408.26-8.64Q410.62-8.64 412.10-10.18L412.10-10.18L412.10-10.18Q413.57-11.71 413.57-13.95L413.57-13.95L413.57-33.79L426.30-33.79L426.30 0ZM468.99 0L458.62 0L457.54-4.80L457.54-4.80Q453.82 0.77 446.78 0.77L446.78 0.77L446.78 0.77Q439.94 0.77 436.22-3.71L436.22-3.71L436.22-3.71Q432.51-8.19 432.51-16.96L432.51-16.96L432.51-16.96Q432.51-25.66 436.22-30.11L436.22-30.11L436.22-30.11Q439.94-34.56 446.78-34.56L446.78-34.56L446.78-34.56Q452.61-34.56 456.26-30.66L456.26-30.66L456.26-46.40L468.99-46.40L468.99 0ZM450.75-25.15L450.75-25.15Q445.25-25.15 445.25-18.56L445.25-18.56L445.25-15.17L445.25-15.17Q445.25-8.64 450.75-8.64L450.75-8.64L450.75-8.64Q453.57-8.64 454.98-10.62L454.98-10.62L454.98-10.62Q456.38-12.61 456.38-15.81L456.38-15.81L456.38-17.92L456.38-17.92Q456.38-21.12 454.98-23.14L454.98-23.14L454.98-23.14Q453.57-25.15 450.75-25.15L450.75-25.15ZM494.21-34.56L494.21-34.56Q503.49-34.56 508.38-30.21L508.38-30.21L508.38-30.21Q513.28-25.86 513.28-16.90L513.28-16.90L513.28-14.72L487.94-14.72L487.94-14.72Q487.94-11.07 489.57-9.22L489.57-9.22L489.57-9.22Q491.20-7.36 494.72-7.36L494.72-7.36L494.72-7.36Q497.92-7.36 499.42-8.70L499.42-8.70L499.42-8.70Q500.93-10.05 500.93-12.29L500.93-12.29L513.28-12.29L513.28-12.29Q513.28-6.14 508.61-2.69L508.61-2.69L508.61-2.69Q503.94 0.77 494.98 0.77L494.98 0.77L494.98 0.77Q485.57 0.77 480.38-3.62L480.38-3.62L480.38-3.62Q475.20-8 475.20-16.90L475.20-16.90L475.20-16.90Q475.20-25.60 480.26-30.08L480.26-30.08L480.26-30.08Q485.31-34.56 494.21-34.56L494.21-34.56ZM494.72-26.43L494.72-26.43Q488.70-26.43 488.00-20.74L488.00-20.74L500.42-20.74L500.42-20.74Q500.42-23.36 498.91-24.90L498.91-24.90L498.91-24.90Q497.41-26.43 494.72-26.43L494.72-26.43ZM542.72-34.56L542.72-34.56Q548.61-34.56 551.55-31.30L551.55-31.30L551.55-31.30Q554.50-28.03 554.50-21.89L554.50-21.89L554.50 0L541.76 0L541.76-20.35L541.76-20.35Q541.76-22.53 540.64-23.84L540.64-23.84L540.64-23.84Q539.52-25.15 537.47-25.15L537.47-25.15L537.47-25.15Q535.10-25.15 533.63-23.62L533.63-23.62L533.63-23.62Q532.16-22.08 532.16-19.84L532.16-19.84L532.16 0L519.42 0L519.42-33.79L529.86-33.79L530.69-28.67L530.69-28.67Q532.67-31.36 535.90-32.96L535.90-32.96L535.90-32.96Q539.14-34.56 542.72-34.56L542.72-34.56ZM579.58-34.56L579.58-34.56Q587.90-34.56 593.06-31.01L593.06-31.01L593.06-31.01Q598.21-27.46 598.21-20.16L598.21-20.16L585.86-20.16L585.86-20.16Q585.86-25.92 579.58-25.92L579.58-25.92L579.58-25.92Q573.31-25.92 573.31-18.69L573.31-18.69L573.31-15.04L573.31-15.04Q573.31-7.87 579.84-7.87L579.84-7.87L579.84-7.87Q586.37-7.87 586.37-13.76L586.37-13.76L598.21-13.76L598.21-13.76Q598.21-6.40 593.06-2.82L593.06-2.82L593.06-2.82Q587.90 0.77 579.58 0.77L579.58 0.77L579.58 0.77Q570.69 0.77 565.63-3.71L565.63-3.71L565.63-3.71Q560.58-8.19 560.58-16.90L560.58-16.90L560.58-16.90Q560.58-25.60 565.63-30.08L565.63-30.08L565.63-30.08Q570.69-34.56 579.58-34.56L579.58-34.56ZM617.98-37.76L605.25-37.76L605.25-46.40L617.98-46.40L617.98-37.76ZM617.98 0L605.25 0L605.25-33.79L617.98-33.79L617.98 0Z" fill="#0d99ff"></path></g></g><style>text {
  font-size: 64px;
  font-family: Arial Black;
  dominant-baseline: central;
  text-anchor: middle;
}</style></svg>