<svg width="480.91249999999997px" height="71.5949462890625px" xmlns="http://www.w3.org/2000/svg" viewBox="9.543750000000017 39.20252685546875 480.91249999999997 71.5949462890625" style="background-color: rgba(0, 0, 0, 0); background-position: initial initial; background-repeat: initial initial;" preserveAspectRatio="xMidYMid"><defs><filter id="editing-extrude-glow"><feFlood flood-color="none" result="flood-1"></feFlood><feMorphology operator="erode" radius="1" in="SourceAlpha" result="erode"></feMorphology><feComposite operator="in" in="flood-1" in2="erode" result="comp1"></feComposite><feConvolveMatrix order="1,1" divisor="1" in="comp1" result="convolve" kernelMatrix="1"></feConvolveMatrix><feOffset dx="-1" dy="0" in="convolve" result="extrude"></feOffset><feComposite operator="in" in="flood-1" in2="extrude" result="comp-extrude"></feComposite><feFlood flood-color="rgba(0%,0%,0%,0)" result="flood-2"></feFlood><feComposite operator="in" in="flood-2" in2="SourceAlpha" result="comp2"></feComposite><feMorphology operator="dilate" radius="1" in="comp2" result="dilate"></feMorphology><feOffset dx="-1.5" dy="0" in="dilate" result="offset"></feOffset><feGaussianBlur in="offset" stdDeviation="5.8" result="blur"></feGaussianBlur><feComponentTransfer in="blur" result="shadow"><feFuncA type="linear" slope="0.8" intercept="-0.2"></feFuncA></feComponentTransfer><feMerge><feMergeNode in="shadow"></feMergeNode><feMergeNode in="comp-extrude"></feMergeNode><feMergeNode in="SourceGraphic"></feMergeNode></feMerge></filter></defs><g filter="url(#editing-extrude-glow)"><g transform="translate(80.930000603199, 91.41187477111816)"><path d="M29.19 0L20.69 0L17.57-14.67L17.43-14.67L14.32 0L5.81 0L0.18-24.08L8.23-24.08L10.99-10.43L11.13-10.43L13.86-24.08L21.49-24.08L24.40-10.43L24.54-10.43L27.13-24.08L34.83-24.08L29.19 0ZM45.89-18.90L45.89-18.90Q49.59-18.90 52.17-17.45L52.17-17.45L52.17-17.45Q54.74-16.00 54.74-12.95L54.74-12.95L48.27-12.95L48.27-12.95Q48.27-13.97 47.36-14.39L47.36-14.39L47.36-14.39Q46.73-14.74 45.78-14.74L45.78-14.74L45.78-14.74Q43.26-14.74 43.26-13.55L43.26-13.55L43.26-13.55Q43.26-12.88 44.14-12.60L44.14-12.60L44.14-12.60Q45.01-12.32 47.01-12.01L47.01-12.01L47.01-12.01Q49.45-11.66 51.10-11.18L51.10-11.18L51.10-11.18Q52.75-10.71 53.97-9.50L53.97-9.50L53.97-9.50Q55.20-8.29 55.20-6.13L55.20-6.13L55.20-6.13Q55.20-2.59 52.55-1.09L52.55-1.09L52.55-1.09Q49.91 0.42 45.64 0.42L45.64 0.42L45.64 0.42Q43.19 0.42 41.02-0.26L41.02-0.26L41.02-0.26Q38.85-0.95 37.48-2.38L37.48-2.38L37.48-2.38Q36.12-3.82 36.12-6.02L36.12-6.02L42.59-6.02L42.59-5.88L42.59-5.88Q42.63-4.69 43.59-4.22L43.59-4.22L43.59-4.22Q44.55-3.75 45.64-3.75L45.64-3.75L45.64-3.75Q48.55-3.75 48.55-5.11L48.55-5.11L48.55-5.11Q48.55-5.81 47.64-6.13L47.64-6.13L47.64-6.13Q46.73-6.44 44.66-6.79L44.66-6.79L44.66-6.79Q42.17-7.21 40.58-7.70L40.58-7.70L40.58-7.70Q38.99-8.19 37.80-9.36L37.80-9.36L37.80-9.36Q36.61-10.54 36.61-12.64L36.61-12.64L36.61-12.64Q36.61-16.03 39.18-17.47L39.18-17.47L39.18-17.47Q41.76-18.90 45.89-18.90L45.89-18.90ZM74.80-16.31L66.96-4.73L75.11-4.73L75.11 0L57.09 0L57.09-2.28L64.86-13.76L57.51-13.76L57.51-18.48L74.80-18.48L74.80-16.31ZM90.65-0.56L90.65-0.56Q89.22 3.33 87.13 5.34L87.13 5.34L87.13 5.34Q85.05 7.35 81.31 7.35L81.31 7.35L81.31 7.35Q79.03 7.35 77.28 6.72L77.28 6.72L77.28 2.56L80.08 2.56L80.08 2.56Q82.70 2.56 83.19 0L83.19 0L75.84-18.48L83.33-18.48L86.87-6.20L87.11-6.20L90.37-18.48L97.23-18.48L90.65-0.56ZM108.12-18.90L108.12-18.90Q111.83-18.90 114.40-17.45L114.40-17.45L114.40-17.45Q116.97-16.00 116.97-12.95L116.97-12.95L110.50-12.95L110.50-12.95Q110.50-13.97 109.59-14.39L109.59-14.39L109.59-14.39Q108.96-14.74 108.01-14.74L108.01-14.74L108.01-14.74Q105.49-14.74 105.49-13.55L105.49-13.55L105.49-13.55Q105.49-12.88 106.37-12.60L106.37-12.60L106.37-12.60Q107.24-12.32 109.23-12.01L109.23-12.01L109.23-12.01Q111.69-11.66 113.33-11.18L113.33-11.18L113.33-11.18Q114.98-10.71 116.20-9.50L116.20-9.50L116.20-9.50Q117.43-8.29 117.43-6.13L117.43-6.13L117.43-6.13Q117.43-2.59 114.78-1.09L114.78-1.09L114.78-1.09Q112.14 0.42 107.87 0.42L107.87 0.42L107.87 0.42Q105.42 0.42 103.25-0.26L103.25-0.26L103.25-0.26Q101.08-0.95 99.72-2.38L99.72-2.38L99.72-2.38Q98.35-3.82 98.35-6.02L98.35-6.02L104.83-6.02L104.83-5.88L104.83-5.88Q104.86-4.69 105.82-4.22L105.82-4.22L105.82-4.22Q106.79-3.75 107.87-3.75L107.87-3.75L107.87-3.75Q110.78-3.75 110.78-5.11L110.78-5.11L110.78-5.11Q110.78-5.81 109.87-6.13L109.87-6.13L109.87-6.13Q108.96-6.44 106.89-6.79L106.89-6.79L106.89-6.79Q104.41-7.21 102.81-7.70L102.81-7.70L102.81-7.70Q101.22-8.19 100.03-9.36L100.03-9.36L100.03-9.36Q98.84-10.54 98.84-12.64L98.84-12.64L98.84-12.64Q98.84-16.03 101.41-17.47L101.41-17.47L101.41-17.47Q103.98-18.90 108.12-18.90L108.12-18.90ZM130.27-18.90L130.27-18.90Q134.82-18.90 137.64-16.96L137.64-16.96L137.64-16.96Q140.46-15.02 140.46-11.03L140.46-11.03L133.70-11.03L133.70-11.03Q133.70-14.18 130.27-14.18L130.27-14.18L130.27-14.18Q126.84-14.18 126.84-10.22L126.84-10.22L126.84-8.23L126.84-8.23Q126.84-4.31 130.41-4.31L130.41-4.31L130.41-4.31Q133.98-4.31 133.98-7.53L133.98-7.53L140.46-7.53L140.46-7.53Q140.46-3.50 137.64-1.54L137.64-1.54L137.64-1.54Q134.82 0.42 130.27 0.42L130.27 0.42L130.27 0.42Q125.41 0.42 122.64-2.03L122.64-2.03L122.64-2.03Q119.88-4.48 119.88-9.24L119.88-9.24L119.88-9.24Q119.88-14.00 122.64-16.45L122.64-16.45L122.64-16.45Q125.41-18.90 130.27-18.90L130.27-18.90ZM156.77-0.56L156.77-0.56Q155.33 3.33 153.25 5.34L153.25 5.34L153.25 5.34Q151.17 7.35 147.42 7.35L147.42 7.35L147.42 7.35Q145.15 7.35 143.40 6.72L143.40 6.72L143.40 2.56L146.20 2.56L146.20 2.56Q148.82 2.56 149.31 0L149.31 0L141.96-18.48L149.45-18.48L152.99-6.20L153.23-6.20L156.49-18.48L163.34-18.48L156.77-0.56ZM185.88-18.90L185.88-18.90Q189.59-18.90 192.17-17.45L192.17-17.45L192.17-17.45Q194.74-16.00 194.74-12.95L194.74-12.95L188.26-12.95L188.26-12.95Q188.26-13.97 187.35-14.39L187.35-14.39L187.35-14.39Q186.72-14.74 185.78-14.74L185.78-14.74L185.78-14.74Q183.26-14.74 183.26-13.55L183.26-13.55L183.26-13.55Q183.26-12.88 184.13-12.60L184.13-12.60L184.13-12.60Q185.01-12.32 187.00-12.01L187.00-12.01L187.00-12.01Q189.46-11.66 191.10-11.18L191.10-11.18L191.10-11.18Q192.75-10.71 193.97-9.50L193.97-9.50L193.97-9.50Q195.19-8.29 195.19-6.13L195.19-6.13L195.19-6.13Q195.19-2.59 192.55-1.09L192.55-1.09L192.55-1.09Q189.91 0.42 185.64 0.42L185.64 0.42L185.64 0.42Q183.19 0.42 181.02-0.26L181.02-0.26L181.02-0.26Q178.85-0.95 177.49-2.38L177.49-2.38L177.49-2.38Q176.12-3.82 176.12-6.02L176.12-6.02L182.59-6.02L182.59-5.88L182.59-5.88Q182.63-4.69 183.59-4.22L183.59-4.22L183.59-4.22Q184.56-3.75 185.64-3.75L185.64-3.75L185.64-3.75Q188.55-3.75 188.55-5.11L188.55-5.11L188.55-5.11Q188.55-5.81 187.63-6.13L187.63-6.13L187.63-6.13Q186.72-6.44 184.66-6.79L184.66-6.79L184.66-6.79Q182.18-7.21 180.58-7.70L180.58-7.70L180.58-7.70Q178.99-8.19 177.80-9.36L177.80-9.36L177.80-9.36Q176.61-10.54 176.61-12.64L176.61-12.64L176.61-12.64Q176.61-16.03 179.18-17.47L179.18-17.47L179.18-17.47Q181.75-18.90 185.88-18.90L185.88-18.90ZM206.88-18.48L210.81-18.48L210.81-13.76L206.88-13.76L206.88-6.72L206.88-6.72Q206.88-5.46 207.31-4.88L207.31-4.88L207.31-4.88Q207.72-4.31 208.84-4.31L208.84-4.31L210.81-4.31L210.81-0.21L210.81-0.21Q209.97 0.07 208.63 0.25L208.63 0.25L208.63 0.25Q207.31 0.42 206.32 0.42L206.32 0.42L206.32 0.42Q203.25 0.42 201.58-0.70L201.58-0.70L201.58-0.70Q199.92-1.82 199.92-4.52L199.92-4.52L199.92-13.76L197.33-13.76L197.33-18.48L200.20-18.48L201.70-24.08L206.88-24.08L206.88-18.48ZM233.13 0L227.43 0L226.97-2.80L226.97-2.80Q225.89-1.30 224.12-0.44L224.12-0.44L224.12-0.44Q222.35 0.42 220.39 0.42L220.39 0.42L220.39 0.42Q217.17 0.42 215.56-1.37L215.56-1.37L215.56-1.37Q213.95-3.15 213.95-6.51L213.95-6.51L213.95-18.48L220.92-18.48L220.92-7.35L220.92-7.35Q220.92-6.16 221.53-5.44L221.53-5.44L221.53-5.44Q222.14-4.73 223.26-4.73L223.26-4.73L223.26-4.73Q224.56-4.73 225.36-5.57L225.36-5.57L225.36-5.57Q226.17-6.41 226.17-7.63L226.17-7.63L226.17-18.48L233.13-18.48L233.13 0ZM256.48 0L250.81 0L250.21-2.63L250.21-2.63Q248.18 0.42 244.33 0.42L244.33 0.42L244.33 0.42Q240.59 0.42 238.56-2.03L238.56-2.03L238.56-2.03Q236.53-4.48 236.53-9.28L236.53-9.28L236.53-9.28Q236.53-14.04 238.56-16.47L238.56-16.47L238.56-16.47Q240.59-18.90 244.33-18.90L244.33-18.90L244.33-18.90Q247.52-18.90 249.51-16.77L249.51-16.77L249.51-25.38L256.48-25.38L256.48 0ZM246.50-13.76L246.50-13.76Q243.49-13.76 243.49-10.15L243.49-10.15L243.49-8.29L243.49-8.29Q243.49-4.73 246.50-4.73L246.50-4.73L246.50-4.73Q248.04-4.73 248.81-5.81L248.81-5.81L248.81-5.81Q249.58-6.90 249.58-8.65L249.58-8.65L249.58-9.80L249.58-9.80Q249.58-11.55 248.81-12.65L248.81-12.65L248.81-12.65Q248.04-13.76 246.50-13.76L246.50-13.76ZM270.27-18.90L270.27-18.90Q275.35-18.90 278.02-16.52L278.02-16.52L278.02-16.52Q280.70-14.14 280.70-9.24L280.70-9.24L280.70-8.05L266.84-8.05L266.84-8.05Q266.84-6.06 267.73-5.04L267.73-5.04L267.73-5.04Q268.63-4.03 270.55-4.03L270.55-4.03L270.55-4.03Q272.30-4.03 273.12-4.76L273.12-4.76L273.12-4.76Q273.94-5.50 273.94-6.72L273.94-6.72L280.70-6.72L280.70-6.72Q280.70-3.36 278.14-1.47L278.14-1.47L278.14-1.47Q275.59 0.42 270.69 0.42L270.69 0.42L270.69 0.42Q265.55 0.42 262.71-1.98L262.71-1.98L262.71-1.98Q259.88-4.38 259.88-9.24L259.88-9.24L259.88-9.24Q259.88-14.00 262.64-16.45L262.64-16.45L262.64-16.45Q265.41-18.90 270.27-18.90L270.27-18.90ZM270.55-14.46L270.55-14.46Q267.26-14.46 266.88-11.34L266.88-11.34L273.67-11.34L273.67-11.34Q273.67-12.78 272.84-13.62L272.84-13.62L272.84-13.62Q272.02-14.46 270.55-14.46L270.55-14.46ZM296.80-18.90L296.80-18.90Q300.02-18.90 301.63-17.12L301.63-17.12L301.63-17.12Q303.24-15.33 303.24-11.97L303.24-11.97L303.24 0L296.28 0L296.28-11.13L296.28-11.13Q296.28-12.32 295.66-13.04L295.66-13.04L295.66-13.04Q295.05-13.76 293.93-13.76L293.93-13.76L293.93-13.76Q292.64-13.76 291.83-12.92L291.83-12.92L291.83-12.92Q291.03-12.08 291.03-10.85L291.03-10.85L291.03 0L284.06 0L284.06-18.48L289.77-18.48L290.22-15.68L290.22-15.68Q291.31-17.15 293.07-18.03L293.07-18.03L293.07-18.03Q294.84-18.90 296.80-18.90L296.80-18.90ZM316.96-18.90L316.96-18.90Q321.51-18.90 324.33-16.96L324.33-16.96L324.33-16.96Q327.15-15.02 327.15-11.03L327.15-11.03L320.39-11.03L320.39-11.03Q320.39-14.18 316.96-14.18L316.96-14.18L316.96-14.18Q313.53-14.18 313.53-10.22L313.53-10.22L313.53-8.23L313.53-8.23Q313.53-4.31 317.10-4.31L317.10-4.31L317.10-4.31Q320.67-4.31 320.67-7.53L320.67-7.53L327.15-7.53L327.15-7.53Q327.15-3.50 324.33-1.54L324.33-1.54L324.33-1.54Q321.51 0.42 316.96 0.42L316.96 0.42L316.96 0.42Q312.10 0.42 309.33-2.03L309.33-2.03L309.33-2.03Q306.57-4.48 306.57-9.24L306.57-9.24L306.57-9.24Q306.57-14.00 309.33-16.45L309.33-16.45L309.33-16.45Q312.10-18.90 316.96-18.90L316.96-18.90ZM337.96-20.65L331.00-20.65L331.00-25.38L337.96-25.38L337.96-20.65ZM337.96 0L331.00 0L331.00-18.48L337.96-18.48L337.96 0Z" fill="#0d99ff"></path></g></g><style>text {
  font-size: 64px;
  font-family: Arial Black;
  dominant-baseline: central;
  text-anchor: middle;
}</style></svg>