<svg width="923.93251953125px" height="114.66875px" xmlns="http://www.w3.org/2000/svg" viewBox="-211.966259765625 17.665625 923.93251953125 114.66875" style="background-image: none; background-position: initial initial; background-repeat: initial initial;" preserveAspectRatio="xMidYMid"><defs><filter id="editing-extrude-glow"><feFlood flood-color="none" result="flood-1"></feFlood><feMorphology operator="erode" radius="1" in="SourceAlpha" result="erode"></feMorphology><feComposite operator="in" in="flood-1" in2="erode" result="comp1"></feComposite><feConvolveMatrix order="1,1" divisor="1" in="comp1" result="convolve" kernelMatrix="1"></feConvolveMatrix><feOffset dx="-1" dy="0" in="convolve" result="extrude"></feOffset><feComposite operator="in" in="flood-1" in2="extrude" result="comp-extrude"></feComposite><feFlood flood-color="rgba(0%,0%,0%,0)" result="flood-2"></feFlood><feComposite operator="in" in="flood-2" in2="SourceAlpha" result="comp2"></feComposite><feMorphology operator="dilate" radius="1" in="comp2" result="dilate"></feMorphology><feOffset dx="-1.5" dy="0" in="dilate" result="offset"></feOffset><feGaussianBlur in="offset" stdDeviation="5.8" result="blur"></feGaussianBlur><feComponentTransfer in="blur" result="shadow"><feFuncA type="linear" slope="0.8" intercept="-0.2"></feFuncA></feComponentTransfer><feMerge><feMergeNode in="shadow"></feMergeNode><feMergeNode in="comp-extrude"></feMergeNode><feMergeNode in="SourceGraphic"></feMergeNode></feMerge></filter></defs><g filter="url(#editing-extrude-glow)"><g transform="translate(-84.69001197814941, 104.95781135559082)"><path d="M4.74 0L4.74-44.03L42.82-44.03L42.82-33.47L18.88-33.47L18.88-27.39L39.36-27.39L39.36-17.28L18.88-17.28L18.88-10.56L43.26-10.56L43.26 0L4.74 0ZM84.99 0L74.62 0L73.54-4.80L73.54-4.80Q69.82 0.77 62.78 0.77L62.78 0.77L62.78 0.77Q55.94 0.77 52.22-3.71L52.22-3.71L52.22-3.71Q48.51-8.19 48.51-16.96L48.51-16.96L48.51-16.96Q48.51-25.66 52.22-30.11L52.22-30.11L52.22-30.11Q55.94-34.56 62.78-34.56L62.78-34.56L62.78-34.56Q68.61-34.56 72.26-30.66L72.26-30.66L72.26-46.40L84.99-46.40L84.99 0ZM66.75-25.15L66.75-25.15Q61.25-25.15 61.25-18.56L61.25-18.56L61.25-15.17L61.25-15.17Q61.25-8.64 66.75-8.64L66.75-8.64L66.75-8.64Q69.57-8.64 70.98-10.62L70.98-10.62L70.98-10.62Q72.38-12.61 72.38-15.81L72.38-15.81L72.38-17.92L72.38-17.92Q72.38-21.12 70.98-23.14L70.98-23.14L70.98-23.14Q69.57-25.15 66.75-25.15L66.75-25.15ZM115.97-1.02L115.97-1.02Q113.34 6.08 109.54 9.76L109.54 9.76L109.54 9.76Q105.73 13.44 98.88 13.44L98.88 13.44L98.88 13.44Q94.72 13.44 91.52 12.29L91.52 12.29L91.52 4.67L96.64 4.67L96.64 4.67Q101.44 4.67 102.34 0L102.34 0L88.90-33.79L102.59-33.79L109.06-11.33L109.50-11.33L115.46-33.79L128-33.79L115.97-1.02ZM149.31-34.56L149.31-34.56Q157.63-34.56 162.78-31.01L162.78-31.01L162.78-31.01Q167.94-27.46 167.94-20.16L167.94-20.16L155.58-20.16L155.58-20.16Q155.58-25.92 149.31-25.92L149.31-25.92L149.31-25.92Q143.04-25.92 143.04-18.69L143.04-18.69L143.04-15.04L143.04-15.04Q143.04-7.87 149.57-7.87L149.57-7.87L149.57-7.87Q156.10-7.87 156.10-13.76L156.10-13.76L167.94-13.76L167.94-13.76Q167.94-6.40 162.78-2.82L162.78-2.82L162.78-2.82Q157.63 0.77 149.31 0.77L149.31 0.77L149.31 0.77Q140.42 0.77 135.36-3.71L135.36-3.71L135.36-3.71Q130.30-8.19 130.30-16.90L130.30-16.90L130.30-16.90Q130.30-25.60 135.36-30.08L135.36-30.08L135.36-30.08Q140.42-34.56 149.31-34.56L149.31-34.56ZM187.71-37.76L174.98-37.76L174.98-46.40L187.71-46.40L187.71-37.76ZM187.71 1.86L187.71 1.86Q187.71 8 184.93 10.72L184.93 10.72L184.93 10.72Q182.14 13.44 176 13.44L176 13.44L176 13.44Q174.34 13.44 171.90 13.12L171.90 13.12L171.90 13.12Q169.47 12.80 168.06 12.29L168.06 12.29L168.06 4.67L171.39 4.67L171.39 4.67Q174.98 4.67 174.98 0.58L174.98 0.58L174.98-33.79L187.71-33.79L187.71 1.86ZM212.54-34.56L212.54-34.56Q220.29-34.56 225.15-31.97L225.15-31.97L225.15-31.97Q230.02-29.38 230.02-23.55L230.02-23.55L230.02-10.37L230.02-10.37Q230.02-9.28 230.53-8.58L230.53-8.58L230.53-8.58Q231.04-7.87 232.06-7.87L232.06-7.87L234.37-7.87L234.37-0.51L234.37-0.51Q234.18-0.38 233.38-0.10L233.38-0.10L233.38-0.10Q232.58 0.19 231.10 0.48L231.10 0.48L231.10 0.48Q229.63 0.77 227.71 0.77L227.71 0.77L227.71 0.77Q224 0.77 221.60-0.35L221.60-0.35L221.60-0.35Q219.20-1.47 218.30-3.46L218.30-3.46L218.30-3.46Q215.87-1.54 212.86-0.38L212.86-0.38L212.86-0.38Q209.86 0.77 205.82 0.77L205.82 0.77L205.82 0.77Q193.92 0.77 193.92-8.70L193.92-8.70L193.92-8.70Q193.92-13.63 196.58-16.22L196.58-16.22L196.58-16.22Q199.23-18.82 204.22-19.78L204.22-19.78L204.22-19.78Q209.22-20.74 217.28-20.74L217.28-20.74L217.28-22.40L217.28-22.40Q217.28-24.38 215.90-25.41L215.90-25.41L215.90-25.41Q214.53-26.43 212.35-26.43L212.35-26.43L212.35-26.43Q210.37-26.43 208.93-25.73L208.93-25.73L208.93-25.73Q207.49-25.02 207.49-23.49L207.49-23.49L207.49-23.23L194.94-23.23L194.94-23.23Q194.88-23.55 194.88-24.13L194.88-24.13L194.88-24.13Q194.88-28.93 199.46-31.74L199.46-31.74L199.46-31.74Q204.03-34.56 212.54-34.56L212.54-34.56ZM217.28-14.72L217.28-14.72Q211.84-14.72 209.25-13.54L209.25-13.54L209.25-13.54Q206.66-12.35 206.66-10.37L206.66-10.37L206.66-10.37Q206.66-7.17 211.01-7.17L211.01-7.17L211.01-7.17Q213.50-7.17 215.39-8.51L215.39-8.51L215.39-8.51Q217.28-9.86 217.28-11.84L217.28-11.84L217.28-14.72ZM282.11-34.56L282.11-34.56Q288.96-34.56 292.67-30.08L292.67-30.08L292.67-30.08Q296.38-25.60 296.38-16.83L296.38-16.83L296.38-16.83Q296.38-8.13 292.67-3.68L292.67-3.68L292.67-3.68Q288.96 0.77 282.11 0.77L282.11 0.77L282.11 0.77Q276.22 0.77 272.64-3.07L272.64-3.07L272.64 12.61L259.90 12.61L259.90-33.79L270.27-33.79L271.36-28.99L271.36-28.99Q275.07-34.56 282.11-34.56L282.11-34.56ZM278.14-25.15L278.14-25.15Q275.33-25.15 273.92-23.17L273.92-23.17L273.92-23.17Q272.51-21.18 272.51-17.98L272.51-17.98L272.51-15.87L272.51-15.87Q272.51-12.67 273.92-10.66L273.92-10.66L273.92-10.66Q275.33-8.64 278.14-8.64L278.14-8.64L278.14-8.64Q283.65-8.64 283.65-15.23L283.65-15.23L283.65-18.62L283.65-18.62Q283.65-25.15 278.14-25.15L278.14-25.15ZM323.07-34.62L323.07-34.62Q324.54-34.62 325.70-34.27L325.70-34.27L325.70-34.27Q326.85-33.92 326.85-33.86L326.85-33.86L326.85-23.17L322.75-23.17L322.75-23.17Q318.78-23.17 317.02-21.12L317.02-21.12L317.02-21.12Q315.26-19.07 315.26-15.04L315.26-15.04L315.26 0L302.53 0L302.53-33.79L312.96-33.79L313.79-28.67L313.79-28.67Q314.94-31.62 317.44-33.12L317.44-33.12L317.44-33.12Q319.94-34.62 323.07-34.62L323.07-34.62ZM347.65-34.56L347.65-34.56Q355.39-34.56 360.26-31.97L360.26-31.97L360.26-31.97Q365.12-29.38 365.12-23.55L365.12-23.55L365.12-10.37L365.12-10.37Q365.12-9.28 365.63-8.58L365.63-8.58L365.63-8.58Q366.14-7.87 367.17-7.87L367.17-7.87L369.47-7.87L369.47-0.51L369.47-0.51Q369.28-0.38 368.48-0.10L368.48-0.10L368.48-0.10Q367.68 0.19 366.21 0.48L366.21 0.48L366.21 0.48Q364.74 0.77 362.82 0.77L362.82 0.77L362.82 0.77Q359.10 0.77 356.70-0.35L356.70-0.35L356.70-0.35Q354.30-1.47 353.41-3.46L353.41-3.46L353.41-3.46Q350.98-1.54 347.97-0.38L347.97-0.38L347.97-0.38Q344.96 0.77 340.93 0.77L340.93 0.77L340.93 0.77Q329.02 0.77 329.02-8.70L329.02-8.70L329.02-8.70Q329.02-13.63 331.68-16.22L331.68-16.22L331.68-16.22Q334.34-18.82 339.33-19.78L339.33-19.78L339.33-19.78Q344.32-20.74 352.38-20.74L352.38-20.74L352.38-22.40L352.38-22.40Q352.38-24.38 351.01-25.41L351.01-25.41L351.01-25.41Q349.63-26.43 347.46-26.43L347.46-26.43L347.46-26.43Q345.47-26.43 344.03-25.73L344.03-25.73L344.03-25.73Q342.59-25.02 342.59-23.49L342.59-23.49L342.59-23.23L330.05-23.23L330.05-23.23Q329.98-23.55 329.98-24.13L329.98-24.13L329.98-24.13Q329.98-28.93 334.56-31.74L334.56-31.74L334.56-31.74Q339.14-34.56 347.65-34.56L347.65-34.56ZM352.38-14.72L352.38-14.72Q346.94-14.72 344.35-13.54L344.35-13.54L344.35-13.54Q341.76-12.35 341.76-10.37L341.76-10.37L341.76-10.37Q341.76-7.17 346.11-7.17L346.11-7.17L346.11-7.17Q348.61-7.17 350.50-8.51L350.50-8.51L350.50-8.51Q352.38-9.86 352.38-11.84L352.38-11.84L352.38-14.72ZM391.10-34.56L391.10-34.56Q399.42-34.56 404.58-31.01L404.58-31.01L404.58-31.01Q409.73-27.46 409.73-20.16L409.73-20.16L397.38-20.16L397.38-20.16Q397.38-25.92 391.10-25.92L391.10-25.92L391.10-25.92Q384.83-25.92 384.83-18.69L384.83-18.69L384.83-15.04L384.83-15.04Q384.83-7.87 391.36-7.87L391.36-7.87L391.36-7.87Q397.89-7.87 397.89-13.76L397.89-13.76L409.73-13.76L409.73-13.76Q409.73-6.40 404.58-2.82L404.58-2.82L404.58-2.82Q399.42 0.77 391.10 0.77L391.10 0.77L391.10 0.77Q382.21 0.77 377.15-3.71L377.15-3.71L377.15-3.71Q372.10-8.19 372.10-16.90L372.10-16.90L372.10-16.90Q372.10-25.60 377.15-30.08L377.15-30.08L377.15-30.08Q382.21-34.56 391.10-34.56L391.10-34.56ZM433.79-34.56L433.79-34.56Q442.69-34.56 447.78-30.05L447.78-30.05L447.78-30.05Q452.86-25.54 452.86-16.90L452.86-16.90L452.86-16.90Q452.86-8.26 447.78-3.74L447.78-3.74L447.78-3.74Q442.69 0.77 433.79 0.77L433.79 0.77L433.79 0.77Q424.90 0.77 419.84-3.71L419.84-3.71L419.84-3.71Q414.78-8.19 414.78-16.90L414.78-16.90L414.78-16.90Q414.78-25.60 419.84-30.08L419.84-30.08L419.84-30.08Q424.90-34.56 433.79-34.56L433.79-34.56ZM433.79-25.92L433.79-25.92Q427.52-25.92 427.52-18.69L427.52-18.69L427.52-15.04L427.52-15.04Q427.52-7.87 433.79-7.87L433.79-7.87L433.79-7.87Q440.13-7.87 440.13-15.04L440.13-15.04L440.13-18.69L440.13-18.69Q440.13-25.92 433.79-25.92L433.79-25.92ZM503.17 0L490.75 0L485.50-18.82L485.25-18.82L479.94 0L467.52 0L455.17-33.79L468.86-33.79L473.98-13.82L474.43-13.82L479.74-33.79L492.42-33.79L497.54-13.82L497.98-13.82L503.17-33.79L515.58-33.79L503.17 0ZM542.72-34.56L542.72-34.56Q548.61-34.56 551.55-31.30L551.55-31.30L551.55-31.30Q554.50-28.03 554.50-21.89L554.50-21.89L554.50 0L541.76 0L541.76-20.35L541.76-20.35Q541.76-22.53 540.64-23.84L540.64-23.84L540.64-23.84Q539.52-25.15 537.47-25.15L537.47-25.15L537.47-25.15Q535.10-25.15 533.63-23.62L533.63-23.62L533.63-23.62Q532.16-22.08 532.16-19.84L532.16-19.84L532.16 0L519.42 0L519.42-33.79L529.86-33.79L530.69-28.67L530.69-28.67Q532.67-31.36 535.90-32.96L535.90-32.96L535.90-32.96Q539.14-34.56 542.72-34.56L542.72-34.56ZM575.30-37.76L562.56-37.76L562.56-46.40L575.30-46.40L575.30-37.76ZM575.30 0L562.56 0L562.56-33.79L575.30-33.79L575.30 0ZM596.16-20.86L606.98-33.79L621.82-33.79L609.34-20.16L622.14 0L607.68 0L600.58-11.58L596.16-7.30L596.16 0L583.42 0L583.42-46.46L596.16-46.46L596.16-20.86ZM642.82-34.56L642.82-34.56Q650.56-34.56 655.42-31.97L655.42-31.97L655.42-31.97Q660.29-29.38 660.29-23.55L660.29-23.55L660.29-10.37L660.29-10.37Q660.29-9.28 660.80-8.58L660.80-8.58L660.80-8.58Q661.31-7.87 662.34-7.87L662.34-7.87L664.64-7.87L664.64-0.51L664.64-0.51Q664.45-0.38 663.65-0.10L663.65-0.10L663.65-0.10Q662.85 0.19 661.38 0.48L661.38 0.48L661.38 0.48Q659.90 0.77 657.98 0.77L657.98 0.77L657.98 0.77Q654.27 0.77 651.87-0.35L651.87-0.35L651.87-0.35Q649.47-1.47 648.58-3.46L648.58-3.46L648.58-3.46Q646.14-1.54 643.14-0.38L643.14-0.38L643.14-0.38Q640.13 0.77 636.10 0.77L636.10 0.77L636.10 0.77Q624.19 0.77 624.19-8.70L624.19-8.70L624.19-8.70Q624.19-13.63 626.85-16.22L626.85-16.22L626.85-16.22Q629.50-18.82 634.50-19.78L634.50-19.78L634.50-19.78Q639.49-20.74 647.55-20.74L647.55-20.74L647.55-22.40L647.55-22.40Q647.55-24.38 646.18-25.41L646.18-25.41L646.18-25.41Q644.80-26.43 642.62-26.43L642.62-26.43L642.62-26.43Q640.64-26.43 639.20-25.73L639.20-25.73L639.20-25.73Q637.76-25.02 637.76-23.49L637.76-23.49L637.76-23.23L625.22-23.23L625.22-23.23Q625.15-23.55 625.15-24.13L625.15-24.13L625.15-24.13Q625.15-28.93 629.73-31.74L629.73-31.74L629.73-31.74Q634.30-34.56 642.82-34.56L642.82-34.56ZM647.55-14.72L647.55-14.72Q642.11-14.72 639.52-13.54L639.52-13.54L639.52-13.54Q636.93-12.35 636.93-10.37L636.93-10.37L636.93-10.37Q636.93-7.17 641.28-7.17L641.28-7.17L641.28-7.17Q643.78-7.17 645.66-8.51L645.66-8.51L645.66-8.51Q647.55-9.86 647.55-11.84L647.55-11.84L647.55-14.72Z" fill="#0d99ff"></path></g></g><style>text {
  font-size: 64px;
  font-family: Arial Black;
  dominant-baseline: central;
  text-anchor: middle;
}</style></svg>