<svg width="788.5700439453125px" height="114.66875px" xmlns="http://www.w3.org/2000/svg" viewBox="-144.28502197265624 17.665625 788.5700439453125 114.66875" style="background-image: none; background-position: initial initial; background-repeat: initial initial;" preserveAspectRatio="xMidYMid"><defs><filter id="editing-extrude-glow"><feFlood flood-color="none" result="flood-1"></feFlood><feMorphology operator="erode" radius="1" in="SourceAlpha" result="erode"></feMorphology><feComposite operator="in" in="flood-1" in2="erode" result="comp1"></feComposite><feConvolveMatrix order="1,1" divisor="1" in="comp1" result="convolve" kernelMatrix="1"></feConvolveMatrix><feOffset dx="-1" dy="0" in="convolve" result="extrude"></feOffset><feComposite operator="in" in="flood-1" in2="extrude" result="comp-extrude"></feComposite><feFlood flood-color="rgba(0%,0%,0%,0)" result="flood-2"></feFlood><feComposite operator="in" in="flood-2" in2="SourceAlpha" result="comp2"></feComposite><feMorphology operator="dilate" radius="1" in="comp2" result="dilate"></feMorphology><feOffset dx="-1.5" dy="0" in="dilate" result="offset"></feOffset><feGaussianBlur in="offset" stdDeviation="5.8" result="blur"></feGaussianBlur><feComponentTransfer in="blur" result="shadow"><feFuncA type="linear" slope="0.8" intercept="-0.2"></feFuncA></feComponentTransfer><feMerge><feMergeNode in="shadow"></feMergeNode><feMergeNode in="comp-extrude"></feMergeNode><feMergeNode in="SourceGraphic"></feMergeNode></feMerge></filter></defs><g filter="url(#editing-extrude-glow)"><g transform="translate(-34.90000343322754, 104.92781257629395)"><path d="M4.74 0L4.74-44.03L42.82-44.03L42.82-33.47L18.88-33.47L18.88-27.39L39.36-27.39L39.36-17.28L18.88-17.28L18.88-10.56L43.26-10.56L43.26 0L4.74 0ZM84.99 0L74.62 0L73.54-4.80L73.54-4.80Q69.82 0.77 62.78 0.77L62.78 0.77L62.78 0.77Q55.94 0.77 52.22-3.71L52.22-3.71L52.22-3.71Q48.51-8.19 48.51-16.96L48.51-16.96L48.51-16.96Q48.51-25.66 52.22-30.11L52.22-30.11L52.22-30.11Q55.94-34.56 62.78-34.56L62.78-34.56L62.78-34.56Q68.61-34.56 72.26-30.66L72.26-30.66L72.26-46.40L84.99-46.40L84.99 0ZM66.75-25.15L66.75-25.15Q61.25-25.15 61.25-18.56L61.25-18.56L61.25-15.17L61.25-15.17Q61.25-8.64 66.75-8.64L66.75-8.64L66.75-8.64Q69.57-8.64 70.98-10.62L70.98-10.62L70.98-10.62Q72.38-12.61 72.38-15.81L72.38-15.81L72.38-17.92L72.38-17.92Q72.38-21.12 70.98-23.14L70.98-23.14L70.98-23.14Q69.57-25.15 66.75-25.15L66.75-25.15ZM115.97-1.02L115.97-1.02Q113.34 6.08 109.54 9.76L109.54 9.76L109.54 9.76Q105.73 13.44 98.88 13.44L98.88 13.44L98.88 13.44Q94.72 13.44 91.52 12.29L91.52 12.29L91.52 4.67L96.64 4.67L96.64 4.67Q101.44 4.67 102.34 0L102.34 0L88.90-33.79L102.59-33.79L109.06-11.33L109.50-11.33L115.46-33.79L128-33.79L115.97-1.02ZM149.31-34.56L149.31-34.56Q157.63-34.56 162.78-31.01L162.78-31.01L162.78-31.01Q167.94-27.46 167.94-20.16L167.94-20.16L155.58-20.16L155.58-20.16Q155.58-25.92 149.31-25.92L149.31-25.92L149.31-25.92Q143.04-25.92 143.04-18.69L143.04-18.69L143.04-15.04L143.04-15.04Q143.04-7.87 149.57-7.87L149.57-7.87L149.57-7.87Q156.10-7.87 156.10-13.76L156.10-13.76L167.94-13.76L167.94-13.76Q167.94-6.40 162.78-2.82L162.78-2.82L162.78-2.82Q157.63 0.77 149.31 0.77L149.31 0.77L149.31 0.77Q140.42 0.77 135.36-3.71L135.36-3.71L135.36-3.71Q130.30-8.19 130.30-16.90L130.30-16.90L130.30-16.90Q130.30-25.60 135.36-30.08L135.36-30.08L135.36-30.08Q140.42-34.56 149.31-34.56L149.31-34.56ZM187.71-37.76L174.98-37.76L174.98-46.40L187.71-46.40L187.71-37.76ZM187.71 1.86L187.71 1.86Q187.71 8 184.93 10.72L184.93 10.72L184.93 10.72Q182.14 13.44 176 13.44L176 13.44L176 13.44Q174.34 13.44 171.90 13.12L171.90 13.12L171.90 13.12Q169.47 12.80 168.06 12.29L168.06 12.29L168.06 4.67L171.39 4.67L171.39 4.67Q174.98 4.67 174.98 0.58L174.98 0.58L174.98-33.79L187.71-33.79L187.71 1.86ZM212.54-34.56L212.54-34.56Q220.29-34.56 225.15-31.97L225.15-31.97L225.15-31.97Q230.02-29.38 230.02-23.55L230.02-23.55L230.02-10.37L230.02-10.37Q230.02-9.28 230.53-8.58L230.53-8.58L230.53-8.58Q231.04-7.87 232.06-7.87L232.06-7.87L234.37-7.87L234.37-0.51L234.37-0.51Q234.18-0.38 233.38-0.10L233.38-0.10L233.38-0.10Q232.58 0.19 231.10 0.48L231.10 0.48L231.10 0.48Q229.63 0.77 227.71 0.77L227.71 0.77L227.71 0.77Q224 0.77 221.60-0.35L221.60-0.35L221.60-0.35Q219.20-1.47 218.30-3.46L218.30-3.46L218.30-3.46Q215.87-1.54 212.86-0.38L212.86-0.38L212.86-0.38Q209.86 0.77 205.82 0.77L205.82 0.77L205.82 0.77Q193.92 0.77 193.92-8.70L193.92-8.70L193.92-8.70Q193.92-13.63 196.58-16.22L196.58-16.22L196.58-16.22Q199.23-18.82 204.22-19.78L204.22-19.78L204.22-19.78Q209.22-20.74 217.28-20.74L217.28-20.74L217.28-22.40L217.28-22.40Q217.28-24.38 215.90-25.41L215.90-25.41L215.90-25.41Q214.53-26.43 212.35-26.43L212.35-26.43L212.35-26.43Q210.37-26.43 208.93-25.73L208.93-25.73L208.93-25.73Q207.49-25.02 207.49-23.49L207.49-23.49L207.49-23.23L194.94-23.23L194.94-23.23Q194.88-23.55 194.88-24.13L194.88-24.13L194.88-24.13Q194.88-28.93 199.46-31.74L199.46-31.74L199.46-31.74Q204.03-34.56 212.54-34.56L212.54-34.56ZM217.28-14.72L217.28-14.72Q211.84-14.72 209.25-13.54L209.25-13.54L209.25-13.54Q206.66-12.35 206.66-10.37L206.66-10.37L206.66-10.37Q206.66-7.17 211.01-7.17L211.01-7.17L211.01-7.17Q213.50-7.17 215.39-8.51L215.39-8.51L215.39-8.51Q217.28-9.86 217.28-11.84L217.28-11.84L217.28-14.72ZM275.90-34.56L275.90-34.56Q282.69-34.56 287.39-31.90L287.39-31.90L287.39-31.90Q292.10-29.25 292.10-23.68L292.10-23.68L280.26-23.68L280.26-23.68Q280.26-25.54 278.59-26.30L278.59-26.30L278.59-26.30Q277.44-26.94 275.71-26.94L275.71-26.94L275.71-26.94Q271.10-26.94 271.10-24.77L271.10-24.77L271.10-24.77Q271.10-23.55 272.70-23.04L272.70-23.04L272.70-23.04Q274.30-22.53 277.95-21.95L277.95-21.95L277.95-21.95Q282.43-21.31 285.44-20.45L285.44-20.45L285.44-20.45Q288.45-19.58 290.69-17.38L290.69-17.38L290.69-17.38Q292.93-15.17 292.93-11.20L292.93-11.20L292.93-11.20Q292.93-4.74 288.10-1.98L288.10-1.98L288.10-1.98Q283.26 0.77 275.46 0.77L275.46 0.77L275.46 0.77Q270.98 0.77 267.01-0.48L267.01-0.48L267.01-0.48Q263.04-1.73 260.54-4.35L260.54-4.35L260.54-4.35Q258.05-6.98 258.05-11.01L258.05-11.01L269.89-11.01L269.89-10.75L269.89-10.75Q269.95-8.58 271.71-7.71L271.71-7.71L271.71-7.71Q273.47-6.85 275.46-6.85L275.46-6.85L275.46-6.85Q280.77-6.85 280.77-9.34L280.77-9.34L280.77-9.34Q280.77-10.62 279.10-11.20L279.10-11.20L279.10-11.20Q277.44-11.78 273.66-12.42L273.66-12.42L273.66-12.42Q269.12-13.18 266.21-14.08L266.21-14.08L266.21-14.08Q263.30-14.98 261.12-17.12L261.12-17.12L261.12-17.12Q258.94-19.26 258.94-23.10L258.94-23.10L258.94-23.10Q258.94-29.31 263.65-31.94L263.65-31.94L263.65-31.94Q268.35-34.56 275.90-34.56L275.90-34.56ZM314.30-33.79L321.47-33.79L321.47-25.15L314.30-25.15L314.30-12.29L314.30-12.29Q314.30-9.98 315.07-8.93L315.07-8.93L315.07-8.93Q315.84-7.87 317.89-7.87L317.89-7.87L321.47-7.87L321.47-0.38L321.47-0.38Q319.94 0.13 317.50 0.45L317.50 0.45L317.50 0.45Q315.07 0.77 313.28 0.77L313.28 0.77L313.28 0.77Q307.65 0.77 304.61-1.28L304.61-1.28L304.61-1.28Q301.57-3.33 301.57-8.26L301.57-8.26L301.57-25.15L296.83-25.15L296.83-33.79L302.08-33.79L304.83-44.03L314.30-44.03L314.30-33.79ZM362.30 0L351.87 0L351.04-5.12L351.04-5.12Q349.06-2.37 345.82-0.80L345.82-0.80L345.82-0.80Q342.59 0.77 339.01 0.77L339.01 0.77L339.01 0.77Q333.12 0.77 330.18-2.50L330.18-2.50L330.18-2.50Q327.23-5.76 327.23-11.90L327.23-11.90L327.23-33.79L339.97-33.79L339.97-13.44L339.97-13.44Q339.97-11.26 341.09-9.95L341.09-9.95L341.09-9.95Q342.21-8.64 344.26-8.64L344.26-8.64L344.26-8.64Q346.62-8.64 348.10-10.18L348.10-10.18L348.10-10.18Q349.57-11.71 349.57-13.95L349.57-13.95L349.57-33.79L362.30-33.79L362.30 0ZM404.99 0L394.62 0L393.54-4.80L393.54-4.80Q389.82 0.77 382.78 0.77L382.78 0.77L382.78 0.77Q375.94 0.77 372.22-3.71L372.22-3.71L372.22-3.71Q368.51-8.19 368.51-16.96L368.51-16.96L368.51-16.96Q368.51-25.66 372.22-30.11L372.22-30.11L372.22-30.11Q375.94-34.56 382.78-34.56L382.78-34.56L382.78-34.56Q388.61-34.56 392.26-30.66L392.26-30.66L392.26-46.40L404.99-46.40L404.99 0ZM386.75-25.15L386.75-25.15Q381.25-25.15 381.25-18.56L381.25-18.56L381.25-15.17L381.25-15.17Q381.25-8.64 386.75-8.64L386.75-8.64L386.75-8.64Q389.57-8.64 390.98-10.62L390.98-10.62L390.98-10.62Q392.38-12.61 392.38-15.81L392.38-15.81L392.38-17.92L392.38-17.92Q392.38-21.12 390.98-23.14L390.98-23.14L390.98-23.14Q389.57-25.15 386.75-25.15L386.75-25.15ZM430.21-34.56L430.21-34.56Q439.49-34.56 444.38-30.21L444.38-30.21L444.38-30.21Q449.28-25.86 449.28-16.90L449.28-16.90L449.28-14.72L423.94-14.72L423.94-14.72Q423.94-11.07 425.57-9.22L425.57-9.22L425.57-9.22Q427.20-7.36 430.72-7.36L430.72-7.36L430.72-7.36Q433.92-7.36 435.42-8.70L435.42-8.70L435.42-8.70Q436.93-10.05 436.93-12.29L436.93-12.29L449.28-12.29L449.28-12.29Q449.28-6.14 444.61-2.69L444.61-2.69L444.61-2.69Q439.94 0.77 430.98 0.77L430.98 0.77L430.98 0.77Q421.57 0.77 416.38-3.62L416.38-3.62L416.38-3.62Q411.20-8 411.20-16.90L411.20-16.90L411.20-16.90Q411.20-25.60 416.26-30.08L416.26-30.08L416.26-30.08Q421.31-34.56 430.21-34.56L430.21-34.56ZM430.72-26.43L430.72-26.43Q424.70-26.43 424.00-20.74L424.00-20.74L436.42-20.74L436.42-20.74Q436.42-23.36 434.91-24.90L434.91-24.90L434.91-24.90Q433.41-26.43 430.72-26.43L430.72-26.43ZM478.72-34.56L478.72-34.56Q484.61-34.56 487.55-31.30L487.55-31.30L487.55-31.30Q490.50-28.03 490.50-21.89L490.50-21.89L490.50 0L477.76 0L477.76-20.35L477.76-20.35Q477.76-22.53 476.64-23.84L476.64-23.84L476.64-23.84Q475.52-25.15 473.47-25.15L473.47-25.15L473.47-25.15Q471.10-25.15 469.63-23.62L469.63-23.62L469.63-23.62Q468.16-22.08 468.16-19.84L468.16-19.84L468.16 0L455.42 0L455.42-33.79L465.86-33.79L466.69-28.67L466.69-28.67Q468.67-31.36 471.90-32.96L471.90-32.96L471.90-32.96Q475.14-34.56 478.72-34.56L478.72-34.56ZM513.47-33.79L520.64-33.79L520.64-25.15L513.47-25.15L513.47-12.29L513.47-12.29Q513.47-9.98 514.24-8.93L514.24-8.93L514.24-8.93Q515.01-7.87 517.06-7.87L517.06-7.87L520.64-7.87L520.64-0.38L520.64-0.38Q519.10 0.13 516.67 0.45L516.67 0.45L516.67 0.45Q514.24 0.77 512.45 0.77L512.45 0.77L512.45 0.77Q506.82 0.77 503.78-1.28L503.78-1.28L503.78-1.28Q500.74-3.33 500.74-8.26L500.74-8.26L500.74-25.15L496.00-25.15L496.00-33.79L501.25-33.79L504.00-44.03L513.47-44.03L513.47-33.79ZM543.23-34.56L543.23-34.56Q550.98-34.56 555.84-31.97L555.84-31.97L555.84-31.97Q560.70-29.38 560.70-23.55L560.70-23.55L560.70-10.37L560.70-10.37Q560.70-9.28 561.22-8.58L561.22-8.58L561.22-8.58Q561.73-7.87 562.75-7.87L562.75-7.87L565.06-7.87L565.06-0.51L565.06-0.51Q564.86-0.38 564.06-0.10L564.06-0.10L564.06-0.10Q563.26 0.19 561.79 0.48L561.79 0.48L561.79 0.48Q560.32 0.77 558.40 0.77L558.40 0.77L558.40 0.77Q554.69 0.77 552.29-0.35L552.29-0.35L552.29-0.35Q549.89-1.47 548.99-3.46L548.99-3.46L548.99-3.46Q546.56-1.54 543.55-0.38L543.55-0.38L543.55-0.38Q540.54 0.77 536.51 0.77L536.51 0.77L536.51 0.77Q524.61 0.77 524.61-8.70L524.61-8.70L524.61-8.70Q524.61-13.63 527.26-16.22L527.26-16.22L527.26-16.22Q529.92-18.82 534.91-19.78L534.91-19.78L534.91-19.78Q539.90-20.74 547.97-20.74L547.97-20.74L547.97-22.40L547.97-22.40Q547.97-24.38 546.59-25.41L546.59-25.41L546.59-25.41Q545.22-26.43 543.04-26.43L543.04-26.43L543.04-26.43Q541.06-26.43 539.62-25.73L539.62-25.73L539.62-25.73Q538.18-25.02 538.18-23.49L538.18-23.49L538.18-23.23L525.63-23.23L525.63-23.23Q525.57-23.55 525.57-24.13L525.57-24.13L525.57-24.13Q525.57-28.93 530.14-31.74L530.14-31.74L530.14-31.74Q534.72-34.56 543.23-34.56L543.23-34.56ZM547.97-14.72L547.97-14.72Q542.53-14.72 539.94-13.54L539.94-13.54L539.94-13.54Q537.34-12.35 537.34-10.37L537.34-10.37L537.34-10.37Q537.34-7.17 541.70-7.17L541.70-7.17L541.70-7.17Q544.19-7.17 546.08-8.51L546.08-8.51L546.08-8.51Q547.97-9.86 547.97-11.84L547.97-11.84L547.97-14.72Z" fill="#0d99ff"></path></g></g><style>text {
  font-size: 64px;
  font-family: Arial Black;
  dominant-baseline: central;
  text-anchor: middle;
}</style></svg>